<svg width="32" height="32" viewBox="0 0 32 32" fill="none" xmlns="http://www.w3.org/2000/svg">
<path fill-rule="evenodd" clip-rule="evenodd" d="M23.25 7.25H27.5C29.0648 7.25 30.3333 8.51853 30.3333 10.0833V27.0833C30.3333 28.6481 29.0648 29.9167 27.5 29.9167H4.83333C3.26853 29.9167 2 28.6481 2 27.0833V10.0833C2 8.51853 3.26853 7.25 4.83333 7.25H9.08333C9.08333 4.90279 10.9861 3 13.3333 3H19C21.3472 3 23.25 4.90279 23.25 7.25ZM19 5.83333H13.3333C12.5509 5.83333 11.9167 6.4676 11.9167 7.25H20.4167C20.4167 6.4676 19.7824 5.83333 19 5.83333ZM27.5 10.0833H4.83333V12.9167H27.5V10.0833ZM4.83333 27.0833V15.75H9.08333V18.5833H14.75V15.75H17.5833V18.5833H23.25V15.75H27.5V27.0833H4.83333Z" fill="#DC143C"/>
</svg>
