<svg width="32" height="32" viewBox="0 0 32 32" fill="none" xmlns="http://www.w3.org/2000/svg">
<path d="M28.26 15L25 7H27V5H17V3H15V5H5V7H7L3.76 15H3V17H3.3C3.612 17.996 4.246 18.86 5.1 19.46C5.9433 20.0715 6.95832 20.4008 8 20.4008C9.04168 20.4008 10.0567 20.0715 10.9 19.46C11.7547 18.8563 12.3928 17.9939 12.72 17H13V15H12.1L8.76 7H15V23H11L10.22 23.36L6.22 28.38L7 30H25L25.78 28.38L21.78 23.36L21 23H17V7H23.26L19.92 15H19V17H19.3C19.6271 17.9909 20.2584 18.8534 21.104 19.4647C21.9496 20.0761 22.9665 20.4052 24.01 20.4052C25.0535 20.4052 26.0704 20.0761 26.916 19.4647C27.7616 18.8534 28.3929 17.9909 28.72 17H29V15H28.26ZM9.44 18.02C8.99893 18.2641 8.50408 18.3947 8 18.4C7.50189 18.3974 7.01284 18.2665 6.58 18.02C6.13862 17.7781 5.76675 17.4268 5.5 17H10.5C10.2355 17.4217 9.87151 17.7719 9.44 18.02ZM9.94 15H5.94L7.94 10.2L9.94 15ZM20.52 25L23 28H9L11.48 25H20.52ZM24.08 10.24L26.08 15.04H22.08L24.08 10.24ZM25.44 18.06C25.0027 18.3134 24.5054 18.4447 24 18.44C23.5006 18.4471 23.0091 18.3156 22.58 18.06C22.138 17.8013 21.7669 17.4371 21.5 17H26.5C26.2521 17.445 25.885 17.8121 25.44 18.06Z" fill="#DC143C"/>
</svg>
