<svg width="32" height="32" viewBox="0 0 32 32" fill="none" xmlns="http://www.w3.org/2000/svg">
<path d="M12.6274 22.9541H17.8138L20.4861 14.1089C20.8617 12.8663 20.9403 11.548 20.7149 10.2671C20.4895 8.98619 19.9669 7.78099 19.192 6.75494L15.8339 2.30957C15.7611 2.21316 15.6681 2.13516 15.5618 2.08152C15.4555 2.02788 15.3388 2 15.2206 2C15.1023 2 14.9856 2.02788 14.8794 2.08152C14.7731 2.13516 14.6801 2.21316 14.6073 2.30957L11.2491 6.75494C10.4742 7.78099 9.95167 8.98619 9.72629 10.2671C9.5009 11.548 9.57943 12.8663 9.95512 14.1089L12.6274 22.9541ZM12.6274 22.9541L8.73762 25.636C8.73762 25.636 6.14443 20.2721 10.6825 16.9196M12.6274 26.977C12.6274 29.659 15.2206 31 15.2206 31C15.2206 31 17.8138 29.659 17.8138 26.977M20.3175 16.9196C24.8556 20.2721 22.2624 25.636 22.2624 25.636L18.3726 22.9541" stroke="#DC143C" stroke-width="2" stroke-linecap="round" stroke-linejoin="round"/>
<path d="M15.5 14C14.837 14 14.2011 13.7366 13.7322 13.2678C13.2634 12.7989 13 12.163 13 11.5C13 10.837 13.2634 10.2011 13.7322 9.73223C14.2011 9.26339 14.837 9 15.5 9C16.163 9 16.7989 9.26339 17.2678 9.73223C17.7366 10.2011 18 10.837 18 11.5C18 12.163 17.7366 12.7989 17.2678 13.2678C16.7989 13.7366 16.163 14 15.5 14Z" stroke="#DC143C" stroke-width="2" stroke-linecap="round" stroke-linejoin="round"/>
</svg>
