<svg width="32" height="32" viewBox="0 0 32 32" fill="none" xmlns="http://www.w3.org/2000/svg">
<g clip-path="url(#clip0_6593_21285)">
<path d="M16.0001 0C9.04402 0 3.38477 5.65919 3.38477 12.6154C3.38477 16.9506 5.58302 20.7817 8.9232 23.0536V31.0769C8.9232 31.3901 9.08202 31.682 9.34508 31.852C9.47454 31.9357 9.62289 31.9856 9.7766 31.9973C9.93031 32.0089 10.0845 31.9819 10.2251 31.9186L16.0001 29.3199L21.7752 31.9187C21.9158 31.982 22.07 32.009 22.2237 31.9974C22.3774 31.9857 22.5258 31.9358 22.6552 31.8521C22.7846 31.7684 22.8911 31.6536 22.9648 31.5182C23.0385 31.3828 23.0771 31.2311 23.0771 31.0769V23.0536C26.4173 20.7818 28.6155 16.9506 28.6155 12.6154C28.6155 5.65919 22.9563 0 16.0001 0ZM21.2309 29.6494L16.3789 27.466C16.2598 27.4123 16.1307 27.3846 16.0001 27.3846C15.8696 27.3846 15.7405 27.4123 15.6214 27.4659L10.7694 29.6493V24.0971C11.233 24.3081 11.709 24.4906 12.1947 24.6437C12.2222 24.6524 12.2496 24.6614 12.2773 24.6699C12.3392 24.6889 12.4013 24.7073 12.4635 24.7254C12.5096 24.7389 12.5556 24.7522 12.6018 24.7652C12.652 24.7792 12.7024 24.7928 12.7528 24.8062C12.8531 24.8331 12.9538 24.8586 13.0549 24.8827C13.2328 24.9254 13.4116 24.9642 13.5912 24.999C13.6219 25.0049 13.6526 25.011 13.6833 25.0168C13.7632 25.0316 13.8434 25.0456 13.9238 25.0589C13.9513 25.0636 13.9789 25.0683 14.0065 25.0727C14.0895 25.0859 14.1728 25.0981 14.2563 25.1097C14.2822 25.1133 14.308 25.1171 14.3339 25.1206C14.4185 25.1317 14.5034 25.1418 14.5884 25.1513C14.6138 25.1541 14.639 25.1573 14.6644 25.1601C14.7492 25.1691 14.8343 25.1768 14.9196 25.184C14.9455 25.1862 14.9713 25.1889 14.9972 25.1909C15.0813 25.1975 15.1657 25.2028 15.2503 25.2078C15.2774 25.2094 15.3044 25.2116 15.3316 25.213C15.4171 25.2175 15.5028 25.2206 15.5887 25.2233C15.6146 25.2242 15.6403 25.2256 15.6661 25.2262C15.7771 25.2291 15.8885 25.2307 16.0003 25.2307C16.112 25.2307 16.2233 25.2291 16.3343 25.2262C16.3602 25.2256 16.3859 25.2242 16.4118 25.2233C16.4976 25.2206 16.5834 25.2174 16.6688 25.213C16.696 25.2116 16.723 25.2094 16.7502 25.2078C16.8348 25.2028 16.9192 25.1976 17.0033 25.1909C17.0292 25.1889 17.055 25.1862 17.0808 25.184C17.1661 25.1768 17.2513 25.169 17.3361 25.1601C17.3615 25.1574 17.3867 25.1542 17.4121 25.1513C17.4971 25.1417 17.582 25.1317 17.6666 25.1206C17.6925 25.1171 17.7183 25.1133 17.7441 25.1097C17.8275 25.0982 17.9108 25.0859 17.994 25.0727C18.0216 25.0682 18.0491 25.0635 18.0767 25.0589C18.157 25.0456 18.2371 25.0316 18.3171 25.0168C18.3479 25.011 18.3786 25.005 18.4093 24.999C18.5202 24.9774 18.6308 24.9544 18.7411 24.9299C18.8094 24.9148 18.8776 24.899 18.9456 24.8827C19.0466 24.8586 19.1473 24.8331 19.2477 24.8062C19.2981 24.7927 19.3485 24.7793 19.3986 24.7652C19.4448 24.7522 19.491 24.7389 19.537 24.7254C19.5991 24.7072 19.6613 24.6889 19.7232 24.6699C19.7508 24.6613 19.7783 24.6524 19.8058 24.6437C20.2915 24.4906 20.7675 24.3081 21.2311 24.0972V29.6494H21.2309ZM19.5145 22.7952C19.4776 22.8079 19.4408 22.8207 19.4039 22.833C19.3478 22.8517 19.2914 22.8702 19.2348 22.888C19.169 22.9087 19.103 22.9286 19.0368 22.948C18.9901 22.9618 18.9434 22.9754 18.8965 22.9886C18.8089 23.013 18.721 23.0364 18.6328 23.0586C18.6 23.0669 18.567 23.0748 18.534 23.0828C18.4476 23.1037 18.361 23.1235 18.2741 23.1423C18.2523 23.147 18.2306 23.152 18.2087 23.1565C18.0966 23.1799 17.9841 23.2018 17.8711 23.2216C17.8596 23.2236 17.8481 23.2253 17.8365 23.2274C17.7117 23.2489 17.5866 23.2682 17.4611 23.2852C17.352 23.3002 17.2427 23.3135 17.1332 23.3251L17.1208 23.3266C17.0061 23.3385 16.8909 23.3483 16.7756 23.3565C16.7506 23.3583 16.7255 23.3596 16.7004 23.3613C16.6107 23.3671 16.521 23.3717 16.4311 23.3753C16.2875 23.3812 16.1438 23.3843 16.0001 23.3846C15.8869 23.3846 15.7738 23.3823 15.6609 23.3787C15.6303 23.3777 15.5997 23.3764 15.5692 23.3752C15.4794 23.3716 15.3896 23.367 15.2999 23.3612C15.2748 23.3596 15.2498 23.3582 15.2247 23.3564C15.1095 23.3482 14.9944 23.3382 14.8795 23.3264L14.8671 23.325C14.7344 23.3109 14.602 23.2943 14.4699 23.2753C14.3676 23.2607 14.2655 23.2448 14.1638 23.2272C14.1523 23.2253 14.1407 23.2235 14.1291 23.2214C14.0163 23.2015 13.9037 23.1799 13.7916 23.1564C13.7698 23.1518 13.748 23.1467 13.7261 23.1421C13.6393 23.1234 13.5526 23.1035 13.4663 23.0826C13.4333 23.0746 13.4003 23.0667 13.3675 23.0584C13.2793 23.0363 13.1914 23.0128 13.1038 22.9884C13.0569 22.9753 13.0101 22.9616 12.9635 22.9479C12.8973 22.9285 12.8312 22.9085 12.7654 22.8879C12.7088 22.87 12.6525 22.8516 12.5963 22.8329C12.5593 22.8206 12.5225 22.8078 12.4858 22.7951C8.26802 21.3351 5.23089 17.3234 5.23089 12.6154C5.23089 6.67725 10.062 1.84613 16.0001 1.84613C21.9383 1.84613 26.7694 6.67719 26.7694 12.6154C26.7694 17.3234 23.7322 21.3351 19.5145 22.7952Z" fill="#DC143C"/>
<path d="M21.4767 12.6152L23.2106 9.35649C23.2841 9.21823 23.3213 9.06353 23.3185 8.90695C23.3158 8.75037 23.2733 8.59705 23.195 8.46143C23.1167 8.32581 23.0052 8.21233 22.8709 8.13169C22.7367 8.05104 22.5841 8.00587 22.4276 8.00043L18.7386 7.87262L16.7833 4.74174C16.6146 4.47174 16.3187 4.30762 16.0004 4.30762C15.682 4.30762 15.3861 4.47174 15.2174 4.74174L13.2622 7.87262L9.57318 8.00043C9.41667 8.00587 9.26412 8.05104 9.12987 8.13169C8.99563 8.21233 8.88411 8.32581 8.80581 8.46143C8.7275 8.59705 8.68499 8.75037 8.68227 8.90695C8.67955 9.06353 8.7167 9.21823 8.79024 9.35649L10.5241 12.6152L8.79024 15.874C8.7167 16.0123 8.67955 16.167 8.68227 16.3235C8.68499 16.4801 8.7275 16.6334 8.80581 16.7691C8.88411 16.9047 8.99563 17.0182 9.12987 17.0988C9.26412 17.1794 9.41667 17.2246 9.57318 17.2301L13.2622 17.3579L15.2174 20.4887C15.3004 20.6216 15.4158 20.7311 15.5528 20.807C15.6897 20.883 15.8438 20.9228 16.0004 20.9228C16.157 20.9228 16.311 20.883 16.448 20.807C16.5849 20.7311 16.7003 20.6216 16.7833 20.4887L18.7385 17.3579L22.4276 17.2301C22.5841 17.2246 22.7366 17.1794 22.8709 17.0988C23.0051 17.0182 23.1166 16.9047 23.1949 16.7691C23.2732 16.6334 23.3157 16.4801 23.3185 16.3235C23.3212 16.167 23.284 16.0123 23.2105 15.874L21.4767 12.6152ZM18.1838 15.5298C18.0327 15.535 17.8852 15.5773 17.7542 15.6529C17.6233 15.7286 17.5129 15.8352 17.4329 15.9634L16.0004 18.2572L14.5679 15.9635C14.4878 15.8352 14.3775 15.7286 14.2465 15.653C14.1156 15.5774 13.9681 15.5351 13.817 15.5299L11.1144 15.4362L12.3846 13.0488C12.4556 12.9153 12.4927 12.7664 12.4927 12.6152C12.4927 12.464 12.4556 12.3152 12.3846 12.1817L11.1144 9.7943L13.817 9.70062C13.9681 9.69538 14.1156 9.65309 14.2466 9.57748C14.3775 9.50187 14.4879 9.39525 14.5679 9.26699L16.0004 6.9733L17.4328 9.26705C17.5129 9.3953 17.6233 9.50191 17.7542 9.57752C17.8851 9.65313 18.0326 9.69542 18.1837 9.70068L20.8864 9.79437L19.6162 12.1817C19.5452 12.3152 19.508 12.4641 19.508 12.6153C19.5081 12.7665 19.5452 12.9154 19.6162 13.0489L20.8864 15.4362L18.1838 15.5298Z" fill="#DC143C"/>
</g>
<defs>
<clipPath id="clip0_6593_21285">
<rect width="32" height="32" fill="white"/>
</clipPath>
</defs>
</svg>
