<svg width="32" height="32" viewBox="0 0 32 32" fill="none" xmlns="http://www.w3.org/2000/svg">
<path d="M11.563 13.6673C11.5766 12.6108 11.9958 11.6014 12.7312 10.8543C13.4666 10.1071 14.4601 9.68126 15.5 9.66745C16.5399 9.68126 17.5334 10.1071 18.2688 10.8543C19.0042 11.6014 19.4234 12.6108 19.437 13.6673C19.4234 14.7238 19.0042 15.7332 18.2688 16.4804C17.5334 17.2275 16.5399 17.6533 15.5 17.6672C14.4601 17.6533 13.4666 17.2275 12.7312 16.4804C11.9958 15.7332 11.5766 14.7238 11.563 13.6673ZM15.5 25.6669L20.7493 27.0001V22.8936C19.1662 23.8622 17.3478 24.361 15.5 24.3336C13.6522 24.361 11.8338 23.8622 10.2507 22.8936V27.0001M15.5 5.66759C14.4658 5.64842 13.4388 5.84434 12.4819 6.24329C11.525 6.64225 10.6585 7.23582 9.93575 7.98751C9.18788 8.72264 8.59688 9.60625 8.19954 10.5834C7.80219 11.5605 7.60698 12.6102 7.62607 13.6673C7.61239 14.7177 7.81022 15.7598 8.20741 16.7296C8.6046 17.6995 9.19276 18.5766 9.93575 19.3071C10.6552 20.066 11.5201 20.667 12.4772 21.0729C13.4342 21.4788 14.463 21.681 15.5 21.667C16.537 21.681 17.5658 21.4788 18.5228 21.0729C19.4799 20.667 20.3448 20.066 21.0642 19.3071C21.8072 18.5766 22.3954 17.6995 22.7926 16.7296C23.1898 15.7598 23.3876 14.7177 23.3739 13.6673C23.393 12.6102 23.1978 11.5605 22.8005 10.5834C22.4031 9.60625 21.8121 8.72264 21.0642 7.98751C20.3415 7.23582 19.475 6.64225 18.5181 6.24329C17.5612 5.84434 16.5342 5.64842 15.5 5.66759ZM25.9986 13.6673C25.9706 14.9471 25.7173 16.2115 25.2506 17.4005C24.8301 18.6104 24.1939 19.7312 23.3739 20.707V31L15.5 28.3334L7.62607 31V20.707C5.92751 18.7691 4.99289 16.2622 5.00142 13.6673C4.97829 12.2681 5.23769 10.879 5.76359 9.58565C6.2895 8.2923 7.07076 7.1222 8.05913 6.14758C9.02199 5.13441 10.179 4.33249 11.4588 3.7913C12.7386 3.25012 14.1139 2.98116 15.5 3.00103C16.8861 2.98116 18.2614 3.25012 19.5412 3.7913C20.821 4.33249 21.978 5.13441 22.9409 6.14758C23.9292 7.1222 24.7105 8.2923 25.2364 9.58565C25.7623 10.879 26.0217 12.2681 25.9986 13.6673Z" fill="#DC143C"/>
</svg>
