<svg width="33" height="32" viewBox="0 0 33 32" fill="none" xmlns="http://www.w3.org/2000/svg">
<path d="M14.6566 20.9933L10.2371 16.5738L11.7103 15.1007L14.6566 18.047L20.5491 12.1544L22.0223 13.6276L14.6566 20.9933Z" fill="#DC143C"/>
<path fill-rule="evenodd" clip-rule="evenodd" d="M5.02881 9.20817C5.02881 6.90698 6.89429 5.0415 9.19548 5.0415H23.7788C26.08 5.0415 27.9455 6.90698 27.9455 9.20817V23.7915C27.9455 26.0927 26.08 27.9582 23.7788 27.9582H9.19548C6.89429 27.9582 5.02881 26.0927 5.02881 23.7915V9.20817ZM9.19548 7.12484H23.7788C24.9294 7.12484 25.8621 8.05758 25.8621 9.20817V23.7915C25.8621 24.9421 24.9294 25.8748 23.7788 25.8748H9.19548C8.04488 25.8748 7.11214 24.9421 7.11214 23.7915V9.20817C7.11214 8.05758 8.04488 7.12484 9.19548 7.12484Z" fill="#DC143C"/>
</svg>
