<svg width="20" height="20" viewBox="0 0 20 20" fill="none" xmlns="http://www.w3.org/2000/svg">
<path fill-rule="evenodd" clip-rule="evenodd" d="M12.2969 11.2969C14.0795 9.51426 14.0795 6.62404 12.2969 4.84133C10.5143 3.05871 7.62395 3.05871 5.84133 4.84133C4.05871 6.62395 4.05871 9.51426 5.84133 11.2969C7.62395 13.0796 10.5143 13.0796 12.2969 11.2969ZM13.3606 12.3606C15.7307 9.99054 15.7307 6.14775 13.3606 3.77761C10.9905 1.40746 7.14775 1.40746 4.77761 3.77761C2.40746 6.14775 2.40746 9.99054 4.77761 12.3606C7.14775 14.7307 10.9905 14.7307 13.3606 12.3606Z" fill="#979596"/>
<path fill-rule="evenodd" clip-rule="evenodd" d="M16.9362 17.0694L12.0381 12.1712L13.1018 11.1075L18 16.0057L16.9362 17.0694Z" fill="#979596"/>
</svg>
