<svg width="24" height="24" viewBox="0 0 24 24" fill="none" xmlns="http://www.w3.org/2000/svg">
<path d="M19.9132 6.65574C19.6008 5.48852 18.983 4.5645 18.0766 3.91089C16.9326 3.08527 15.6168 2.79247 14.4805 2.61486C12.9081 2.36926 11.4839 2.33486 10.1276 2.50846C8.85536 2.67167 7.89773 2.93247 7.02334 3.35328C5.31044 4.17729 4.28256 5.51172 3.96869 7.31815C3.81596 8.19497 3.71363 8.98779 3.65406 9.7438C3.5166 11.4918 3.64108 13.0391 4.03513 14.4727C4.41849 15.8703 5.08898 16.8695 6.0848 17.5255C6.3391 17.6927 6.66289 17.8136 6.97752 17.9304C7.13483 17.9888 7.28604 18.0464 7.41815 18.1072V20.9312C7.41815 21.3008 7.70376 21.6 8.05657 21.6C8.22305 21.6 8.38266 21.532 8.50179 21.4104L10.989 18.876C11.0975 18.7464 11.0975 18.7464 11.209 18.744C12.0589 18.7264 12.9272 18.692 13.7901 18.6432C14.8356 18.5832 16.0468 18.4776 17.1877 17.9792C18.2316 17.5223 18.9937 16.7975 19.4512 15.8255C19.9285 14.8111 20.2125 13.7119 20.3187 12.4663C20.505 10.2758 20.3721 8.37497 19.9132 6.65574ZM15.5825 14.9919C15.3327 15.4199 14.9585 15.7159 14.5187 15.9079C14.1972 16.0487 13.8688 16.0191 13.5519 15.8783C10.8913 14.6991 8.80572 12.8399 7.42655 10.1686C7.14247 9.6182 6.94468 9.01899 6.71787 8.43738C6.67129 8.31737 6.67511 8.17737 6.65449 8.04697C6.67434 7.10695 7.3624 6.57814 8.05734 6.41814C8.32309 6.35654 8.5583 6.45494 8.75532 6.65254C9.30058 7.19815 9.73205 7.83016 10.0566 8.53898C10.1986 8.85018 10.1345 9.12539 9.89242 9.35659C9.84278 9.40459 9.79009 9.44939 9.73587 9.49179C9.18374 9.927 9.10279 10.2558 9.3968 10.911C9.89776 12.0254 10.7294 12.7735 11.8054 13.2375C12.0887 13.3599 12.356 13.2991 12.5729 13.0583C12.6019 13.0263 12.6347 12.9951 12.6561 12.9583C13.0807 12.2166 13.6955 12.2902 14.2636 12.7135C14.637 12.9911 14.999 13.2839 15.3686 13.5671C15.9292 13.9999 15.9246 14.4063 15.5825 14.9919ZM12.3904 7.31415C12.2475 7.31415 12.104 7.32615 11.9635 7.35095C11.7252 7.39336 11.5007 7.22455 11.461 6.97495C11.4213 6.72614 11.5816 6.49014 11.8199 6.44854C12.007 6.41654 12.1994 6.39974 12.3904 6.39974C14.2804 6.39974 15.8184 8.01097 15.8184 9.991C15.8184 10.1918 15.8024 10.3934 15.7711 10.5894C15.7352 10.8126 15.5504 10.971 15.3411 10.971C15.3175 10.971 15.293 10.9694 15.2686 10.9646C15.0311 10.9222 14.8707 10.687 14.9104 10.4382C14.9341 10.2926 14.9456 10.1422 14.9456 9.9918C14.9456 8.51498 13.7993 7.31415 12.3904 7.31415ZM14.2911 10.2854C14.2911 10.5374 14.0956 10.7422 13.8551 10.7422C13.6145 10.7422 13.419 10.5374 13.419 10.2854C13.419 9.5294 12.8317 8.91418 12.1101 8.91418C11.8695 8.91418 11.674 8.70938 11.674 8.45738C11.674 8.20537 11.8695 8.00057 12.1101 8.00057C13.3121 7.99977 14.2911 9.02539 14.2911 10.2854ZM17.2282 10.843C17.1823 11.0558 17.0029 11.199 16.8028 11.199C16.7707 11.199 16.7379 11.195 16.7058 11.1878C16.4706 11.1318 16.3232 10.887 16.3767 10.6414C16.4401 10.3494 16.4721 10.0478 16.4721 9.7454C16.4721 7.52296 14.7463 5.71412 12.624 5.71412C12.3346 5.71412 12.0475 5.74772 11.7687 5.81413C11.5351 5.87093 11.2998 5.71572 11.2472 5.46932C11.1937 5.22291 11.3411 4.97811 11.5763 4.92291C11.9184 4.84051 12.2712 4.79971 12.6256 4.79971C15.2281 4.79971 17.3458 7.01815 17.3458 9.7446C17.3458 10.1158 17.306 10.4854 17.2282 10.843Z" fill="white"/>
</svg>
