<svg width="24" height="24" viewBox="0 0 24 24" fill="none" xmlns="http://www.w3.org/2000/svg">
<path d="M18.9673 5.03627C17.0913 3.16062 14.5323 2.21424 11.8454 2.43035C8.23303 2.72029 5.06672 5.23076 4.00708 8.69392C3.2502 11.1684 3.56827 13.7518 4.80091 15.8859L3.63315 19.7605C3.52142 20.1324 3.86111 20.4827 4.23685 20.3827L8.2952 19.2959C9.60984 20.0127 11.0894 20.3899 12.5959 20.3908H12.5995C16.3795 20.3908 19.872 18.0803 21.0803 14.501C22.257 11.0108 21.3866 7.45669 18.9673 5.03627ZM17.0039 14.6045C16.8165 15.1295 15.8983 15.6355 15.4856 15.6725C15.0729 15.7103 14.6864 15.8589 12.787 15.1106C10.501 14.2101 9.0575 11.868 8.94577 11.7186C8.83313 11.5682 8.02759 10.5002 8.02759 9.39447C8.02759 8.28871 8.60877 7.74484 8.81511 7.52063C9.02145 7.29551 9.26474 7.23968 9.41521 7.23968C9.56479 7.23968 9.71527 7.23968 9.84592 7.24509C10.0063 7.25139 10.1838 7.25949 10.3523 7.63318C10.5523 8.07801 10.9894 9.18917 11.0452 9.30173C11.1011 9.41428 11.1389 9.54575 11.0641 9.69523C10.9894 9.8447 10.9515 9.93835 10.8398 10.0698C10.7271 10.2013 10.6037 10.3625 10.5028 10.4633C10.3902 10.575 10.273 10.6974 10.4037 10.9216C10.5352 11.1468 10.9858 11.8824 11.6543 12.4776C12.5139 13.243 13.2375 13.4798 13.4628 13.5933C13.688 13.7059 13.8187 13.687 13.9502 13.5366C14.0818 13.3871 14.5125 12.881 14.6621 12.6559C14.8116 12.4308 14.9621 12.4686 15.1684 12.5434C15.3748 12.6181 16.4804 13.162 16.7047 13.2745C16.93 13.3871 17.0796 13.4429 17.1355 13.5366C17.1913 13.6293 17.1913 14.0795 17.0039 14.6045Z" fill="white" />
</svg>
