<svg width="32" height="32" viewBox="0 0 32 32" fill="none" xmlns="http://www.w3.org/2000/svg">
<g clip-path="url(#clip0_4185_11728)">
<path d="M25.8242 1.2002H6.17763L0 9.62419L16.0664 30.7995L32.0001 9.62176L25.8242 1.2002ZM8.78321 10.5497L13.3097 24.0728L3.0493 10.5497H8.78321ZM10.7551 10.5497H21.2522L16.0397 26.3376L10.7551 10.5497ZM23.2215 10.5497H28.9619L18.7327 24.1455L23.2215 10.5497ZM24.8765 3.07009L28.9903 8.67977H23.2227L21.3821 3.07009H24.8765ZM19.4141 3.07009L21.2547 8.67977H10.747L12.5877 3.07009H19.4141ZM7.12517 3.07009H10.6196L8.77897 8.67977H3.0114L7.12517 3.07009Z" fill="#DC143C"/>
</g>
<defs>
<clipPath id="clip0_4185_11728">
<rect width="32" height="32" fill="white"/>
</clipPath>
</defs>
</svg>
