<svg width="32" height="32" viewBox="0 0 32 32" fill="none" xmlns="http://www.w3.org/2000/svg">
<path d="M26.854 24.0782C28.5917 22.2954 27.6817 19.1998 25.2849 18.6118V15.2059H17.0312V13.5552H21.1581V11.9044C21.1581 10.0417 20.1242 8.4162 18.6003 7.57086C20.5825 5.51085 19.0943 1.99171 16.2058 2.00001C13.3175 1.99165 11.8291 5.5114 13.8114 7.57086C12.2876 8.4162 11.2537 10.0417 11.2537 11.9044V13.5552H15.3805V15.2059H7.12684V18.6118C4.72903 19.2003 3.82075 22.2961 5.55776 24.0782C4.03391 24.9235 3 26.5491 3 28.4118V30.0625H12.9044V28.4118C12.9044 26.5491 11.8705 24.9236 10.3466 24.0782C12.0843 22.2954 11.1743 19.1998 8.77757 18.6118V16.8566H23.6342V18.6118C21.2364 19.2003 20.3281 22.2961 22.0651 24.0782C20.5412 24.9235 19.5073 26.5491 19.5073 28.4118V30.0625H29.4118V28.4118C29.4118 26.5491 28.3778 24.9235 26.854 24.0782ZM14.5551 5.30148C14.5551 4.39127 15.2957 3.65075 16.2059 3.65075C18.3928 3.73373 18.3922 6.86957 16.2059 6.95222C15.2957 6.95222 14.5551 6.2117 14.5551 5.30148ZM16.2059 8.60295C18.0263 8.60295 19.5073 10.084 19.5073 11.9044H12.9044C12.9044 10.084 14.3854 8.60295 16.2059 8.60295ZM4.65073 28.4118C4.81724 24.0368 11.0887 24.0402 11.2537 28.4118H4.65073ZM9.60294 21.8088C9.60294 22.719 8.86242 23.4596 7.9522 23.4596C5.76531 23.3766 5.76586 20.2407 7.9522 20.1581C8.86242 20.1581 9.60294 20.8986 9.60294 21.8088ZM22.8088 21.8088C22.8088 20.8986 23.5493 20.1581 24.4595 20.1581C26.6464 20.2411 26.6459 23.3769 24.4595 23.4596C23.5493 23.4596 22.8088 22.719 22.8088 21.8088ZM21.1581 28.4118C21.3246 24.0368 27.5961 24.0402 27.761 28.4118H21.1581Z" fill="#DC143C"/>
</svg>
