<svg width="32" height="32" viewBox="0 0 32 32" fill="none" xmlns="http://www.w3.org/2000/svg">
<g clip-path="url(#clip0_4181_11578)">
<path d="M7.5293 5.64746H15.0587V7.52981H7.5293V5.64746ZM7.5293 9.41217H15.9999V11.2945H7.5293V9.41217ZM7.5293 13.1769H15.0587V15.0592H7.5293V13.1769ZM7.5293 16.9416H15.0587V18.8239H7.5293V16.9416ZM7.5293 20.7063H15.0587V22.5886H7.5293V20.7063Z" fill="#DC143C"/>
<path d="M32 16.9412C32 13.1081 29.1209 9.93506 25.4118 9.4705V6.1984L19.2134 0H3.76471V1.88235H0V32H23.5294V28.2353H25.4118V24.4119C29.1209 23.9473 32 20.7742 32 16.9412ZM19.7647 3.21337L22.1984 5.64706H19.7647V3.21337ZM21.6471 30.1176H1.88235V3.76471H3.76471V28.2353H21.6471V30.1176ZM5.64706 26.3529V1.88235H17.8824V7.52941H23.5294V9.4705C19.8203 9.93506 16.9412 13.1081 16.9412 16.9412C16.9412 20.7742 19.8203 23.9473 23.5294 24.4119V26.3529H5.64706ZM24.4706 22.5882C21.3568 22.5882 18.8235 20.055 18.8235 16.9412C18.8235 13.8274 21.3568 11.2941 24.4706 11.2941C27.5844 11.2941 30.1176 13.8274 30.1176 16.9412C30.1176 20.055 27.5844 22.5882 24.4706 22.5882Z" fill="#DC143C"/>
<path d="M23.5293 17.4927L22.3124 16.2759L20.9814 17.6069L23.5293 20.1547L27.9595 15.7245L26.6285 14.3936L23.5293 17.4927Z" fill="#DC143C"/>
</g>
<defs>
<clipPath id="clip0_4181_11578">
<rect width="32" height="32" fill="white"/>
</clipPath>
</defs>
</svg>
