<svg width="208" height="64" viewBox="0 0 208 64" fill="none" xmlns="http://www.w3.org/2000/svg">
<path d="M67.2866 18.5566H78.0591V21.0186H70.196V24.4244H74.0875C75.1629 24.4244 76.0542 24.5578 76.7615 24.8246C77.4688 25.0914 78.0734 25.5853 78.5752 26.3062C79.0837 27.0456 79.3489 27.9301 79.3328 28.8326C79.3328 29.8268 79.0807 30.6782 78.5764 31.387C78.0722 32.0957 77.4971 32.5794 76.8511 32.8381C76.2059 33.0968 75.2867 33.2265 74.0935 33.2274H67.2866V18.5566ZM70.196 30.7642H73.0265C73.9314 30.7642 74.5686 30.7192 74.9382 30.6292C75.313 30.5327 75.6479 30.3171 75.8941 30.0137C76.1687 29.6848 76.3138 29.264 76.3015 28.8326C76.3015 28.1522 76.0625 27.6572 75.5846 27.3474C75.1067 27.0376 74.2958 26.8823 73.152 26.8815H70.196V30.7642Z" fill="black"/>
<path d="M83.7391 25.8419L81.23 25.3809C81.512 24.3542 81.9967 23.594 82.6841 23.1001C83.3715 22.6063 84.3939 22.3594 85.7512 22.3594C86.9834 22.3594 87.8994 22.5078 88.4992 22.8046C89.099 23.1014 89.5232 23.478 89.7717 23.9346C90.0179 24.3919 90.1409 25.2308 90.1409 26.4513L90.1111 29.7355C90.1111 30.6697 90.1553 31.3589 90.2437 31.8033C90.3497 32.2979 90.5167 32.7769 90.7407 33.2289H88.0153C87.9425 33.0428 87.854 32.7655 87.7501 32.3993C87.7035 32.2327 87.6712 32.122 87.6509 32.0685C87.2161 32.5093 86.7049 32.8644 86.1431 33.1158C85.599 33.3506 85.0135 33.4699 84.4225 33.4661C83.348 33.4661 82.5013 33.1693 81.8824 32.5757C81.5788 32.2895 81.3389 31.9405 81.1786 31.5522C81.0183 31.1639 80.9413 30.7452 80.9528 30.3242C80.9422 29.7597 81.087 29.2035 81.371 28.7186C81.6534 28.2484 82.0651 27.8729 82.555 27.6384C83.0632 27.3879 83.7956 27.1693 84.7523 26.9828C86.0427 26.7395 86.9368 26.5097 87.4347 26.2931V26.0109C87.4347 25.4709 87.3036 25.0857 87.0416 24.8554C86.7795 24.6251 86.2849 24.5099 85.5576 24.5099C85.0661 24.5099 84.683 24.6085 84.4082 24.8055C84.1334 25.0026 83.9104 25.348 83.7391 25.8419ZM87.4347 28.1226C86.8822 28.2949 86.3215 28.4386 85.7547 28.5532C84.9877 28.7202 84.4863 28.8824 84.2505 29.0397C84.0857 29.145 83.9498 29.291 83.8554 29.4641C83.761 29.6372 83.7111 29.8318 83.7104 30.0298C83.7087 30.2212 83.7462 30.4109 83.8207 30.5867C83.8952 30.7624 84.005 30.9204 84.1429 31.0504C84.2886 31.1937 84.461 31.3057 84.6501 31.3797C84.8392 31.4537 85.0409 31.4881 85.2434 31.481C85.759 31.4753 86.2591 31.2999 86.6688 30.9811C86.9835 30.7537 87.215 30.4264 87.3271 30.0505C87.3988 29.8072 87.4347 29.3503 87.4347 28.6797V28.1226Z" fill="black"/>
<path d="M91.563 22.5986H94.507L97.003 30.1402L99.4404 22.5986H102.301L98.6148 32.8247L97.9517 34.6785C97.7704 35.1755 97.5381 35.6517 97.2587 36.0992C97.0565 36.4092 96.8001 36.6789 96.5024 36.8947C96.1818 37.1144 95.8259 37.2753 95.4509 37.3703C94.9898 37.4891 94.5155 37.5464 94.0398 37.5406C93.5144 37.5409 92.9905 37.4838 92.477 37.3703L92.2369 35.165C92.6218 35.2464 93.0135 35.29 93.4066 35.2952C94.0486 35.2952 94.5233 35.1034 94.8308 34.7198C95.1632 34.2881 95.4044 33.7912 95.5393 33.2602L91.563 22.5986Z" fill="black"/>
<path d="M117.078 33.2249H113.913L112.655 29.8933H106.896L105.701 33.2249H102.621L108.236 18.5566H111.313L117.078 33.2249ZM111.722 27.4216L109.736 21.9783L107.791 27.4216H111.722Z" fill="black"/>
<path d="M118.523 22.5993H121.099V24.1611C121.439 23.6206 121.905 23.1736 122.455 22.8596C123.033 22.5242 123.688 22.3516 124.352 22.3596C125.564 22.3596 126.592 22.8434 127.438 23.8108C128.283 24.7782 128.706 26.1255 128.706 27.8528C128.706 29.6271 128.28 31.0056 127.428 31.9885C126.576 32.9713 125.544 33.4627 124.332 33.4627C123.79 33.4706 123.254 33.3507 122.765 33.1124C122.296 32.8789 121.803 32.4787 121.285 31.9118V37.2639H118.523V22.5993ZM121.256 27.7324C121.256 28.9269 121.488 29.8091 121.953 30.3792C122.418 30.9493 122.985 31.2331 123.654 31.2307C123.962 31.2349 124.267 31.1662 124.545 31.0301C124.823 30.894 125.066 30.6941 125.256 30.4461C125.682 29.9214 125.895 29.0623 125.895 27.8686C125.895 26.7552 125.676 25.9281 125.237 25.3872C125.044 25.1341 124.796 24.9299 124.513 24.7904C124.23 24.6509 123.919 24.58 123.605 24.5832C123.284 24.5775 122.966 24.6461 122.675 24.7839C122.384 24.9217 122.127 25.1251 121.925 25.3787C121.479 25.9074 121.256 26.692 121.256 27.7324Z" fill="black"/>
<path d="M136.942 29.8435L139.69 30.3142C139.336 31.3409 138.779 32.123 138.017 32.6606C137.256 33.1983 136.3 33.4667 135.15 33.4659C133.334 33.4659 131.991 32.8621 131.12 31.6547C130.431 30.6881 130.088 29.4672 130.088 27.9922C130.088 26.2309 130.54 24.8523 131.445 23.8565C132.349 22.8607 133.492 22.362 134.875 22.3604C136.427 22.3604 137.652 22.8822 138.55 23.9258C139.448 24.9695 139.878 26.567 139.842 28.7183H132.923C132.942 29.5512 133.164 30.1999 133.59 30.6646C133.792 30.8895 134.038 31.068 134.313 31.1878C134.587 31.3076 134.884 31.366 135.183 31.3591C135.577 31.3709 135.963 31.2418 136.274 30.9942C136.568 30.7606 136.791 30.3771 136.942 29.8435ZM137.1 27.002C137.079 26.1911 136.872 25.5724 136.479 25.1459C136.291 24.942 136.062 24.7802 135.809 24.6707C135.556 24.5612 135.283 24.5064 135.008 24.5097C134.732 24.513 134.461 24.5744 134.21 24.69C133.959 24.8055 133.735 24.9728 133.551 25.1811C133.158 25.6279 132.965 26.2361 132.971 27.0057L137.1 27.002Z" fill="black"/>
<path d="M141.984 22.5986H144.747V26.491H148.697V22.5986H151.469V33.2249H148.697V28.7632H144.747V33.2249H141.984V22.5986Z" fill="black"/>
<path d="M162.88 33.2249H154.978V36.0225H152.736V30.9137H153.867C154.339 30.381 154.729 29.5473 155.036 28.4129C155.344 27.2784 155.527 25.3371 155.587 22.5889H164.011V30.9137H165.13V36.0225H162.88V33.2249ZM161.278 30.9235L161.288 24.9109H157.942C157.831 27.8456 157.372 29.8498 156.566 30.9235H161.278Z" fill="black"/>
<path d="M169.091 25.8419L166.582 25.3809C166.864 24.3542 167.349 23.594 168.036 23.1001C168.723 22.6063 169.746 22.3594 171.103 22.3594C172.335 22.3594 173.251 22.5078 173.851 22.8046C174.451 23.1014 174.875 23.478 175.124 23.9346C175.37 24.3919 175.493 25.2308 175.493 26.4513L175.463 29.7355C175.463 30.6697 175.507 31.3589 175.596 31.8033C175.702 32.2979 175.869 32.7769 176.093 33.2289H173.365C173.292 33.0428 173.204 32.7655 173.1 32.3993C173.053 32.2327 173.021 32.122 173 32.0685C172.564 32.5111 172.052 32.8675 171.488 33.1194C170.944 33.3543 170.358 33.4735 169.767 33.4698C168.694 33.4698 167.847 33.173 167.227 32.5794C166.924 32.2931 166.684 31.9442 166.523 31.5559C166.363 31.1676 166.286 30.7489 166.298 30.3279C166.288 29.7625 166.435 29.2058 166.72 28.721C167.003 28.2509 167.415 27.8753 167.905 27.6409C168.413 27.3903 169.145 27.1718 170.102 26.9853C171.392 26.742 172.286 26.5121 172.784 26.2956V26.0109C172.784 25.4709 172.653 25.0857 172.391 24.8554C172.129 24.6251 171.634 24.5099 170.907 24.5099C170.416 24.5099 170.033 24.6085 169.758 24.8055C169.483 25.0026 169.261 25.348 169.091 25.8419ZM172.787 28.1226C172.234 28.2949 171.673 28.4386 171.107 28.5532C170.34 28.7202 169.838 28.8824 169.602 29.0397C169.438 29.145 169.302 29.291 169.207 29.4641C169.113 29.6372 169.063 29.8318 169.062 30.0298C169.061 30.2212 169.098 30.4109 169.173 30.5867C169.247 30.7624 169.357 30.9204 169.495 31.0504C169.64 31.1937 169.813 31.3057 170.002 31.3797C170.191 31.4537 170.393 31.4881 170.595 31.481C171.111 31.4753 171.611 31.2999 172.021 30.9811C172.336 30.7541 172.567 30.4266 172.679 30.0505C172.751 29.8072 172.787 29.3503 172.787 28.6797V28.1226Z" fill="black"/>
<path d="M55.9771 22.2197C56.7633 24.4663 56.694 26.3359 56.6438 27.8649C56.5566 30.133 56.0933 32.3699 55.2733 34.4807C54.0212 37.7832 51.9338 40.8655 51.469 40.6478C50.9565 40.4045 53.2338 36.5571 53.4249 30.3292C53.5444 26.4441 52.7929 23.8107 52.2086 22.2927C51.6841 20.8975 51.0281 19.197 49.4629 17.6193C47.8523 15.993 46.3265 15.543 46.4341 15.2523C46.5882 14.8399 49.7246 15.009 52.2648 16.8421C54.7129 18.59 55.5947 21.1274 55.9771 22.2197Z" fill="#FDB400"/>
<path d="M33.4761 42.2617C32.3768 39.9798 32.2717 37.963 32.1761 36.2601C32.0831 34.3845 32.2476 32.505 32.6648 30.6757C33.0713 28.8732 33.7257 27.1381 34.6087 25.5219C35.7653 23.4212 37.3628 21.4677 37.6256 21.6295C37.8156 21.7511 37.2194 22.8459 36.6112 24.6157C35.7411 27.2139 35.2511 29.9284 35.1572 32.6718C35.0974 34.9659 35.0496 36.8075 35.874 39.0809C37.0426 42.286 39.2004 44.3113 39.9364 44.945C41.7967 46.5591 43.1553 46.8742 43.0429 47.2561C42.8649 47.8753 39.0128 48.0322 36.2229 45.9181C34.6804 44.7382 33.9528 43.2567 33.4761 42.2617Z" fill="#FDB400"/>
<path d="M28.8367 32.4037C28.9921 30.9964 29.4341 27.2694 32.1285 23.5911C34.2863 20.6292 36.7882 19.2121 38.1384 18.4567C39.0679 17.9337 40.1409 17.4484 40.2365 17.6187C40.3798 17.8498 38.412 19.0783 36.4812 21.3821C35.6089 22.448 34.8418 23.5985 34.1907 24.8172C34.1907 24.8172 33.7737 25.5701 33.4284 26.323C32.5693 28.1914 31.6756 31.1423 31.4725 33.8974C31.0077 40.0036 33.9171 44.2366 33.2372 44.5918C32.7008 44.8716 30.4892 42.2977 29.4138 39.2142C28.4341 36.4104 28.6731 33.9947 28.8367 32.4037Z" fill="#FDB400"/>
<path d="M59.9903 26.1065C60.7908 31.9815 57.6962 36.6038 56.6687 38.1242C53.4427 42.9289 48.8904 45.2765 48.6993 45.0454C48.532 44.8508 51.4473 42.8681 54.1118 38.6473C54.9959 37.2485 56.9196 34.1954 57.5648 30.3151C58.7118 23.321 54.9481 17.8959 55.5455 17.6162C55.6411 17.5675 55.8801 17.5675 56.6687 18.4798C59.4526 21.6545 59.9186 25.5104 59.9903 26.1065Z" fill="#FDB400"/>
<path d="M59.1061 41.2384C53.7294 49.0718 42.6176 49.3516 42.4504 48.8407C42.295 48.3907 50.7424 47.5027 56.2505 40.4599C61.2448 34.0739 60.7669 26.5689 61.3643 26.654C61.9856 26.7513 63.4193 34.9497 59.1061 41.2384Z" fill="#FDB400"/>
<path d="M29.9466 21.3215C32.4617 17.631 35.849 16.113 37.1836 15.5425C41.9891 13.4552 46.7146 14.0135 46.7349 14.2434C46.7469 14.3882 44.7324 14.4247 42.0847 15.2749C41.8457 15.3479 36.708 17.0472 33.2252 20.7377C27.49 26.8086 28.4913 35.9132 27.6322 35.8402C27.0838 35.7915 26.7385 32.0159 27.2511 28.6417C27.4781 27.0871 27.956 24.2591 29.9466 21.3215Z" fill="#FDB400"/>
<path d="M52.2204 30.4624C51.6959 30.584 51.5644 24.1616 46.9978 21.2483C43.7181 19.1598 39.9867 20.0587 39.9269 19.3021C39.8791 18.6708 42.4181 17.542 44.9344 17.907C47.1639 18.2342 48.6192 19.6184 49.1915 20.1889C53.0472 24.0156 52.733 30.3286 52.2204 30.4624Z" fill="#FDB400"/>
<path d="M36.6115 32.465C36.6832 32.4529 36.719 33.0477 37.148 34.3224C37.4586 35.2578 39.5687 41.5088 43.7195 42.7714C44.8413 43.1251 46.01 43.3011 47.1844 43.2932C48.0208 43.2567 48.58 43.0998 48.6517 43.2689C48.7592 43.5486 47.3756 44.6288 45.98 44.9815C43.6071 45.5642 40.9618 44.0826 39.399 42.3834C36.0033 38.6929 36.3976 32.5015 36.6115 32.465Z" fill="#FDB400"/>
<path d="M48.8463 24.3561C48.6431 24.6225 46.6633 22.4987 43.0263 21.9647C40.6654 21.6242 39.0559 22.1581 38.9842 21.8674C38.9006 21.5159 41.0955 20.1645 43.4684 20.398C46.8067 20.7265 49.0721 24.052 48.8463 24.3561Z" fill="#FDB400"/>
<path d="M40.117 38.4367C40.2006 38.3406 40.6188 38.6678 41.5842 39.1531C41.5842 39.1531 43.2569 39.9912 44.8867 40.3695C47.5822 40.9887 49.5022 39.9937 49.6659 40.4547C49.7854 40.7831 48.8917 41.4983 48.0684 41.8876C45.8748 42.9191 43.5963 41.8389 43.1697 41.6321C41.1433 40.5982 39.9389 38.6435 40.117 38.4367Z" fill="#FDB400"/>
<path d="M43.766 23.3966C43.8018 23.725 41.2855 23.5912 39.1636 25.5946C37.7441 26.9326 37.4108 28.3618 37.124 28.2524C36.7656 28.1198 36.7309 25.6432 38.1384 24.1617C40.0573 22.1705 43.7182 23.0086 43.766 23.3966Z" fill="#FDB400"/>
<path d="M44.9581 39.0198C44.9461 38.7534 47.1087 38.9954 49.1674 37.3935C50.7051 36.2039 51.1472 34.7831 51.4208 34.9048C51.7434 35.0507 51.6 37.2353 50.2523 38.4979C48.3442 40.2824 44.982 39.3604 44.9581 39.0198Z" fill="#FDB400"/>
<path d="M68.6919 42.8002L68.0861 44.6673H67.3071L69.2965 38.7314H70.1962L72.1867 44.6673H71.3814L70.7589 42.8002H68.6919ZM70.6108 42.2018L70.0301 40.4988C69.9011 40.1108 69.8138 39.7593 69.7278 39.415H69.7099C69.6239 39.7593 69.5378 40.1291 69.416 40.4903L68.8449 42.2078L70.6108 42.2018Z" fill="#898989"/>
<path d="M73.0173 41.797C73.0173 41.2508 73.0006 40.8105 72.9839 40.4042H73.6578L73.702 41.1341H73.7175C74.021 40.6147 74.5228 40.3154 75.2062 40.3154C76.2266 40.3154 76.9877 41.1876 76.9877 42.4733C76.9877 44.0059 76.0629 44.7637 75.076 44.7637C74.5228 44.7637 74.0377 44.5204 73.7868 44.0947H73.7689V46.4058H73.0161L73.0173 41.797ZM73.7701 42.9331C73.7683 43.04 73.7799 43.1467 73.8047 43.2505C73.8685 43.5097 74.0155 43.7397 74.2225 43.9039C74.4295 44.0681 74.6845 44.1571 74.947 44.1567C75.7523 44.1567 76.2195 43.4877 76.2195 42.5098C76.2195 41.6644 75.7786 40.9285 74.9733 40.9285C74.7043 40.932 74.4444 41.0279 74.2356 41.2005C74.0268 41.3731 73.8813 41.6124 73.8226 41.8797C73.7924 41.98 73.7748 42.0838 73.7701 42.1886V42.9331Z" fill="#898989"/>
<path d="M78.3653 42.6774C78.382 43.7259 79.0308 44.1565 79.7991 44.1565C80.1966 44.1705 80.5923 44.0954 80.958 43.9363L81.0966 44.4922C80.6534 44.6822 80.1759 44.775 79.6951 44.7647C78.4059 44.7647 77.6353 43.8926 77.6353 42.6068C77.6353 41.3211 78.3796 40.3164 79.5995 40.3164C80.976 40.3164 81.3296 41.5328 81.3296 42.3161C81.3324 42.4383 81.324 42.5605 81.3045 42.681L78.3653 42.6774ZM80.5972 42.1227C80.6056 41.6362 80.3977 40.8711 79.541 40.8711C78.7632 40.8711 78.4334 41.5851 78.3737 42.1227H80.5972Z" fill="#898989"/>
<path d="M83.0106 40.4043V42.123H84.9916V40.4043H85.7539V44.6677H84.9916V42.7397H83.0106V44.6677H82.2495V40.4043H83.0106Z" fill="#898989"/>
<path d="M90.2443 40.4048V44.088L90.6769 44.0965L90.6339 46.0159H90.0365L90.0018 44.6682H87.0996L87.0566 46.0159H86.4687L86.4341 44.105L86.7925 44.088C86.9722 43.8195 87.1123 43.5257 87.2083 43.2158C87.3733 42.664 87.4539 42.0897 87.4473 41.5129V40.4023L90.2443 40.4048ZM88.1152 41.6917C88.1227 42.2309 88.0498 42.7682 87.8989 43.2852C87.8181 43.5609 87.708 43.8269 87.5704 44.0782H89.5V40.9959H88.1152V41.6917Z" fill="#898989"/>
<path d="M94.5264 43.6469C94.5228 43.9885 94.5432 44.33 94.5874 44.6687H93.9099L93.849 44.1322H93.8239C93.675 44.3336 93.4812 44.4961 93.2585 44.6063C93.0358 44.7164 92.7906 44.7712 92.543 44.766C91.6947 44.766 91.2622 44.1578 91.2622 43.5423C91.2622 42.5108 92.1619 41.9476 93.7797 41.961V41.8734C93.7797 41.5292 93.6853 40.8869 92.8238 40.9003C92.4352 40.8961 92.0536 41.0059 91.7246 41.2166L91.5514 40.6972C91.9726 40.4517 92.4508 40.3256 92.9361 40.3323C94.217 40.3323 94.5276 41.2215 94.5276 42.068L94.5264 43.6469ZM93.7904 42.4938C92.9541 42.4755 92.0161 42.6251 92.0161 43.4535C92.0161 43.9644 92.3447 44.1931 92.7259 44.1931C92.9495 44.2005 93.1697 44.1355 93.3548 44.0074C93.5399 43.8793 93.6803 43.6947 93.7558 43.4803C93.7786 43.4013 93.7903 43.3193 93.7904 43.237V42.4938Z" fill="#898989"/>
<path d="M100.574 44.5179C100.194 44.6842 99.7845 44.7671 99.3711 44.7612C98.1082 44.7612 97.2861 43.889 97.2861 42.5851C97.2861 41.2811 98.1691 40.3129 99.536 40.3129C99.9002 40.3063 100.261 40.3845 100.591 40.5416L100.419 41.1315C100.145 40.9919 99.8421 40.9225 99.536 40.9296C98.5801 40.9296 98.0568 41.6594 98.0568 42.5413C98.0568 43.5278 98.6793 44.136 99.5097 44.136C99.8321 44.1397 100.151 44.0703 100.444 43.9328L100.574 44.5179Z" fill="#898989"/>
<path d="M104.434 40.4043V41.0125H103.127V44.6677H102.366V41.0125H101.059V40.4043H104.434Z" fill="#898989"/>
<path d="M105.1 41.797C105.1 41.2508 105.083 40.8105 105.065 40.4042H105.739L105.782 41.1341H105.8C106.102 40.6147 106.604 40.3154 107.287 40.3154C108.309 40.3154 109.07 41.1876 109.07 42.4733C109.07 44.0059 108.144 44.7637 107.158 44.7637C106.605 44.7637 106.121 44.5204 105.869 44.0947H105.858V46.4058H105.106L105.1 41.797ZM105.852 42.9331C105.849 43.0926 105.876 43.2513 105.934 43.3998C105.991 43.5483 106.078 43.6835 106.187 43.7976C106.297 43.9116 106.428 44.0021 106.573 44.0638C106.717 44.1255 106.872 44.1571 107.029 44.1567C107.833 44.1567 108.3 43.4877 108.3 42.5098C108.3 41.6644 107.86 40.9285 107.055 40.9285C106.786 40.9318 106.526 41.0275 106.317 41.2001C106.108 41.3728 105.962 41.6122 105.904 41.8797C105.874 41.9802 105.857 42.0839 105.852 42.1886V42.9331Z" fill="#898989"/>
<path d="M113.812 42.5013C113.812 44.0826 112.731 44.765 111.727 44.765C110.601 44.765 109.72 43.9196 109.72 42.5755C109.72 41.1572 110.646 40.3203 111.796 40.3203C112.998 40.3167 113.812 41.2058 113.812 42.5013ZM110.499 42.5451C110.499 43.4793 111.017 44.1835 111.762 44.1835C112.506 44.1835 113.033 43.4878 113.033 42.528C113.033 41.8055 112.674 40.8981 111.778 40.8981C110.882 40.8981 110.499 41.7435 110.499 42.5451Z" fill="#898989"/>
<path d="M115.473 40.4043V42.2021C115.473 42.8711 115.456 43.3029 115.421 43.9111L115.447 43.9196C115.707 43.4002 115.845 43.0998 116.131 42.6072L117.437 40.4043H118.328V44.6677H117.602V42.8626C117.602 42.1668 117.618 41.8056 117.653 41.1098H117.636C117.359 41.6645 117.186 42.0075 116.935 42.4393C116.537 43.0998 116.07 43.9196 115.629 44.6677H114.746V40.4043H115.473Z" fill="#898989"/>
<path d="M122.369 40.4043V41.0125H121.062V44.6677H120.301V41.0125H118.994V40.4043H122.369Z" fill="#898989"/>
<path d="M123.347 42.6774C123.363 43.7259 124.013 44.1565 124.78 44.1565C125.178 44.1707 125.574 44.0955 125.939 43.9363L126.078 44.4922C125.635 44.6825 125.157 44.7753 124.676 44.7647C123.387 44.7647 122.618 43.8926 122.618 42.6068C122.618 41.3211 123.361 40.3164 124.581 40.3164C125.957 40.3164 126.312 41.5328 126.312 42.3161C126.315 42.4384 126.306 42.5606 126.286 42.681L123.347 42.6774ZM125.578 42.1227C125.588 41.6362 125.38 40.8711 124.523 40.8711C123.744 40.8711 123.416 41.5851 123.355 42.1227H125.578Z" fill="#898989"/>
<path d="M130.45 40.4043V44.6677H129.689V41.0125H128.255V42.1072C128.255 43.3054 128.143 44.1069 127.597 44.4682C127.361 44.6566 127.065 44.7505 126.766 44.7322L126.688 44.124C126.839 44.1007 126.982 44.0406 127.104 43.9488C127.493 43.6581 127.537 43.0584 127.537 42.1072V40.4043H130.45Z" fill="#898989"/>
<path d="M132.422 40.4043V41.8408C132.652 41.8115 132.883 41.7969 133.114 41.797C134.058 41.797 135.052 42.1048 135.052 43.2409C135.057 43.4267 135.02 43.6112 134.944 43.7801C134.867 43.9489 134.753 44.0974 134.611 44.214C134.152 44.6105 133.4 44.7078 132.786 44.7078C132.412 44.7097 132.038 44.6914 131.666 44.6531V40.4043H132.422ZM132.414 44.1215C132.603 44.1498 132.794 44.1616 132.985 44.1568C133.547 44.1568 134.291 43.9634 134.291 43.2591C134.291 42.5184 133.53 42.3517 132.959 42.3517C132.776 42.3508 132.593 42.3683 132.414 42.404V44.1215Z" fill="#898989"/>
<path d="M136.731 40.4043V42.123H138.715V40.4043H139.478V44.6677H138.715V42.7397H136.731V44.6677H135.967V40.4043H136.731Z" fill="#898989"/>
<path d="M144.509 42.5013C144.509 44.0826 143.433 44.765 142.424 44.765C141.298 44.765 140.417 43.9196 140.417 42.5755C140.417 41.1572 141.342 40.3203 142.493 40.3203C143.695 40.3167 144.509 41.2058 144.509 42.5013ZM141.196 42.5451C141.196 43.4793 141.714 44.1835 142.458 44.1835C143.185 44.1835 143.73 43.4878 143.73 42.528C143.73 41.8055 143.371 40.8981 142.475 40.8981C141.579 40.8981 141.196 41.7435 141.196 42.5451Z" fill="#898989"/>
<path d="M146.17 40.4045V42.2023C146.17 42.8713 146.153 43.3031 146.118 43.9113L146.144 43.9198C146.404 43.4004 146.543 43.1 146.828 42.6073L148.134 40.4045H149.025V44.6679H148.299V42.8628C148.299 42.167 148.316 41.8057 148.35 41.11H148.334C148.056 41.6646 147.883 42.0077 147.632 42.4395C147.234 43.1 146.767 43.9198 146.326 44.6679H145.443V40.4045H146.17ZM146.663 38.6699C146.69 39.0482 146.871 39.3389 147.218 39.3389C147.589 39.3389 147.762 39.0482 147.806 38.6699H148.35C148.307 39.3827 147.872 39.7647 147.2 39.7647C146.439 39.7647 146.144 39.2708 146.11 38.6699H146.663Z" fill="#898989"/>
<path d="M154.925 40.4043V41.0125H153.619V44.6677H152.858V41.0125H151.551V40.4043H154.925Z" fill="#898989"/>
<path d="M155.904 42.6774C155.921 43.7259 156.569 44.1565 157.338 44.1565C157.735 44.1705 158.131 44.0954 158.497 43.9363L158.635 44.4922C158.192 44.6825 157.715 44.7753 157.234 44.7647C155.944 44.7647 155.174 43.8926 155.174 42.6068C155.174 41.3211 155.918 40.3164 157.138 40.3164C158.515 40.3164 158.869 41.5328 158.869 42.3161C158.872 42.4383 158.863 42.5605 158.843 42.681L155.904 42.6774ZM158.136 42.1227C158.144 41.6362 157.937 40.8711 157.081 40.8711C156.302 40.8711 155.973 41.5851 155.912 42.1227H158.136Z" fill="#898989"/>
<path d="M160.135 40.4043L160.733 41.3214C160.898 41.5586 161.028 41.7703 161.165 42.0075H161.183C161.322 41.7642 161.46 41.5416 161.607 41.3117L162.187 40.4043H163.023L161.589 42.4721L163.052 44.6738H162.195L161.573 43.7141C161.408 43.4708 161.269 43.2275 161.122 42.9745H161.105C160.967 43.2299 160.828 43.461 160.663 43.7141L160.058 44.6738H159.221L160.71 42.4989L159.29 40.4104L160.135 40.4043Z" fill="#898989"/>
<path d="M164.524 40.4043V42.123H166.505V40.4043H167.267V44.6677H166.505V42.7397H164.524V44.6677H163.763V40.4043H164.524Z" fill="#898989"/>
<path d="M169.21 40.4043V42.2021C169.21 42.8711 169.193 43.3029 169.158 43.9111L169.184 43.9196C169.443 43.4002 169.582 43.0998 169.868 42.6072L171.175 40.4043H172.066V44.6677H171.334V42.8626C171.334 42.1668 171.352 41.8056 171.386 41.1098H171.368C171.091 41.6645 170.919 42.0075 170.668 42.4393C170.269 43.0998 169.802 43.9196 169.361 44.6677H168.478V40.4043H169.21Z" fill="#898989"/>
<path d="M174.056 40.4043V42.2544H174.237L175.804 40.4043H176.73L174.918 42.325C175.594 42.404 175.994 42.8626 176.328 43.6289C176.453 43.9847 176.601 44.3317 176.77 44.6677H175.974C175.824 44.3872 175.693 44.0961 175.584 43.7968C175.298 43.1095 174.91 42.792 174.209 42.792H174.062V44.6677H173.309V40.4043H174.056Z" fill="#898989"/>
<path d="M178.145 40.4043V42.2021C178.145 42.8711 178.127 43.3029 178.092 43.9111L178.118 43.9196C178.378 43.4002 178.516 43.0998 178.802 42.6072L180.109 40.4043H181V44.6677H180.273V42.8626C180.273 42.1668 180.291 41.8056 180.325 41.1098H180.307C180.031 41.6645 179.858 42.0075 179.607 42.4393C179.209 43.0998 178.742 43.9196 178.3 44.6677H177.428V40.4043H178.145Z" fill="#898989"/>
</svg>
