<svg width="114" height="40" viewBox="0 0 114 40" fill="none" xmlns="http://www.w3.org/2000/svg">
<path d="M41.964 23.1506C40.8333 24.2706 39.4573 24.8306 37.836 24.8306C36.2147 24.8306 34.8387 24.2706 33.708 23.1506C32.588 22.0092 32.028 20.6279 32.028 19.0066C32.028 17.3746 32.588 15.9986 33.708 14.8786C34.8387 13.7479 36.2147 13.1826 37.836 13.1826C39.4573 13.1826 40.8333 13.7479 41.964 14.8786C43.0947 15.9986 43.66 17.3746 43.66 19.0066C43.66 20.6386 43.0947 22.0199 41.964 23.1506ZM35.26 21.6466C35.9427 22.3292 36.8013 22.6706 37.836 22.6706C38.8707 22.6706 39.7293 22.3292 40.412 21.6466C41.1053 20.9532 41.452 20.0732 41.452 19.0066C41.452 17.9399 41.1053 17.0599 40.412 16.3666C39.7187 15.6732 38.86 15.3266 37.836 15.3266C36.812 15.3266 35.9533 15.6732 35.26 16.3666C34.5667 17.0599 34.22 17.9399 34.22 19.0066C34.22 20.0732 34.5667 20.9532 35.26 21.6466ZM43.7393 13.4066H51.9792V15.5186H48.9553V24.6066H46.7473V15.5186H43.7393V13.4066ZM57.8833 24.8306C56.2086 24.8306 54.8166 24.2706 53.7073 23.1506C52.6086 22.0412 52.0592 20.6599 52.0592 19.0066C52.0592 17.3426 52.6086 15.9612 53.7073 14.8626C54.8166 13.7426 56.2086 13.1826 57.8833 13.1826C58.8966 13.1826 59.8299 13.4226 60.6833 13.9026C61.5473 14.3719 62.2193 15.0119 62.6993 15.8226L60.7953 16.9266C60.5179 16.4252 60.1233 16.0359 59.6112 15.7586C59.0993 15.4706 58.5233 15.3266 57.8833 15.3266C56.7953 15.3266 55.9153 15.6679 55.2433 16.3506C54.5819 17.0439 54.2513 17.9292 54.2513 19.0066C54.2513 20.0732 54.5819 20.9532 55.2433 21.6466C55.9153 22.3292 56.7953 22.6706 57.8833 22.6706C58.5233 22.6706 59.0993 22.5319 59.6112 22.2546C60.1339 21.9666 60.5286 21.5772 60.7953 21.0866L62.6993 22.1906C62.2193 23.0012 61.5473 23.6466 60.6833 24.1266C59.8299 24.5959 58.8966 24.8306 57.8833 24.8306ZM70.4236 17.8546V13.4066H72.6156V24.6066H70.4236V19.9666H66.2636V24.6066H64.0556V13.4066H66.2636V17.8546H70.4236ZM76.9043 19.9826V22.4946H81.6243V24.6066H74.6963V13.4066H81.5443V15.5186H76.9043V17.9026H81.1443V19.9826H76.9043ZM82.3486 13.4066H90.5886V15.5186H87.5646V24.6066H85.3566V15.5186H82.3486V13.4066ZM92.6915 23.4546C92.6915 23.8279 92.5582 24.1479 92.2915 24.4146C92.0248 24.6812 91.7048 24.8146 91.3315 24.8146C90.9582 24.8146 90.6382 24.6812 90.3715 24.4146C90.1048 24.1479 89.9715 23.8279 89.9715 23.4546C89.9715 23.0812 90.1048 22.7612 90.3715 22.4946C90.6382 22.2279 90.9582 22.0946 91.3315 22.0946C91.7048 22.0946 92.0248 22.2279 92.2915 22.4946C92.5582 22.7612 92.6915 23.0812 92.6915 23.4546ZM101.277 18.7986C102.258 19.3639 102.749 20.2172 102.749 21.3586C102.749 22.3079 102.413 23.0866 101.741 23.6946C101.069 24.3026 100.242 24.6066 99.2608 24.6066H94.5088V13.4066H98.9248C99.8741 13.4066 100.679 13.7052 101.341 14.3026C102.002 14.8999 102.333 15.6519 102.333 16.5586C102.333 17.4866 101.981 18.2332 101.277 18.7986ZM98.9248 15.4706H96.7168V17.9346H98.9248C99.2661 17.9346 99.5488 17.8172 99.7728 17.5826C100.007 17.3479 100.125 17.0546 100.125 16.7026C100.125 16.3506 100.013 16.0572 99.7888 15.8226C99.5648 15.5879 99.2768 15.4706 98.9248 15.4706ZM96.7168 22.5426H99.2608C99.6341 22.5426 99.9434 22.4199 100.189 22.1746C100.434 21.9186 100.557 21.5986 100.557 21.2146C100.557 20.8412 100.434 20.5319 100.189 20.2866C99.9434 20.0306 99.6341 19.9026 99.2608 19.9026H96.7168V22.5426ZM110.049 13.4066H112.545L108.705 20.2386V24.6066H106.513V20.2386L102.689 13.4066H105.185L107.617 18.0786L110.049 13.4066Z" fill="white"/>
<rect y="22.5" width="4" height="25" transform="rotate(-90 0 22.5)" fill="white"/>
<rect x="1.89337" y="12.929" width="4" height="25" transform="rotate(-45 1.89337 12.929)" fill="white"/>
<rect x="19.571" y="9.39343" width="4" height="25" transform="rotate(45 19.571 9.39343)" fill="white"/>
<circle cx="11.7905" cy="9.84338" r="2.5" fill="white"/>
<circle cx="11.7905" cy="30.1066" r="2.5" fill="white"/>
</svg>
