<svg width="114" height="40" viewBox="0 0 114 40" fill="none" xmlns="http://www.w3.org/2000/svg">
<path d="M41.964 23.1504C40.8333 24.2704 39.4573 24.8304 37.836 24.8304C36.2147 24.8304 34.8387 24.2704 33.708 23.1504C32.588 22.0091 32.028 20.6278 32.028 19.0064C32.028 17.3744 32.588 15.9984 33.708 14.8784C34.8387 13.7478 36.2147 13.1824 37.836 13.1824C39.4573 13.1824 40.8333 13.7478 41.964 14.8784C43.0947 15.9984 43.66 17.3744 43.66 19.0064C43.66 20.6384 43.0947 22.0198 41.964 23.1504ZM35.26 21.6464C35.9427 22.3291 36.8013 22.6704 37.836 22.6704C38.8707 22.6704 39.7293 22.3291 40.412 21.6464C41.1053 20.9531 41.452 20.0731 41.452 19.0064C41.452 17.9398 41.1053 17.0598 40.412 16.3664C39.7187 15.6731 38.86 15.3264 37.836 15.3264C36.812 15.3264 35.9533 15.6731 35.26 16.3664C34.5667 17.0598 34.22 17.9398 34.22 19.0064C34.22 20.0731 34.5667 20.9531 35.26 21.6464ZM43.7393 13.4064H51.9792V15.5184H48.9553V24.6064H46.7473V15.5184H43.7393V13.4064ZM57.8833 24.8304C56.2086 24.8304 54.8166 24.2704 53.7073 23.1504C52.6086 22.0411 52.0592 20.6598 52.0592 19.0064C52.0592 17.3424 52.6086 15.9611 53.7073 14.8624C54.8166 13.7424 56.2086 13.1824 57.8833 13.1824C58.8966 13.1824 59.8299 13.4224 60.6833 13.9024C61.5473 14.3718 62.2193 15.0118 62.6993 15.8224L60.7953 16.9264C60.5179 16.4251 60.1233 16.0358 59.6112 15.7584C59.0993 15.4704 58.5233 15.3264 57.8833 15.3264C56.7953 15.3264 55.9153 15.6678 55.2433 16.3504C54.5819 17.0438 54.2513 17.9291 54.2513 19.0064C54.2513 20.0731 54.5819 20.9531 55.2433 21.6464C55.9153 22.3291 56.7953 22.6704 57.8833 22.6704C58.5233 22.6704 59.0993 22.5318 59.6112 22.2544C60.1339 21.9664 60.5286 21.5771 60.7953 21.0864L62.6993 22.1904C62.2193 23.0011 61.5473 23.6464 60.6833 24.1264C59.8299 24.5958 58.8966 24.8304 57.8833 24.8304ZM70.4236 17.8544V13.4064H72.6156V24.6064H70.4236V19.9664H66.2636V24.6064H64.0556V13.4064H66.2636V17.8544H70.4236ZM76.9043 19.9824V22.4944H81.6243V24.6064H74.6963V13.4064H81.5443V15.5184H76.9043V17.9024H81.1443V19.9824H76.9043ZM82.3486 13.4064H90.5886V15.5184H87.5646V24.6064H85.3566V15.5184H82.3486V13.4064ZM92.6915 23.4544C92.6915 23.8278 92.5582 24.1478 92.2915 24.4144C92.0248 24.6811 91.7048 24.8144 91.3315 24.8144C90.9582 24.8144 90.6382 24.6811 90.3715 24.4144C90.1048 24.1478 89.9715 23.8278 89.9715 23.4544C89.9715 23.0811 90.1048 22.7611 90.3715 22.4944C90.6382 22.2278 90.9582 22.0944 91.3315 22.0944C91.7048 22.0944 92.0248 22.2278 92.2915 22.4944C92.5582 22.7611 92.6915 23.0811 92.6915 23.4544ZM101.277 18.7984C102.258 19.3638 102.749 20.2171 102.749 21.3584C102.749 22.3078 102.413 23.0864 101.741 23.6944C101.069 24.3024 100.242 24.6064 99.2608 24.6064H94.5088V13.4064H98.9248C99.8741 13.4064 100.679 13.7051 101.341 14.3024C102.002 14.8998 102.333 15.6518 102.333 16.5584C102.333 17.4864 101.981 18.2331 101.277 18.7984ZM98.9248 15.4704H96.7168V17.9344H98.9248C99.2661 17.9344 99.5488 17.8171 99.7728 17.5824C100.007 17.3478 100.125 17.0544 100.125 16.7024C100.125 16.3504 100.013 16.0571 99.7888 15.8224C99.5648 15.5878 99.2768 15.4704 98.9248 15.4704ZM96.7168 22.5424H99.2608C99.6341 22.5424 99.9434 22.4198 100.189 22.1744C100.434 21.9184 100.557 21.5984 100.557 21.2144C100.557 20.8411 100.434 20.5318 100.189 20.2864C99.9434 20.0304 99.6341 19.9024 99.2608 19.9024H96.7168V22.5424ZM110.049 13.4064H112.545L108.705 20.2384V24.6064H106.513V20.2384L102.689 13.4064H105.185L107.617 18.0784L110.049 13.4064Z" fill="#241F20"/>
<rect y="22.3418" width="3.95825" height="25" transform="rotate(-90 0 22.3418)" fill="#DC143C"/>
<rect width="3.97918" height="24.8699" transform="matrix(0.710806 -0.703388 0.710806 0.703388 1.89355 12.8711)" fill="#DC143C"/>
<rect width="3.97918" height="24.8699" transform="matrix(0.710806 0.703388 -0.710806 0.703388 19.5713 9.37207)" fill="#DC143C"/>
<ellipse cx="11.7905" cy="9.81766" rx="2.5" ry="2.47391" fill="#DC143C"/>
<ellipse cx="11.7905" cy="29.8694" rx="2.5" ry="2.47391" fill="#DC143C"/>
</svg>
