<svg width="32" height="32" viewBox="0 0 32 32" fill="none" xmlns="http://www.w3.org/2000/svg">
<path fill-rule="evenodd" clip-rule="evenodd" d="M14.6667 25.3337V29.3337H17.3333V25.3337H18.6667C21.6122 25.3337 24 22.9458 24 20.0003C24 17.0548 21.6122 14.667 18.6667 14.667H17.3333V9.33366H20V12.0003H22.6667V6.66699H17.3333V2.66699H14.6667V6.66699H13.3333C10.3878 6.66699 8 9.05481 8 12.0003C8 14.9458 10.3878 17.3337 13.3333 17.3337H14.6667V22.667H12V20.0003H9.33333V25.3337H14.6667ZM17.3333 22.667H18.6667C20.1394 22.667 21.3333 21.4731 21.3333 20.0003C21.3333 18.5276 20.1394 17.3337 18.6667 17.3337H17.3333V22.667ZM14.6667 14.667V9.33366H13.3333C11.8606 9.33366 10.6667 10.5276 10.6667 12.0003C10.6667 13.4731 11.8606 14.667 13.3333 14.667H14.6667Z" fill="#DC143C"/>
</svg>
