<svg width="32" height="32" viewBox="0 0 32 32" fill="none" xmlns="http://www.w3.org/2000/svg">
<path d="M12.3333 19C13.0697 19 13.6667 18.403 13.6667 17.6667C13.6667 16.9303 13.0697 16.3333 12.3333 16.3333C11.597 16.3333 11 16.9303 11 17.6667C11 18.403 11.597 19 12.3333 19Z" fill="#DC143C"/>
<path d="M21.6667 17.6667C21.6667 18.403 21.0697 19 20.3333 19C19.597 19 19 18.403 19 17.6667C19 16.9303 19.597 16.3333 20.3333 16.3333C21.0697 16.3333 21.6667 16.9303 21.6667 17.6667Z" fill="#DC143C"/>
<path fill-rule="evenodd" clip-rule="evenodd" d="M16.3333 29.6667C23.6971 29.6667 29.6667 23.6971 29.6667 16.3333C29.6667 8.96954 23.6971 3 16.3333 3C8.96954 3 3 8.96954 3 16.3333C3 23.6971 8.96954 29.6667 16.3333 29.6667ZM16.3333 27C22.2244 27 27 22.2244 27 16.3333C27 15.2183 26.8289 14.1433 26.5116 13.133C25.3988 13.4341 24.2283 13.5947 23.0203 13.5947C18.0561 13.5947 13.7256 10.8819 11.4304 6.85779C8.00626 8.63315 5.66667 12.21 5.66667 16.3333C5.66667 22.2244 10.4423 27 16.3333 27Z" fill="#DC143C"/>
</svg>
