<svg width="32" height="32" viewBox="0 0 32 32" fill="none" xmlns="http://www.w3.org/2000/svg">
<g clip-path="url(#clip0_4181_11610)">
<path d="M32 0H0V5.64706H1.88235V24.4706H15.0588V26.5148C13.9634 26.9033 13.1765 27.9495 13.1765 29.1765C13.1765 30.7334 14.443 32 16 32C17.557 32 18.8235 30.7334 18.8235 29.1765C18.8235 27.9495 18.0366 26.9033 16.9412 26.5148V24.4706H30.1176V5.64706H32V0ZM16 30.1176C15.481 30.1176 15.0588 29.6955 15.0588 29.1765C15.0588 28.6574 15.481 28.2353 16 28.2353C16.519 28.2353 16.9412 28.6574 16.9412 29.1765C16.9412 29.6955 16.519 30.1176 16 30.1176ZM28.2353 22.5882H3.76471V5.64706H28.2353V22.5882ZM30.1176 3.76471H1.88235V1.88235H30.1176V3.76471Z" fill="#DC143C"/>
<path d="M12.9012 10.0774L11.5702 8.7464L8.47099 11.8456L7.25411 10.6288L5.92316 11.9598L8.47099 14.5076L12.9012 10.0774ZM16.9416 8.4707H26.3533V10.3531H16.9416V8.4707ZM16.9416 12.2354H26.3533V14.1178H16.9416V12.2354ZM5.64746 16.9413H15.0592V18.8236H5.64746V16.9413ZM16.9416 16.9413H26.3533V18.8236H16.9416V16.9413Z" fill="#DC143C"/>
</g>
<defs>
<clipPath id="clip0_4181_11610">
<rect width="32" height="32" fill="white"/>
</clipPath>
</defs>
</svg>
