<svg width="50" height="50" viewBox="0 0 50 50" fill="none" xmlns="http://www.w3.org/2000/svg">
<rect width="50" height="50" rx="8" fill="white"/>
<path d="M12 15H15.3029V19.2436C17.2682 17.6918 19.7464 16.7663 22.4397 16.7663C28.8243 16.7663 34 21.9673 34 28.3831C34 34.799 28.8243 40 22.4397 40C18.8882 40 15.7108 38.3907 13.5902 35.8581L16.2645 33.8919C17.777 35.6029 19.9831 36.6809 22.4397 36.6809C27.0001 36.6809 30.6971 32.9659 30.6971 28.3831C30.6971 23.8004 27.0001 20.0854 22.4397 20.0854C20.6448 20.0854 18.9837 20.6608 17.629 21.6382L21.9088 21.6382V24.9573H12V15Z" fill="#DC143C"/>
</svg>
