<svg width="32" height="32" viewBox="0 0 32 32" fill="none" xmlns="http://www.w3.org/2000/svg">
<path d="M20.5325 26.4735H25.9937C27.4376 26.4735 28.6081 25.303 28.6081 23.8591V9.47228H6.18774V24.8797C6.18774 25.76 5.47416 26.4735 4.59387 26.4735M4.59387 26.4735C3.71357 26.4735 3 25.76 3 24.8797V4H11.8725V6.28454H27.0143V9.47228M4.59387 26.4735H14.529" stroke="#DC143C" stroke-width="2" stroke-miterlimit="10"/>
<path d="M17.8527 28.4365C14.256 26.5071 12.0117 24.3826 12.0117 20.3011V16.6751H14.4298C15.0506 16.6751 15.6665 16.5653 16.2492 16.351C16.8273 16.1391 17.3758 15.8246 17.8527 15.4199C18.3297 15.8246 18.8782 16.1391 19.4562 16.351C20.0389 16.5653 20.6548 16.6751 21.2756 16.6751H23.6937V20.3011C23.6937 24.3826 21.4494 26.5071 17.8527 28.4365Z" stroke="#DC143C" stroke-width="2" stroke-miterlimit="10"/>
<path d="M17.8525 24.7371C17.0636 24.2139 16.4887 23.7126 16.0869 23.2028C15.6736 22.6783 15.1992 21.8745 15.1992 20.3012V19.828C15.9341 19.7611 16.657 19.5979 17.3495 19.3428C17.5193 19.2805 17.6871 19.2129 17.8526 19.1401C18.0192 19.2134 18.1881 19.2814 18.359 19.344C19.0503 19.5986 19.772 19.7613 20.5057 19.828V20.3012C20.5057 21.8745 20.0313 22.6783 19.618 23.2028C19.2162 23.7126 18.6414 24.214 17.8525 24.7371Z" stroke="#DC143C" stroke-width="2" stroke-miterlimit="10"/>
</svg>
