<svg width="32" height="32" viewBox="0 0 32 32" fill="none" xmlns="http://www.w3.org/2000/svg">
<g clip-path="url(#clip0_4215_5401)">
<path d="M32 1.33684L30.6762 0.0112305L25.6941 4.9865L14.5918 3.69799L0 18.2708L13.7005 31.9892L28.2923 17.4164L27.0182 6.31179L32 1.33684ZM26.328 16.7305L13.7022 29.3398L2.6494 18.2725L15.2751 5.66323L24.0022 6.6761L22.0558 8.61986C21.6092 8.38444 21.1094 8.25924 20.5902 8.25924C19.7499 8.25924 18.9597 8.58627 18.3651 9.18007C17.77 9.77436 17.442 10.5649 17.4414 11.406C17.4409 12.247 17.768 13.038 18.3623 13.633C18.9571 14.2287 19.7483 14.5567 20.5902 14.5567C21.4305 14.5567 22.2206 14.2298 22.8152 13.636C23.8131 12.6394 24.0013 11.1343 23.3792 9.9459L25.3264 8.00127L26.328 16.7305ZM21.4914 12.3104C21.3732 12.429 21.2328 12.5231 21.0781 12.5871C20.9234 12.6511 20.7576 12.6838 20.5902 12.6834C20.4225 12.6838 20.2564 12.651 20.1015 12.5868C19.9465 12.5225 19.8059 12.4282 19.6878 12.3092C19.447 12.0682 19.3145 11.7478 19.3148 11.4072C19.315 11.0666 19.4478 10.7464 19.6889 10.5056C19.807 10.387 19.9475 10.2929 20.1022 10.2289C20.2569 10.1649 20.4227 10.1322 20.5902 10.1326C20.7579 10.1322 20.924 10.165 21.0789 10.2292C21.2338 10.2934 21.3744 10.3878 21.4926 10.5067C21.9895 11.0043 21.989 11.8135 21.4914 12.3104Z" fill="#DC143C"/>
<path d="M16.6841 14.2725L15.9287 15.0279C15.5983 14.8582 15.2322 14.7698 14.8608 14.7701C14.2226 14.7701 13.6137 15.0275 13.1465 15.4948C12.6428 15.9985 12.4261 16.5374 12.465 17.1962C12.5074 17.7644 12.6009 18.1526 12.8631 18.852C13.2392 19.9119 13.2502 20.3856 12.9067 20.7291C12.6868 20.949 12.4473 21.0732 12.2013 21.0979C12.1725 21.1002 12.1438 21.1014 12.1159 21.1014C11.8356 21.1014 11.5893 20.9857 11.3411 20.7374C10.829 20.2253 10.8464 19.6364 11.4035 18.6371L11.6111 18.2645L9.96495 17.8596L9.83856 18.0516C9.16807 19.0703 9.12037 20.2765 9.69468 21.2621L8.94727 22.0094L10.069 23.1311L10.8225 22.3775C11.224 22.6145 11.6651 22.7343 12.1375 22.7343C12.1804 22.7343 12.2236 22.7333 12.265 22.7314C12.9665 22.7034 13.5877 22.4238 14.1111 21.9004L14.1207 21.8903C14.7106 21.2476 14.9109 20.6212 14.7905 19.7984C14.7193 19.283 14.6365 19.0213 14.4723 18.529L14.2584 17.8542C14.2238 17.7357 14.1939 17.5742 14.1561 17.3703L14.1531 17.3537C14.1082 16.9872 14.2027 16.8143 14.3923 16.6248C14.5298 16.4872 14.7173 16.4084 14.9066 16.4084C15.0271 16.4084 15.2026 16.4402 15.3542 16.5917C15.6363 16.8739 15.754 17.1519 15.5687 17.8116L15.4749 18.1454L17.0679 18.4859L17.1588 18.2073C17.406 17.4493 17.3674 16.7604 17.0447 16.1553L17.8057 15.3942L16.6841 14.2725Z" fill="#DC143C"/>
</g>
<defs>
<clipPath id="clip0_4215_5401">
<rect width="32" height="32" fill="white"/>
</clipPath>
</defs>
</svg>
