<svg width="32" height="32" viewBox="0 0 32 32" fill="none" xmlns="http://www.w3.org/2000/svg">
<g clip-path="url(#clip0_4237_10729)">
<path d="M13.4375 24.4773H0.9375V1.66479H31.0625V24.4773H18.875" stroke="#DC143C" stroke-width="2" stroke-miterlimit="10"/>
<path d="M12.625 20.7273H4.6875V5.41479H27.3125V20.7273H19.1875M18.4568 23.9499V30.0369L16 29.3491L13.5432 30.0369V23.9499M8.625 12.915H23.375M8.61944 16.665H12.375M23.3806 16.665H19.625" stroke="#DC143C" stroke-width="2" stroke-miterlimit="10"/>
<path d="M20.625 9.16479H11.375M18.9373 22.2271C18.9373 21.6237 19.4756 20.8702 19.1936 20.3829C18.9028 19.8802 17.9713 19.9735 17.4686 19.6826C16.9813 19.4007 16.6034 18.5397 16 18.5397C15.3966 18.5397 15.0187 19.4007 14.5314 19.6825C14.0288 19.9734 13.0972 19.8802 12.8064 20.3829C12.5244 20.8701 13.0627 21.6236 13.0627 22.227C13.0627 22.8305 12.5244 23.584 12.8064 24.0712C13.0972 24.5739 14.0288 24.4807 14.5314 24.7715C15.0187 25.0535 15.3966 25.9144 16 25.9144C16.6034 25.9144 16.9813 25.0535 17.4686 24.7716C17.9713 24.4808 18.9028 24.574 19.1936 24.0713C19.4756 23.584 18.9373 22.8305 18.9373 22.2271Z" stroke="#DC143C" stroke-width="2" stroke-miterlimit="10"/>
</g>
<defs>
<clipPath id="clip0_4237_10729">
<rect width="32" height="32" fill="white"/>
</clipPath>
</defs>
</svg>
