<svg width="32" height="32" viewBox="0 0 32 32" fill="none" xmlns="http://www.w3.org/2000/svg">
<path d="M26.4298 6.82025C26.3252 6.71598 26.2191 6.61324 26.1114 6.51206L27.147 5.27019L28.8441 6.68538L30.4452 4.76538L25.1311 0.333813L23.53 2.25381L25.227 3.669L24.1551 4.95437C22.1001 3.58519 19.7384 2.76044 17.25 2.55294V0H14.75V2.55294C11.2816 2.84212 8.05931 4.33106 5.57019 6.82019C2.78425 9.60606 1.25 13.3101 1.25 17.25C1.25 21.1899 2.78425 24.8939 5.57019 27.6798C8.35606 30.4658 12.0601 32 16 32C19.9399 32 23.6439 30.4658 26.4298 27.6798C29.2158 24.8939 30.75 21.1899 30.75 17.25C30.75 13.3101 29.2158 9.60606 26.4298 6.82025ZM16 29.5C9.24531 29.5 3.75 24.0047 3.75 17.25C3.75 10.4953 9.24531 5 16 5C22.7547 5 28.25 10.4953 28.25 17.25C28.25 24.0047 22.7547 29.5 16 29.5Z" fill="#DC143C"/>
<path d="M21.1179 8.93872L16.3903 14.7807C16.2612 14.7603 16.1307 14.7501 16 14.75C14.6215 14.75 13.5 15.8715 13.5 17.25C13.5 18.6285 14.6215 19.75 16 19.75C17.3785 19.75 18.5 18.6285 18.5 17.25C18.5 16.9343 18.4406 16.6323 18.3333 16.3539L23.0613 10.5114L21.1179 8.93872Z" fill="#DC143C"/>
</svg>
