<svg width="32" height="32" viewBox="0 0 32 32" fill="none" xmlns="http://www.w3.org/2000/svg">
<g clip-path="url(#clip0_4221_5587)">
<path d="M31.8026 6.80737L30.4768 5.48163L28.8368 7.12162C27.7621 6.50419 26.3638 6.6535 25.4465 7.57088L24.893 8.12438V0H5.14208L0.197266 4.94481V32H24.893V16.6583L29.7135 11.8378C30.6308 10.9204 30.7802 9.52206 30.1627 8.44738L31.8026 6.80737ZM13.2826 22.6704L14.6139 24.0016L12.3067 24.9776L13.2826 22.6704ZM16.0818 22.8178L14.4665 21.2026L24.7835 10.8854L26.3988 12.5007L16.0818 22.8178ZM5.65289 2.14081V5.45563H2.33808L5.65289 2.14081ZM23.018 30.125H2.07227V7.33063H7.52789V1.875H23.018V9.99938L20.0617 12.9556H4.99202V14.8306H18.1867L16.3117 16.7056H4.99202V18.5806H14.4367L11.9065 21.1108L10.2756 24.9666L8.9652 23.6562L6.87145 25.75H3.94727V27.625H7.64808L8.9652 26.3079L10.4546 27.7967L16.1735 25.3778L23.018 18.5333V30.125ZM28.3876 10.512L27.7247 11.1749L26.1094 9.55956L26.7723 8.89662C27.138 8.53112 27.7326 8.53106 28.0982 8.89662L28.3877 9.18612C28.7531 9.55169 28.7531 10.1464 28.3876 10.512Z" fill="#DC143C"/>
<path d="M7.63184 9.20557H17.4576V11.0806H7.63184V9.20557Z" fill="#DC143C"/>
</g>
<defs>
<clipPath id="clip0_4221_5587">
<rect width="32" height="32" fill="white"/>
</clipPath>
</defs>
</svg>
