<svg width="27" height="39" viewBox="0 0 27 39" fill="none" xmlns="http://www.w3.org/2000/svg">
<path d="M13.3153 -0.00012207C5.97339 -0.00012207 0 5.79882 0 12.9263C0 15.066 0.55105 17.1875 1.59862 19.0692L12.5872 38.3626C12.7335 38.6198 13.0122 38.7791 13.3153 38.7791C13.6184 38.7791 13.8972 38.6198 14.0435 38.3626L25.0361 19.0628C26.0796 17.1875 26.6307 15.0659 26.6307 12.9262C26.6307 5.79882 20.6573 -0.00012207 13.3153 -0.00012207ZM13.3153 19.3895C9.64436 19.3895 6.6577 16.4901 6.6577 12.9263C6.6577 9.36257 9.64436 6.46314 13.3153 6.46314C16.9863 6.46314 19.973 9.36257 19.973 12.9263C19.973 16.4901 16.9863 19.3895 13.3153 19.3895Z" fill="#DC143C"/>
</svg>
