<?xml version="1.0" encoding="utf-8"?><svg viewBox="0 0 35 34" xmlns="http://www.w3.org/2000/svg" xmlns:xlink="http://www.w3.org/1999/xlink"><style>:root>svg{display:none}:root>svg:target{display:block}</style><svg viewBox="0 0 24 24" id="arrow" xmlns="http://www.w3.org/2000/svg"><path fill-rule="evenodd" clip-rule="evenodd" d="M10.191 7.204c-.262.262-.248.948 0 1.227l2.895 3.069-2.895 3.069c-.248.28-.262.964 0 1.228.264.263.91.278 1.158 0l3.473-3.683c.237-.268.237-.96 0-1.229L11.35 7.204c-.249-.28-.894-.264-1.158 0z"/></svg><svg viewBox="0 0 20 20" id="arrow-down" xmlns="http://www.w3.org/2000/svg"><path d="M5 7.5l5 5 5-5"/></svg><svg viewBox="0 0 25 24" id="arrow-left" xmlns="http://www.w3.org/2000/svg"><path d="M16 19l-7-7 7-7"/></svg><svg viewBox="0 0 25 24" id="arrow-right" xmlns="http://www.w3.org/2000/svg"><path d="M9 19l7-7-7-7"/></svg><svg viewBox="0 0 33 32" id="check" xmlns="http://www.w3.org/2000/svg"><path d="M14.657 20.993l-4.42-4.42 1.473-1.472 2.947 2.946 5.892-5.893 1.473 1.474-7.365 7.365z"/><path fill-rule="evenodd" clip-rule="evenodd" d="M5.029 9.208a4.167 4.167 0 014.166-4.167H23.78a4.167 4.167 0 014.166 4.167v14.583a4.167 4.167 0 01-4.166 4.167H9.195a4.167 4.167 0 01-4.166-4.166V9.207zm4.166-2.083H23.78c1.15 0 2.083.933 2.083 2.083v14.583a2.084 2.084 0 01-2.083 2.084H9.195a2.083 2.083 0 01-2.083-2.084V9.208c0-1.15.933-2.083 2.083-2.083z"/></svg><svg viewBox="0 0 35 34" id="close" xmlns="http://www.w3.org/2000/svg"><path d="M21.508 12.678a1.136 1.136 0 010 1.607l-3.388 3.388 3.04 3.04a1.136 1.136 0 11-1.607 1.608l-3.04-3.04-3.04 3.04a1.136 1.136 0 01-1.608-1.607l3.04-3.04-3.387-3.389a1.137 1.137 0 011.607-1.607l3.388 3.388 3.388-3.388a1.136 1.136 0 011.607 0z"/><path fill-rule="evenodd" clip-rule="evenodd" d="M7.422 5a3.41 3.41 0 00-3.41 3.409V26.59A3.41 3.41 0 007.423 30h18.182a3.41 3.41 0 003.409-3.41V8.41A3.41 3.41 0 0025.604 5H7.423zm18.182 2.272H7.422c-.628 0-1.137.509-1.137 1.137V26.59c0 .628.51 1.137 1.137 1.137h18.182c.627 0 1.136-.509 1.136-1.137V8.41c0-.628-.509-1.137-1.136-1.137z"/></svg><svg viewBox="0 0 25 26" id="logo" xmlns="http://www.w3.org/2000/svg"><path d="M0 15.5v-4h25v4z"/><path d="M1.894 5.929L4.722 3.1 22.4 20.778l-2.828 2.828z"/><path d="M19.571 2.393L22.4 5.22 4.722 22.9l-2.828-2.828z"/><circle cx="11.79" cy="2.843" r="2.5"/><circle cx="11.79" cy="23.107" r="2.5"/></svg><svg viewBox="0 0 22 20" id="star" xmlns="http://www.w3.org/2000/svg"><path d="M10.524.464a.5.5 0 01.952 0l2.106 6.482a.5.5 0 00.475.346h6.817a.5.5 0 01.294.904l-5.515 4.007a.5.5 0 00-.181.559l2.106 6.483a.5.5 0 01-.77.559l-5.514-4.007a.5.5 0 00-.588 0l-5.514 4.007a.5.5 0 01-.77-.56l2.106-6.482a.5.5 0 00-.181-.56L.832 8.197a.5.5 0 01.294-.904h6.817a.5.5 0 00.475-.346L10.525.464z"/></svg><svg viewBox="0 0 24 24" id="telegram" xmlns="http://www.w3.org/2000/svg"><path d="M21.215 3.847c-.348-.286-.895-.327-1.46-.107C19.161 3.972 2.93 10.723 2.27 11c-.12.04-1.17.42-1.062 1.266.097.762.94 1.078 1.043 1.115l4.126 1.37c.274.884 1.283 4.144 1.506 4.841.14.434.366 1.005.764 1.122.349.13.696.012.92-.16l2.523-2.269 4.072 3.08.097.057c.277.119.542.178.795.178.195 0 .382-.036.562-.107.61-.243.854-.806.88-.87l3.041-15.335c.186-.82-.072-1.236-.322-1.44zM10.016 15.3l-1.392 3.6-1.392-4.5 10.672-7.65-7.888 8.55z"/></svg><svg viewBox="0 0 24 24" id="viber" xmlns="http://www.w3.org/2000/svg"><path d="M19.913 6.656c-.312-1.167-.93-2.091-1.836-2.745-1.144-.826-2.46-1.119-3.597-1.296-1.572-.246-2.996-.28-4.352-.107-1.273.164-2.23.424-3.105.845-1.713.824-2.74 2.159-3.054 3.965a26 26 0 00-.315 2.426c-.137 1.748-.013 3.295.381 4.729.383 1.397 1.054 2.396 2.05 3.053.254.167.578.288.893.404.157.059.308.116.44.177v2.824c0 .37.286.669.639.669a.623.623 0 00.445-.19l2.487-2.534c.108-.13.108-.13.22-.132.85-.018 1.718-.052 2.581-.1 1.046-.06 2.257-.166 3.398-.665 1.044-.457 1.806-1.181 2.263-2.153.477-1.015.761-2.114.868-3.36.186-2.19.053-4.091-.406-5.81zm-4.33 8.336c-.25.428-.624.724-1.064.916-.322.14-.65.111-.967-.03-2.66-1.179-4.746-3.038-6.125-5.71-.285-.55-.482-1.149-.71-1.73-.046-.12-.042-.26-.063-.391.02-.94.708-1.469 1.403-1.629.266-.061.501.037.698.235a6.432 6.432 0 011.302 1.886c.142.311.077.586-.165.818-.05.048-.102.092-.156.135-.552.435-.633.764-.34 1.419.502 1.114 1.333 1.863 2.41 2.327.283.122.55.061.767-.18.029-.032.062-.063.083-.1.425-.741 1.04-.668 1.608-.245.373.278.735.57 1.105.854.56.433.556.84.213 1.425zM12.39 7.314c-.143 0-.286.012-.427.037a.438.438 0 01-.502-.376.455.455 0 01.359-.526c.187-.032.38-.05.57-.05 1.89 0 3.428 1.612 3.428 3.592 0 .2-.016.402-.047.598a.443.443 0 01-.502.376.456.456 0 01-.359-.527c.024-.145.036-.296.036-.446 0-1.477-1.147-2.678-2.556-2.678zm1.901 2.971a.447.447 0 01-.436.457.447.447 0 01-.436-.457c0-.756-.587-1.37-1.309-1.37a.447.447 0 01-.436-.458c0-.252.196-.456.436-.456 1.202-.001 2.181 1.024 2.181 2.284zm2.937.558a.44.44 0 01-.522.345.458.458 0 01-.33-.547c.064-.292.096-.593.096-.896 0-2.222-1.726-4.03-3.848-4.03-.29 0-.577.033-.855.1a.435.435 0 01-.522-.346.457.457 0 01.33-.546 4.484 4.484 0 011.049-.123c2.602 0 4.72 2.218 4.72 4.945 0 .37-.04.74-.118 1.098z"/></svg><svg viewBox="0 0 24 24" id="whatsapp" xmlns="http://www.w3.org/2000/svg"><path d="M18.967 5.036c-1.876-1.875-4.435-2.822-7.122-2.606-3.612.29-6.778 2.8-7.838 6.264-.757 2.474-.439 5.058.794 7.192L3.633 19.76a.496.496 0 00.604.622l4.058-1.087a8.997 8.997 0 004.3 1.095h.005c3.78 0 7.272-2.31 8.48-5.89 1.177-3.49.307-7.044-2.113-9.465zm-1.963 9.569c-.188.524-1.106 1.03-1.518 1.067-.413.038-.8.187-2.699-.561-2.286-.9-3.73-3.243-3.841-3.392-.113-.15-.918-1.219-.918-2.325 0-1.105.58-1.65.787-1.873a.826.826 0 01.6-.281c.15 0 .3 0 .43.005.161.006.339.014.507.388.2.445.637 1.556.693 1.669.056.112.094.244.02.393-.076.15-.114.243-.225.375-.113.131-.236.293-.337.393-.113.112-.23.234-.1.459.132.225.583.96 1.251 1.556.86.765 1.584 1.002 1.809 1.115.225.113.356.094.487-.056.132-.15.563-.656.712-.881.15-.225.3-.187.506-.113.207.075 1.312.619 1.537.732.225.112.375.168.43.262.056.092.056.542-.131 1.067z"/></svg></svg>