<svg width="32" height="32" viewBox="0 0 32 32" fill="none" xmlns="http://www.w3.org/2000/svg">
<path d="M12.5 15C13.9587 15 15.3576 14.4205 16.3891 13.3891C17.4205 12.3576 18 10.9587 18 9.5C18 8.04131 17.4205 6.64236 16.3891 5.61091C15.3576 4.57946 13.9587 4 12.5 4C11.0413 4 9.64236 4.57946 8.61091 5.61091C7.57946 6.64236 7 8.04131 7 9.5C7 10.9587 7.57946 12.3576 8.61091 13.3891C9.64236 14.4205 11.0413 15 12.5 15Z" stroke="#DC143C" stroke-width="2" stroke-linecap="round" stroke-linejoin="round"/>
<path d="M3 24.1C3.00002 22.3919 3.48856 20.7183 4.40972 19.2706C5.33088 17.8229 6.64749 16.6595 8.20894 15.9136C9.7704 15.1677 11.5137 14.8693 13.2394 15.0525C14.9651 15.2358 16.6035 15.8933 17.9673 16.9499M22.8155 17.5999H25.4575M28.5805 22.419L28.9715 25.0191C29.0271 25.3886 29.0011 25.7656 28.8954 26.1244C28.7896 26.4832 28.6065 26.8154 28.3585 27.0983C28.1105 27.3811 27.8035 27.6081 27.4584 27.7637C27.1133 27.9193 26.7381 27.9999 26.3585 28H21.9145C21.5349 27.9999 21.1598 27.9193 20.8146 27.7637C20.4695 27.6081 20.1625 27.3811 19.9145 27.0983C19.6666 26.8154 19.4834 26.4832 19.3777 26.1244C19.2719 25.7656 19.2459 25.3886 19.3015 25.0191L19.6926 22.419C19.7854 21.8023 20.1003 21.2389 20.58 20.8316C21.0596 20.4242 21.672 20.2001 22.3056 20.1999H25.9675C26.601 20.2001 27.2134 20.4242 27.6931 20.8316C28.1727 21.2389 28.4877 21.8023 28.5805 22.419Z" stroke="#DC143C" stroke-width="2" stroke-linecap="round" stroke-linejoin="round"/>
</svg>
