<svg width="35" height="34" viewBox="0 0 35 34" fill="none" xmlns="http://www.w3.org/2000/svg">
<path d="M21.5077 12.6783C21.9515 13.1221 21.9515 13.8416 21.5077 14.2854L18.1198 17.6734L21.16 20.7136C21.6038 21.1574 21.6038 21.8769 21.16 22.3207C20.7162 22.7644 19.9967 22.7644 19.5529 22.3207L16.5127 19.2804L13.4724 22.3207C13.0287 22.7644 12.3092 22.7644 11.8654 22.3207C11.4216 21.8769 11.4216 21.1574 11.8654 20.7136L14.9056 17.6734L11.5176 14.2854C11.0739 13.8416 11.0739 13.1221 11.5176 12.6783C11.9614 12.2345 12.6809 12.2345 13.1247 12.6783L16.5127 16.0663L19.9007 12.6783C20.3445 12.2345 21.064 12.2345 21.5077 12.6783Z" fill="#241F20"/>
<path fill-rule="evenodd" clip-rule="evenodd" d="M7.42179 4.99951C5.539 4.99951 4.0127 6.52581 4.0127 8.4086V26.5904C4.0127 28.4732 5.539 29.9995 7.42179 29.9995H25.6036C27.4864 29.9995 29.0127 28.4732 29.0127 26.5904V8.4086C29.0127 6.52581 27.4864 4.99951 25.6036 4.99951H7.42179ZM25.6036 7.27224H7.42179C6.79419 7.27224 6.28542 7.78101 6.28542 8.4086V26.5904C6.28542 27.218 6.79419 27.7268 7.42179 27.7268H25.6036C26.2312 27.7268 26.74 27.218 26.74 26.5904V8.4086C26.74 7.78101 26.2312 7.27224 25.6036 7.27224Z" fill="#241F20"/>
</svg>
