<svg width="16" height="16" viewBox="0 0 16 16" fill="none" xmlns="http://www.w3.org/2000/svg">
<circle cx="8.00011" cy="5.99999" r="2.38293" stroke="#555152"/>
<path d="M13.5 6C13.5 6.82246 13.195 7.81456 12.6883 8.8704C12.1856 9.91774 11.5049 10.986 10.8006 11.9485C10.097 12.9103 9.3778 13.7558 8.80512 14.3572C8.51795 14.6587 8.27374 14.8925 8.09108 15.0471C8.05742 15.0756 8.02707 15.1003 8 15.1216C7.97293 15.1003 7.94258 15.0756 7.90892 15.0471C7.72626 14.8925 7.48205 14.6587 7.19488 14.3572C6.6222 13.7558 5.903 12.9103 5.19935 11.9485C4.4951 10.986 3.81438 9.91774 3.3117 8.8704C2.80495 7.81456 2.5 6.82246 2.5 6C2.5 4.26287 3.12283 2.89721 4.10219 1.96444C5.0853 1.02811 6.45747 0.5 8 0.5C9.54253 0.5 10.9147 1.02811 11.8978 1.96444C12.8772 2.89721 13.5 4.26287 13.5 6Z" stroke="#555152"/>
</svg>
