<svg width="24" height="24" viewBox="0 0 24 24" fill="none" xmlns="http://www.w3.org/2000/svg">
<path d="M21.215 3.84742C20.867 3.56122 20.3204 3.52027 19.7553 3.74032C19.161 3.97162 2.93026 10.7234 2.26956 10.9993C2.1494 11.0398 1.09989 11.4196 1.20799 12.2656C1.3045 13.0284 2.148 13.3442 2.25101 13.3807L6.37712 14.751C6.65086 15.6348 7.66 18.8955 7.88317 19.5921C8.02236 20.0263 8.24925 20.5969 8.64687 20.7144C8.99578 20.8449 9.34283 20.7256 9.56739 20.5546L12.09 18.2853L16.1623 21.3655L16.2593 21.4218C16.5358 21.5406 16.8007 21.6 17.0536 21.6C17.2489 21.6 17.4364 21.5644 17.6155 21.4933C18.2256 21.2503 18.4696 20.6865 18.4952 20.6226L21.537 5.28788C21.7226 4.46887 21.4646 4.05217 21.215 3.84742ZM10.0161 15.2991L8.62414 18.8991L7.23222 14.3991L17.9036 6.74903L10.0161 15.2991Z" fill="white" fill-opacity="0.4"/>
</svg>
