<svg width="208" height="64" viewBox="0 0 208 64" fill="none" xmlns="http://www.w3.org/2000/svg">
<path fill-rule="evenodd" clip-rule="evenodd" d="M25 41.0946H35.8944V40.3693H25V41.0946ZM25 39.9752L35.8944 40.0067V39.8018L25 39.8333V39.9752Z" fill="#D3AD4A"/>
<path fill-rule="evenodd" clip-rule="evenodd" d="M28.453 26.2753C28.453 26.2753 28.4215 25.7235 28.9103 25.1874C29.399 24.6356 31.0229 24.6356 31.7324 24.4307C32.4261 24.2257 32.4576 23.7054 32.4576 23.7054V21.5928C32.4576 21.5928 32.4419 22.0973 31.7324 22.318C31.0387 22.523 29.4148 22.523 28.9103 23.0748C28.4373 23.6108 28.453 24.1626 28.453 24.1626V26.2753Z" fill="#AB8B2F"/>
<path fill-rule="evenodd" clip-rule="evenodd" d="M32.4415 23.7208C32.4415 23.7208 32.473 23.169 32 22.6329C31.5113 22.0811 29.8874 22.0811 29.1936 21.8761C28.4999 21.6712 28.4526 21.1509 28.4526 21.1509V19.0225C28.4526 19.0225 28.4842 19.527 29.1936 19.7477C29.8874 19.9527 31.5113 19.9527 32 20.5045C32.473 21.0405 32.4415 21.5923 32.4415 21.5923V23.7208Z" fill="#D3AF4A"/>
<path fill-rule="evenodd" clip-rule="evenodd" d="M28.453 31.3984C28.453 31.3984 28.4215 30.8465 28.9103 30.3105C29.399 29.7587 31.0229 29.7587 31.7324 29.5537C32.4261 29.3488 32.4576 28.8285 32.4576 28.8285V26.7158C32.4576 26.7158 32.4419 27.2203 31.7324 27.4411C31.0387 27.646 29.4148 27.646 28.9103 28.1978C28.4373 28.7339 28.453 29.2857 28.453 29.2857V31.3984Z" fill="#AB8B2F"/>
<path fill-rule="evenodd" clip-rule="evenodd" d="M32.4415 28.829C32.4415 28.829 32.473 28.2772 32 27.7412C31.5113 27.1893 29.8874 27.1893 29.1936 26.9844C28.4999 26.7794 28.4526 26.2591 28.4526 26.2591V24.1465C28.4526 24.1465 28.4842 24.651 29.1936 24.8717C29.8874 25.0767 31.5113 25.0767 32 25.6285C32.473 26.1645 32.4415 26.7164 32.4415 26.7164V28.829Z" fill="#D3AF4A"/>
<path fill-rule="evenodd" clip-rule="evenodd" d="M28.453 36.5234C28.453 36.5234 28.4215 35.9715 28.9103 35.4355C29.399 34.8837 31.0229 34.8837 31.7324 34.6787C32.4261 34.4738 32.4576 33.9535 32.4576 33.9535V31.8408C32.4576 31.8408 32.4419 32.3453 31.7324 32.5661C31.0387 32.771 29.4148 32.771 28.9103 33.3228C28.4373 33.8589 28.453 34.4107 28.453 34.4107V36.5234Z" fill="#AB8B2F"/>
<path fill-rule="evenodd" clip-rule="evenodd" d="M32.4434 33.953C32.4434 33.953 32.4749 33.4012 32.002 32.8652C31.5132 32.3134 29.8893 32.3134 29.1956 32.1084C28.5019 31.9034 28.4546 31.3832 28.4546 31.3832V29.2705C28.4546 29.2705 28.4861 29.775 29.1956 29.9958C29.8893 30.2007 31.5132 30.2007 32.002 30.7525C32.4749 31.2886 32.4434 31.8404 32.4434 31.8404V33.953Z" fill="#D3AF4A"/>
<path fill-rule="evenodd" clip-rule="evenodd" d="M32.4434 39.0302C32.4434 39.0302 32.4749 38.4784 32.002 37.9423C31.5132 37.3905 29.8893 37.3905 29.1956 37.1856C28.5019 36.9806 28.4546 36.4603 28.4546 36.4603V34.3477C28.4546 34.3477 28.4861 34.8522 29.1956 35.0729C29.8893 35.2779 31.5132 35.2779 32.002 35.8297C32.4749 36.3657 32.4434 36.9175 32.4434 36.9175V39.0302Z" fill="#D3AF4A"/>
<path fill-rule="evenodd" clip-rule="evenodd" d="M30.4247 14.8127C30.3301 14.8757 30.2198 15.0649 30.1252 15.1911C30.0306 15.3172 29.9044 15.4118 29.9833 15.5694C30.0779 15.7586 30.3144 16.2947 30.4247 16.4366C30.5351 16.3104 30.7716 15.7744 30.8662 15.5694C30.945 15.396 30.8031 15.2857 30.7085 15.1595C30.6297 15.0649 30.5193 14.8757 30.4247 14.8127ZM32.1905 17.0672L32.8369 15.7429L32.1748 15.9005L32.1905 17.0672ZM28.722 17.0515V15.8848L28.0598 15.7429L28.722 17.0515ZM30.4563 13.1572C30.6927 13.7406 31.0554 14.5131 31.5599 15.0807C31.9383 15.5064 31.7648 15.396 31.4811 16.0267C31.3392 16.342 31.1342 16.7834 31.1657 17.1618C31.6387 17.1145 31.7491 16.1843 31.8121 15.7744C31.8594 15.5221 31.891 15.4591 32.1275 15.3802C32.9788 15.1122 32.9473 15.3487 33.7671 14.5289C33.8775 14.4185 33.909 14.387 33.9879 14.45C34.0825 14.6077 33.7198 15.1438 33.6252 15.3487C33.168 16.2947 32.632 17.1934 32.4743 18.2497H28.517C28.3594 17.2249 27.8076 16.2789 27.3661 15.3645C27.303 15.2541 26.7197 14.3397 27.0823 14.4343L27.7445 15.0176C28.3278 15.4591 29.0373 15.1122 29.1477 15.7271C29.2265 16.1528 29.3053 17.0988 29.7941 17.1461C29.8256 16.7677 29.6207 16.342 29.4788 16.0267C29.3999 15.8532 29.3211 15.7113 29.2423 15.5694C29.0846 15.3172 29.2423 15.2226 29.3684 15.0807C29.8414 14.5446 30.204 13.6775 30.4563 13.1572Z" fill="#D3AF4A"/>
<path d="M59.8921 13.5991C59.8921 13.6779 59.8133 13.8513 59.6556 14.1194C59.498 14.3874 59.2772 14.7973 59.025 15.3334C58.8989 15.6014 58.7727 15.8852 58.6308 16.1532C58.4889 16.4212 58.347 16.7208 58.2209 16.9888C58.079 17.2726 57.9529 17.5406 57.8425 17.7929C57.7322 18.0451 57.6218 18.2974 57.5272 18.5181C57.4168 18.7861 57.3065 19.0857 57.1646 19.4326C57.0227 19.7794 56.8966 20.1263 56.7862 20.4731C56.6601 20.82 56.5655 21.1353 56.4866 21.4191C56.4078 21.7029 56.3605 21.9078 56.3605 22.0497C56.3605 22.1759 56.392 22.2547 56.4551 22.2862C56.5182 22.302 56.597 22.3178 56.6601 22.3178C56.7389 22.3178 56.8335 22.302 56.9281 22.2547C57.0227 22.2074 57.1173 22.1759 57.1961 22.1286C57.2907 22.0655 57.3853 22.0024 57.4799 21.9394L57.606 22.2389C57.4957 22.3335 57.338 22.4596 57.1646 22.6015C56.9754 22.7434 56.7862 22.9011 56.5655 23.043C56.3447 23.1849 56.124 23.311 55.8875 23.4056C55.651 23.5002 55.4303 23.5633 55.2411 23.5633C55.1308 23.5633 55.0362 23.5475 54.9573 23.5002C54.8785 23.4529 54.847 23.3741 54.847 23.2322C54.847 23.1376 54.8785 22.9642 54.9573 22.6804C55.0362 22.4123 55.1623 22.034 55.3357 21.561C55.4776 21.1511 55.651 20.7096 55.8402 20.2366C56.0294 19.7636 56.2186 19.3064 56.4236 18.8492C56.6128 18.392 56.802 17.9663 56.9596 17.5722C57.1331 17.178 57.2592 16.8469 57.3853 16.5789L57.2907 16.5474C57.07 16.7681 56.865 17.0046 56.6601 17.2253C56.4551 17.4618 56.2028 17.7298 55.9191 18.0451C55.6353 18.3605 55.2726 18.7388 54.847 19.1803C54.4213 19.6217 53.8852 20.1578 53.2388 20.8042C52.955 21.088 52.7028 21.3403 52.482 21.561C52.2613 21.7817 52.0406 22.0024 51.8199 22.2074C51.5991 22.4123 51.3942 22.6015 51.1735 22.7907C50.9527 22.9799 50.7162 23.1691 50.4482 23.3583C50.3536 23.4371 50.2117 23.516 50.0225 23.5948C49.8333 23.6736 49.6599 23.7209 49.4707 23.7209C49.3288 23.7209 49.2185 23.6736 49.1712 23.5948C49.1081 23.516 49.0923 23.3898 49.0923 23.2164C49.0923 23.0745 49.1396 22.8538 49.2342 22.5542C49.3288 22.2547 49.4392 21.9078 49.5811 21.5452C49.723 21.1668 49.8649 20.7884 50.0383 20.3943C50.196 20.0001 50.3536 19.6375 50.4797 19.338C50.9212 18.3132 51.3311 17.3514 51.7095 16.4843C52.0879 15.6014 52.5136 14.7185 52.955 13.8356H52.892C52.7501 13.9775 52.5136 14.2455 52.1825 14.6239C51.8514 15.018 51.4415 15.4595 51 15.9955C50.5428 16.5158 50.0541 17.0834 49.518 17.6825C48.982 18.2816 48.4617 18.865 47.9414 19.4168C47.6576 19.7163 47.3581 20.0474 47.027 20.3943C46.6959 20.7411 46.3648 21.088 46.0022 21.4506C45.6553 21.7975 45.2927 22.1443 44.9301 22.4754C44.5675 22.8065 44.2048 23.1061 43.8738 23.3583C43.5269 23.6106 43.1958 23.8155 42.8805 23.9732C42.5652 24.1309 42.2814 24.2097 42.0291 24.2097C41.7138 24.2097 41.5404 24.052 41.5404 23.7367C41.5404 23.4529 41.635 23.1691 41.8399 22.9011C42.0449 22.6173 42.2814 22.3808 42.5652 22.2074H42.7386C42.7228 22.2547 42.7228 22.302 42.7228 22.3335C42.7228 22.3651 42.7228 22.4123 42.7228 22.4439C42.7228 22.4912 42.7228 22.5385 42.7386 22.6015C42.7544 22.6646 42.7701 22.7119 42.8016 22.775C42.8332 22.838 42.8962 22.8853 42.9593 22.9169C43.0224 22.9484 43.117 22.9799 43.2273 22.9799C43.3062 22.9799 43.385 22.9642 43.4954 22.9326C43.6057 22.9011 43.7319 22.838 43.8738 22.7434C44.0314 22.6488 44.2048 22.5227 44.4098 22.365C44.6148 22.2074 44.8512 21.9867 45.1193 21.7344C45.813 21.0565 46.4594 20.4101 47.09 19.7794C47.7207 19.1488 48.3198 18.5024 48.9031 17.8717C49.4865 17.2253 50.0541 16.5789 50.6216 15.9167C51.1892 15.2545 51.741 14.5608 52.3086 13.8356C52.0721 13.7883 51.8514 13.7568 51.6307 13.741C51.4099 13.7252 51.1262 13.7095 50.7635 13.7095C50.4482 13.7095 50.0068 13.7252 49.4865 13.741C48.9504 13.7568 48.3513 13.8513 47.6891 13.9932C47.027 14.1351 46.286 14.3559 45.4977 14.6554C44.7094 14.955 43.9053 15.3807 43.0697 15.9325C42.7544 16.1532 42.4706 16.3739 42.2025 16.5947C41.9345 16.8311 41.7138 17.0519 41.5246 17.2726C41.3354 17.4933 41.1935 17.714 41.0831 17.919C40.9728 18.124 40.9255 18.3132 40.9255 18.4866C40.9255 18.6127 40.957 18.6915 41.0358 18.7546C41.1147 18.8177 41.2093 18.8334 41.3196 18.8334C41.4458 18.8334 41.5561 18.8177 41.6665 18.7861C41.7769 18.7546 41.8872 18.7073 42.0291 18.6442V18.8334C41.8399 19.0699 41.6034 19.2434 41.2881 19.3537C40.9885 19.4641 40.7048 19.5271 40.4367 19.5271C39.9953 19.5271 39.7588 19.338 39.7588 18.9596C39.7588 18.6442 39.8849 18.3289 40.1214 17.9821C40.3737 17.6352 40.6732 17.3041 41.0358 16.9888C41.3985 16.6735 41.7926 16.3582 42.2025 16.0901C42.6125 15.8063 42.9908 15.5699 43.3219 15.3807C44.1891 14.8919 45.0404 14.4978 45.9076 14.214C46.7589 13.9302 47.563 13.7095 48.304 13.5676C49.045 13.4257 49.6914 13.3311 50.259 13.2838C50.8266 13.2522 51.2523 13.2207 51.5361 13.2207C51.9933 13.2207 52.3874 13.2365 52.7185 13.2522C53.0496 13.268 53.3334 13.2995 53.5699 13.3153C53.8379 13.3468 54.0744 13.3784 54.2794 13.3941C54.2006 13.5045 54.106 13.6937 53.9641 13.9617C53.8222 14.2297 53.6803 14.5135 53.5226 14.8446C53.3649 15.1757 53.1915 15.5383 53.0181 15.9167C52.8447 16.2951 52.687 16.6577 52.5293 17.0203C52.2456 17.6667 51.9933 18.2659 51.7568 18.8334C51.5203 19.401 51.3154 19.9055 51.1419 20.347C50.9685 20.7884 50.8424 21.1826 50.732 21.4979C50.6374 21.8132 50.5901 22.0497 50.5901 22.1916C50.5901 22.2389 50.5901 22.2705 50.6059 22.3178C50.6216 22.3493 50.6532 22.365 50.732 22.365C50.8266 22.365 51.0473 22.2232 51.41 21.9394C51.7726 21.6556 52.2456 21.2141 52.8604 20.615C52.9708 20.5046 53.1442 20.3155 53.4123 20.0474C53.6645 19.7794 53.9798 19.4641 54.3267 19.1015C54.6735 18.7388 55.0677 18.3289 55.4776 17.8717C55.8875 17.4303 56.2974 16.9573 56.7231 16.4843C57.1173 16.0428 57.4326 15.6329 57.6376 15.2861C57.8583 14.9392 58.0475 14.6397 58.2367 14.4032C58.4101 14.1667 58.552 14.009 58.6781 13.9144C58.7885 13.8198 58.9304 13.7568 59.1038 13.6937C59.2142 13.6622 59.3245 13.6306 59.4664 13.6306C59.6083 13.6149 59.6872 13.6149 59.7345 13.6149C59.8448 13.473 59.8921 13.5203 59.8921 13.5991Z" fill="#D3AF4A"/>
<path d="M77.1559 13.2838C77.1559 13.4257 77.0298 13.6464 76.7776 13.9144C76.5253 14.1825 76.0838 14.5293 75.4374 14.9708C74.8699 15.3492 74.3969 15.6645 74.0027 15.9167C73.6086 16.169 73.2459 16.3897 72.9464 16.5789C72.6311 16.7681 72.3473 16.9573 72.0793 17.115C71.8112 17.2726 71.5274 17.4776 71.2437 17.6825C71.354 17.9033 71.4959 18.2028 71.6378 18.6285C71.7797 19.0384 71.9216 19.4799 72.0793 19.9529C72.1896 20.2839 72.2842 20.6308 72.3946 20.9619C72.5049 21.293 72.6153 21.5925 72.7414 21.8606C72.8676 22.1286 72.9937 22.3335 73.1514 22.4912C73.2932 22.6489 73.4667 22.7435 73.6559 22.7435C73.8293 22.7435 74.0027 22.7119 74.1761 22.6331C74.3653 22.57 74.523 22.4597 74.6649 22.3493L74.791 22.507C74.7595 22.5543 74.6807 22.6331 74.5388 22.7592C74.3969 22.8854 74.2392 23.0115 74.0658 23.1376C73.8766 23.2637 73.6874 23.3899 73.4824 23.4845C73.2775 23.5948 73.0883 23.6421 72.8991 23.6421C72.6626 23.6421 72.4734 23.5791 72.3315 23.4372C72.1739 23.2953 72.0477 23.1061 71.9216 22.8696C71.7955 22.6331 71.6851 22.3493 71.5747 22.0182C71.4644 21.7029 71.354 21.3403 71.2121 20.9777C71.1491 20.8042 71.0702 20.5835 70.9914 20.2997C70.9126 20.0159 70.818 19.7321 70.7234 19.4326C70.6288 19.133 70.5342 18.865 70.4238 18.6285C70.3135 18.392 70.2189 18.2186 70.1243 18.124C69.9035 18.6285 69.6986 19.1173 69.4778 19.5902C69.3044 20.0002 69.1152 20.4258 68.8945 20.8831C68.6895 21.3403 68.5003 21.7344 68.3427 22.0655C68.2639 22.2547 68.185 22.4124 68.122 22.5385C68.0589 22.6646 67.9958 22.775 67.9328 22.8538C67.8697 22.9484 67.8066 23.0115 67.7593 23.0745C67.6963 23.1376 67.6332 23.1849 67.5702 23.2322C67.4283 23.3268 67.2706 23.4056 67.0814 23.4529C66.8922 23.516 66.7503 23.5318 66.6399 23.5318C66.5611 23.5318 66.4981 23.516 66.4823 23.4845C66.4665 23.4529 66.4508 23.4214 66.4508 23.3741C66.4508 23.3268 66.4823 23.2322 66.5611 23.0903C66.6399 22.9484 66.7503 22.7277 66.908 22.4281C67.1918 21.9079 67.4283 21.4349 67.6332 21.0407C67.8382 20.6308 68.0116 20.2524 68.185 19.874C68.3585 19.4956 68.5319 19.1173 68.6895 18.7389C68.863 18.3605 69.0522 17.919 69.2729 17.4145C69.4463 17.0361 69.604 16.642 69.7932 16.2163C69.9666 15.8064 70.1243 15.428 70.2819 15.0811C70.4238 14.7343 70.5499 14.4347 70.6445 14.1667C70.7391 13.9144 70.8022 13.741 70.8337 13.6622C70.7076 13.6464 70.5815 13.6464 70.4711 13.6306C70.3607 13.6149 70.2504 13.6149 70.14 13.5991C70.0297 13.5833 69.9193 13.5833 69.8247 13.5833C69.4306 13.5833 68.9733 13.5991 68.4373 13.6306C67.9012 13.6622 67.3179 13.741 66.6715 13.8829C66.0251 14.0248 65.3156 14.2455 64.5588 14.5451C63.802 14.8446 63.0137 15.2546 62.1939 15.7906C61.8786 16.0113 61.579 16.2321 61.311 16.4528C61.043 16.6893 60.8223 16.91 60.6331 17.1307C60.4439 17.3514 60.302 17.5722 60.2074 17.7771C60.1128 17.9821 60.0655 18.1713 60.0655 18.3447C60.0655 18.4235 60.097 18.5024 60.1443 18.5812C60.1916 18.66 60.302 18.7073 60.4754 18.7073C60.6173 18.7073 60.7277 18.6916 60.8223 18.66C60.9169 18.6285 61.043 18.5812 61.1849 18.5181V18.7073C60.9484 18.9438 60.6646 19.1173 60.365 19.2276C60.0655 19.338 59.7975 19.401 59.5925 19.401C59.151 19.401 58.9146 19.2118 58.9146 18.8335C58.9146 18.5497 59.0407 18.2501 59.2772 17.9033C59.5294 17.5564 59.829 17.2253 60.1916 16.8942C60.5542 16.5631 60.9484 16.2636 61.3583 15.964C61.7682 15.6645 62.1466 15.428 62.4777 15.2388C63.3448 14.75 64.1962 14.3717 65.0003 14.0721C65.8043 13.7883 66.5769 13.5676 67.3179 13.4257C68.0589 13.2838 68.7526 13.1892 69.4148 13.1419C70.077 13.0946 70.6918 13.0788 71.2437 13.0788C71.4328 13.0788 71.6378 13.0946 71.8585 13.1261C72.0793 13.1577 72.2369 13.1734 72.363 13.1892L70.2189 17.9033C70.5972 17.6352 70.9441 17.4145 71.2437 17.2096C71.5432 17.0046 71.8428 16.8154 72.1266 16.6262C72.4103 16.437 72.7099 16.2478 72.9937 16.0429C73.2775 15.8379 73.6243 15.6172 74.0027 15.3492C74.1762 15.2388 74.3338 15.1127 74.523 14.9708C74.6964 14.8289 74.8541 14.7027 75.0118 14.5608C75.1537 14.419 75.2798 14.2928 75.3744 14.1509C75.469 14.0248 75.5163 13.8987 75.5163 13.7883C75.5163 13.6779 75.469 13.6149 75.3744 13.5833C75.2798 13.5518 75.201 13.5203 75.1379 13.5203V13.4257C75.469 13.268 75.8001 13.1577 76.0996 13.0946C76.4149 13.0315 76.6357 13 76.7776 13C76.8564 13 76.951 13.0158 77.0298 13.0473C77.1087 13.0788 77.1559 13.1577 77.1559 13.2838Z" fill="#D3AF4A"/>
<path d="M58.5985 26.67C58.5985 26.8276 58.5354 26.9695 58.425 27.0957C58.2989 27.2218 58.1728 27.3164 58.0309 27.3952C57.8575 27.4898 57.684 27.5686 57.4633 27.6159L57.3845 27.5529C57.4002 27.5213 57.4002 27.4583 57.4002 27.3952C57.4002 27.206 57.3056 27.0168 57.1007 26.8276C56.8957 26.6542 56.6119 26.4965 56.2335 26.3547C55.8552 26.2128 55.3822 26.1024 54.8146 26.0236C54.247 25.9447 53.5848 25.8974 52.8438 25.8974C52.7808 25.9763 52.7177 26.0709 52.6704 26.1655C52.6231 26.2601 52.56 26.3704 52.5127 26.4965C52.4497 26.6227 52.3866 26.7646 52.3235 26.938C52.2447 27.0957 52.1659 27.2849 52.0713 27.5056C51.9767 27.7263 51.8348 28.0574 51.6456 28.5146C51.4564 28.9718 51.2357 29.5079 50.9677 30.107C50.7154 30.7219 50.4316 31.3683 50.1321 32.0778C49.8325 32.7872 49.5172 33.4809 49.2176 34.1904C49.0757 34.5057 48.9181 34.7895 48.7289 35.0575C48.5554 35.3256 48.3663 35.5148 48.1771 35.6567C48.114 35.704 48.0352 35.7513 47.9248 35.7986C47.8144 35.8459 47.7198 35.8931 47.6095 35.9247C47.4991 35.972 47.4045 36.0035 47.3099 36.0193C47.2153 36.035 47.1365 36.0508 47.0892 36.0508L46.9946 35.9404C47.0104 35.9089 47.0577 35.8301 47.105 35.7355C47.168 35.6251 47.2311 35.5148 47.3099 35.3729C47.3888 35.231 47.4676 35.0891 47.5622 34.9314C47.6568 34.7738 47.7356 34.6161 47.8144 34.49C48.0036 34.1589 48.2086 33.7647 48.4136 33.3075C48.6343 32.8661 48.855 32.3773 49.0757 31.8728C49.3122 31.3683 49.5487 30.8322 49.7852 30.2804C50.0375 29.7286 50.274 29.1768 50.5104 28.6407C50.7154 28.1835 50.9046 27.8051 51.0465 27.5056C51.2042 27.206 51.3303 26.9538 51.4564 26.7488C51.5825 26.5438 51.6771 26.3862 51.7717 26.2601C51.8663 26.1339 51.9609 26.0078 52.0555 25.8974H51.6614C51.1569 25.8974 50.5735 25.9132 49.9271 25.9605C49.2807 26.0078 48.5712 26.1024 47.8302 26.2443C47.0892 26.3862 46.3009 26.6069 45.4968 26.9065C44.677 27.1903 43.8729 27.5844 43.0373 28.0889C42.3751 28.4831 41.8548 28.9245 41.4607 29.3817C41.0823 29.839 40.8931 30.2646 40.8931 30.643C40.8931 30.8795 41.0192 30.9899 41.2873 30.9899C41.3976 30.9899 41.508 30.9741 41.6184 30.9426C41.7287 30.9111 41.8548 30.8638 41.9967 30.7849V30.9741C41.776 31.2106 41.508 31.384 41.1927 31.4944C40.8773 31.6048 40.6093 31.6678 40.4044 31.6678C40.1521 31.6678 39.9787 31.6048 39.8841 31.4944C39.7895 31.384 39.7422 31.2264 39.7422 31.0214C39.7422 30.7376 39.8683 30.4381 40.1048 30.107C40.3571 29.7759 40.6566 29.4448 41.0035 29.1295C41.3661 28.8142 41.7445 28.4988 42.1702 28.2308C42.5801 27.947 42.9742 27.7105 43.3053 27.5371C44.1409 27.0957 44.9765 26.733 45.8437 26.465C46.695 26.1812 47.5306 25.9605 48.3189 25.8028C49.1073 25.6452 49.8483 25.5348 50.5262 25.4717C51.2041 25.4087 51.7875 25.3772 52.2447 25.3772H52.4497L53.2222 24.8096H53.5375C53.4587 24.9199 53.3956 24.9988 53.3326 25.0934L53.1119 25.3772C53.774 25.3929 54.4204 25.4244 55.0669 25.4875C55.7133 25.5506 56.2966 25.6294 56.8169 25.7398C57.3372 25.8501 57.7629 25.992 58.0782 26.1497C58.4408 26.2758 58.5985 26.465 58.5985 26.67ZM55.7763 27.3006C55.666 27.5056 55.5398 27.7421 55.3979 28.0259C55.256 28.3096 55.0984 28.5934 54.9407 28.9088C54.7831 29.2083 54.6412 29.5236 54.4993 29.8232C54.3574 30.1228 54.247 30.4065 54.1524 30.643C54.0105 31.0057 53.8686 31.3683 53.7267 31.7467C53.5848 32.125 53.3956 32.5823 53.1749 33.1183C53.0961 33.3233 53.0015 33.5598 52.8911 33.8278C52.7808 34.0958 52.7335 34.3165 52.7335 34.5057C52.7335 34.6319 52.8123 34.6949 52.9542 34.6949C53.0488 34.6949 53.1434 34.6792 53.2538 34.6319C53.3641 34.5846 53.4587 34.553 53.5375 34.5057C53.6479 34.4427 53.7425 34.3796 53.8213 34.3165L53.9475 34.6161C53.8371 34.7107 53.6794 34.8211 53.506 34.9629C53.3168 35.1048 53.1276 35.231 52.9227 35.3571C52.7177 35.4832 52.497 35.5936 52.2762 35.6882C52.0555 35.7828 51.8506 35.8301 51.6456 35.8301C51.4406 35.8301 51.346 35.704 51.346 35.4359C51.346 35.3571 51.3618 35.231 51.3933 35.0733C51.4249 34.9157 51.4722 34.7422 51.5352 34.5688C51.5983 34.3796 51.6771 34.1904 51.756 33.9854C51.8348 33.7805 51.9294 33.5755 52.0082 33.3706C52.0555 33.2444 52.1501 33.0237 52.2605 32.7399C52.3866 32.4561 52.5127 32.125 52.6704 31.7467C52.8281 31.3683 52.9857 30.9741 53.1749 30.5642C53.3483 30.1543 53.5375 29.7601 53.7267 29.3975C53.9159 29.0349 54.0893 28.7038 54.2628 28.4042C54.4362 28.1047 54.5939 27.8997 54.72 27.7736C54.925 27.5686 55.1142 27.4425 55.2718 27.3952C55.4295 27.3479 55.5398 27.3321 55.6344 27.3321H55.6817H55.7133H55.7763V27.3006Z" fill="#D3AF4A"/>
<path d="M63.0929 30.3892C63.0929 30.8464 63.014 31.3036 62.8722 31.7766C62.7145 32.2338 62.478 32.7068 62.1469 33.164C61.9735 33.4005 61.7528 33.6843 61.469 33.9996C61.2009 34.315 60.8856 34.6145 60.5388 34.8826C60.1919 35.1506 59.7978 35.3871 59.3721 35.5763C58.9464 35.7655 58.5049 35.86 58.0162 35.86C57.8585 35.86 57.7009 35.86 57.5274 35.8443C57.354 35.8285 57.2279 35.8285 57.1175 35.797C57.0072 36.0335 56.8968 36.333 56.7707 36.6641C56.6445 36.9952 56.4869 37.3894 56.3292 37.8308C55.9508 38.8083 55.6986 39.5178 55.5724 39.9277C55.5567 40.0381 55.5409 40.1484 55.5251 40.243C55.5094 40.3534 55.5094 40.4007 55.5094 40.4322C55.4305 40.6529 55.2414 40.8421 54.9576 41.0156C54.658 41.2048 54.39 41.3151 54.1535 41.3151C53.9958 41.3151 53.917 41.2363 53.917 41.0629C53.917 40.984 53.9485 40.8264 54.0116 40.6214C54.0747 40.4165 54.185 40.1327 54.3269 39.7858L56.2504 35.3871C56.14 35.1348 56.077 34.8983 56.077 34.6618C56.077 34.583 56.077 34.5357 56.077 34.4884C56.077 34.4411 56.0927 34.4096 56.0927 34.3623L56.5184 34.5357L57.8428 31.5559C58.1108 30.941 58.2527 30.5469 58.2527 30.3577C58.2527 30.2788 58.2054 30.2315 58.1265 30.2315C58.0477 30.2315 57.9216 30.2631 57.7166 30.3419C57.5117 30.4207 57.2437 30.5469 56.881 30.7518L56.7864 30.4838C56.9599 30.3892 57.1806 30.2788 57.4328 30.1527C57.6851 30.0266 57.9531 29.9005 58.2211 29.7743C58.4892 29.664 58.7572 29.5536 58.9937 29.4748C59.2459 29.3959 59.4351 29.3486 59.577 29.3486C59.7032 29.3486 59.7662 29.4117 59.7662 29.5378C59.7662 29.6009 59.6874 29.8216 59.514 30.2C59.3405 30.5942 59.1198 31.0514 58.836 31.5874L58.9149 31.6032C59.0883 31.4298 59.2617 31.2406 59.4509 31.0356C59.6401 30.8307 59.8451 30.6257 60.0658 30.4207C60.2865 30.2158 60.5072 30.0266 60.7595 29.8532C60.996 29.664 61.2482 29.5221 61.532 29.3959C61.7528 29.2856 61.9892 29.2383 62.273 29.2383C62.5253 29.2383 62.7145 29.3171 62.8722 29.4905C63.0298 29.7113 63.0929 29.9951 63.0929 30.3892ZM61.7528 30.9568C61.7528 30.7203 61.7212 30.5311 61.6739 30.4207C61.6109 30.3104 61.5163 30.2473 61.3586 30.2473C61.1379 30.2473 60.8856 30.3419 60.6176 30.5469C60.3338 30.7518 60.0658 31.0041 59.782 31.3036C59.4982 31.619 59.2144 31.9501 58.9464 32.3284C58.6626 32.7068 58.4261 33.0694 58.2054 33.4321C58.0162 33.7316 57.8743 34.0154 57.7482 34.2677C57.6378 34.5199 57.5432 34.7564 57.4644 34.9771C57.7955 35.1821 58.2054 35.2925 58.6626 35.2925C59.0568 35.2925 59.4351 35.1663 59.782 34.8983C60.0815 34.6776 60.3496 34.4253 60.6018 34.11C60.8383 33.7947 61.0433 33.4794 61.2167 33.1167C61.3901 32.7699 61.5163 32.4073 61.6109 32.0289C61.7055 31.682 61.7528 31.3194 61.7528 30.9568Z" fill="#D3AF4A"/>
<path d="M70.6118 29.8695C70.4699 29.9956 70.3438 30.1375 70.2176 30.3267C70.0915 30.5159 69.9654 30.7208 69.8393 30.9573C69.7604 31.1308 69.6658 31.3199 69.5555 31.5564C69.4451 31.7929 69.319 32.061 69.1929 32.3605C69.051 32.6601 68.9406 32.9123 68.8618 33.1173C68.7829 33.3222 68.7041 33.4957 68.6568 33.6218C68.4834 34.0475 68.4045 34.3155 68.4045 34.4416C68.4045 34.5835 68.4834 34.6466 68.641 34.6466C68.846 34.6466 69.051 34.5835 69.2874 34.4416C69.5239 34.2997 69.7604 34.1579 69.9969 34.0002L70.1231 34.2997C69.8866 34.4732 69.6501 34.6466 69.4136 34.82C69.1613 34.9935 68.9248 35.1669 68.6726 35.3088C68.4203 35.4507 68.1838 35.5768 67.9473 35.6714C67.7108 35.766 67.5059 35.8133 67.3167 35.8133C67.0802 35.8133 66.9541 35.7029 66.9541 35.4822C66.9541 35.2457 67.0802 34.8358 67.3167 34.284L67.7266 33.3222H67.6162C67.2063 33.7637 66.8279 34.1421 66.4968 34.4574C66.1658 34.7727 65.8662 35.0408 65.5824 35.2299C65.2986 35.4349 65.0464 35.5768 64.8099 35.6714C64.5734 35.766 64.3369 35.8133 64.0846 35.8133C63.5328 35.8133 63.249 35.4822 63.249 34.8358C63.249 34.5205 63.2963 34.2051 63.4067 33.8741C63.517 33.5587 63.6589 33.2434 63.8324 32.9439C64.0058 32.6443 64.2108 32.3605 64.463 32.0767C64.6995 31.7929 64.9675 31.5407 65.2513 31.2884C65.5351 31.0362 65.8662 30.7997 66.1973 30.5632C66.5441 30.3267 66.9068 30.1375 67.2852 29.9641C67.6635 29.7906 68.0735 29.6487 68.4676 29.5541C68.8775 29.4438 69.2874 29.3965 69.6974 29.3965C69.8866 29.3965 70.0758 29.428 70.2807 29.5068C70.4857 29.5699 70.5803 29.6803 70.5803 29.8379V29.8695H70.6118ZM69.5239 30.106C69.4451 30.0429 69.319 29.9956 69.1613 29.9798C69.0037 29.9641 68.846 29.9483 68.7199 29.9483C68.3888 29.9483 68.0577 30.0271 67.7108 30.2006C67.3797 30.374 67.0487 30.5789 66.7491 30.8312C66.4495 31.0835 66.1658 31.3515 65.9135 31.651C65.6612 31.9506 65.4563 32.2344 65.2986 32.4866C65.0937 32.865 64.9202 33.1961 64.7941 33.5114C64.668 33.8268 64.6049 34.0948 64.6049 34.3155C64.6049 34.5047 64.6364 34.6466 64.7153 34.7254C64.7941 34.8043 64.9045 34.8358 65.0621 34.8358C65.2829 34.8358 65.5351 34.7254 65.8347 34.5205C66.1185 34.3155 66.418 34.079 66.7018 33.7952C66.9856 33.5114 67.2536 33.2276 67.5059 32.9281C67.7581 32.6285 67.9316 32.392 68.0419 32.2029C68.1523 32.0294 68.2784 31.8087 68.4203 31.5249C68.4991 31.3515 68.578 31.1781 68.6568 31.0204C68.7356 30.8627 68.846 30.6893 68.9879 30.5316C69.1613 30.3582 69.3505 30.2006 69.5239 30.106Z" fill="#D3AF4A"/>
<path d="M79.2846 25.8184C79.2846 26.2441 79.0166 26.7959 78.4647 27.4581C78.2913 27.6631 78.0706 27.8996 77.7868 28.1518C77.5188 28.4041 77.2192 28.6563 76.8881 28.9244C76.557 29.1924 76.2102 29.4604 75.8476 29.7127C75.485 29.9807 75.1066 30.2172 74.7439 30.4221V30.4852C74.9962 30.4221 75.2327 30.3906 75.4534 30.3591C75.6741 30.3433 75.8633 30.3275 76.0368 30.3275C76.3206 30.3275 76.5728 30.3906 76.7778 30.5167C76.9827 30.6429 77.0773 30.8793 77.0773 31.2262C77.0773 31.4627 77.03 31.715 76.9197 31.983C76.8093 32.251 76.6674 32.5348 76.494 32.8028C76.3048 33.0866 76.0998 33.3546 75.8633 33.6384C75.6268 33.9064 75.3746 34.1745 75.0908 34.4267C74.5548 34.9155 74.0345 35.2623 73.53 35.4673C73.0254 35.6722 72.5682 35.7826 72.1741 35.7826C71.9376 35.7826 71.7484 35.7353 71.6065 35.6565C71.4646 35.5777 71.37 35.4673 71.3069 35.3569C71.2439 35.2466 71.1966 35.1204 71.1808 34.9785C71.165 34.8366 71.165 34.7263 71.165 34.6159C71.165 34.206 71.2439 33.7645 71.4015 33.2916C71.5592 32.8186 71.7484 32.3298 71.9691 31.8253C72.1583 31.3996 72.3948 30.9424 72.6944 30.4537C72.9781 29.9649 73.3092 29.4604 73.6719 28.9717C74.0345 28.4829 74.4286 27.9942 74.8228 27.5369C75.2327 27.0797 75.6426 26.6698 76.0525 26.3229C76.4625 25.9603 76.8881 25.6765 77.2823 25.4716C77.6922 25.2508 78.0706 25.1562 78.4332 25.1562C78.7012 25.1562 78.9062 25.2035 79.0481 25.2981C79.2215 25.4085 79.2846 25.5819 79.2846 25.8184ZM77.976 26.4964C77.976 26.2126 77.8183 26.0549 77.5188 26.0549C77.2508 26.0549 76.9827 26.1495 76.7147 26.3229C76.4309 26.4964 76.1629 26.7329 75.8949 27.0167C75.6268 27.3004 75.3588 27.6158 75.1066 27.9784C74.8543 28.341 74.6178 28.6879 74.4129 29.0505C74.1921 29.4131 74.0029 29.76 73.8295 30.0753C73.6561 30.4064 73.53 30.6744 73.4354 30.8951C73.3092 31.1631 73.1831 31.4469 73.0727 31.7465C72.9624 32.046 72.852 32.3456 72.7732 32.6294C72.6786 32.9289 72.6155 33.197 72.5525 33.465C72.4894 33.733 72.4736 33.9695 72.4736 34.1745C72.4736 34.411 72.5209 34.6159 72.6155 34.7893C72.7101 34.9628 72.8835 35.0416 73.1673 35.0416C73.4038 35.0416 73.6246 34.9785 73.8768 34.8524C74.1133 34.7263 74.3813 34.5371 74.6809 34.2533C75.0277 33.9222 75.3273 33.5123 75.5638 33.0551C75.8003 32.5821 75.9106 32.1406 75.9106 31.715C75.9106 31.6204 75.9106 31.51 75.8949 31.3996C75.8791 31.2893 75.8476 31.1789 75.8003 31.0685C75.7372 30.9582 75.6584 30.8794 75.5323 30.8163C75.4061 30.7532 75.2327 30.7217 74.9962 30.7217C74.7282 30.7217 74.5075 30.7532 74.3025 30.8163C74.0975 30.8794 73.9714 30.9266 73.9241 30.9424V30.564C74.1921 30.4064 74.5548 30.1699 75.012 29.8703C75.4692 29.5708 75.9264 29.2239 76.3679 28.8455C76.8093 28.4671 77.1877 28.073 77.5188 27.6631C77.8183 27.2689 77.976 26.8748 77.976 26.4964Z" fill="#D3AF4A"/>
<path d="M83.8884 30.6581C83.8884 31.2256 83.7622 31.7774 83.4942 32.3135C83.2262 32.8653 82.8951 33.3698 82.5009 33.8428C81.9018 34.5365 81.3185 35.041 80.7509 35.3564C80.1675 35.6717 79.5684 35.8293 78.9536 35.8293C77.9761 35.8293 77.4873 35.3406 77.4873 34.3789C77.4873 34.0162 77.5504 33.6536 77.6923 33.2595C77.8342 32.8653 78.0076 32.4869 78.2441 32.1243C78.4806 31.7617 78.7644 31.3991 79.0797 31.068C79.395 30.7369 79.7576 30.4373 80.1202 30.1851C80.4986 29.9328 80.8928 29.7279 81.3027 29.586C81.7126 29.4441 82.1383 29.3652 82.564 29.3652C82.9897 29.3652 83.3208 29.4756 83.5573 29.7121C83.7622 29.9486 83.8884 30.2639 83.8884 30.6581ZM82.5955 31.1783C82.5955 30.7527 82.5325 30.4689 82.3906 30.2954C82.2487 30.1378 82.028 30.0432 81.6811 30.0432C80.9243 30.0432 80.2621 30.4846 79.6473 31.3833C79.0324 32.2662 78.7328 33.1964 78.7328 34.1739C78.7328 34.4892 78.8117 34.7257 78.9536 34.9307C79.0955 35.1199 79.3319 35.2145 79.6788 35.2145C79.9626 35.2145 80.2306 35.1356 80.4829 34.9937C80.7351 34.8518 80.9716 34.6626 81.1923 34.4262C81.4131 34.1897 81.6023 33.9216 81.7757 33.6379C81.9491 33.3383 82.091 33.0545 82.2171 32.7549C82.3433 32.4554 82.4379 32.1716 82.5009 31.8878C82.564 31.6198 82.5955 31.3833 82.5955 31.1783Z" fill="#D3AF4A"/>
<path d="M92.495 25.8184C92.495 26.2441 92.227 26.7959 91.6752 27.4581C91.5018 27.6631 91.281 27.8996 90.9973 28.1518C90.7292 28.4041 90.4297 28.6563 90.0986 28.9244C89.7675 29.1924 89.4206 29.4604 89.058 29.7127C88.6954 29.9807 88.317 30.2172 87.9544 30.4221V30.4852C88.2067 30.4221 88.4431 30.3906 88.6639 30.3591C88.8846 30.3433 89.0738 30.3275 89.2472 30.3275C89.531 30.3275 89.7833 30.3906 89.9882 30.5167C90.1932 30.6429 90.2878 30.8793 90.2878 31.2262C90.2878 31.4627 90.2405 31.715 90.1301 31.983C90.0198 32.251 89.8779 32.5348 89.7044 32.8028C89.5152 33.0866 89.3103 33.3546 89.0738 33.6384C88.8373 33.9064 88.585 34.1745 88.3013 34.4267C87.7652 34.9155 87.2449 35.2623 86.7404 35.4673C86.2359 35.6722 85.7787 35.7826 85.3845 35.7826C85.148 35.7826 84.9588 35.7353 84.8169 35.6565C84.675 35.5777 84.5805 35.4673 84.5174 35.3569C84.4543 35.2466 84.407 35.1204 84.3913 34.9785C84.3755 34.8366 84.3755 34.7263 84.3755 34.6159C84.3755 34.206 84.4543 33.7645 84.612 33.2916C84.7696 32.8186 84.9588 32.3298 85.1796 31.8253C85.3688 31.3996 85.6052 30.9424 85.9048 30.4537C86.1886 29.9649 86.5197 29.4604 86.8823 28.9717C87.2449 28.4829 87.6391 27.9942 88.0332 27.5369C88.4431 27.0797 88.8531 26.6698 89.263 26.3229C89.6729 25.9603 90.0986 25.6765 90.4927 25.4716C90.9027 25.2508 91.2811 25.1562 91.6437 25.1562C91.9117 25.1562 92.1167 25.2035 92.2585 25.2981C92.4162 25.4085 92.495 25.5819 92.495 25.8184ZM91.1707 26.4964C91.1707 26.2126 91.013 26.0549 90.7135 26.0549C90.4454 26.0549 90.1774 26.1495 89.9094 26.3229C89.6256 26.4964 89.3576 26.7329 89.0896 27.0167C88.8215 27.3004 88.5535 27.6158 88.3013 27.9784C88.049 28.341 87.8125 28.6879 87.6075 29.0505C87.3868 29.4131 87.1976 29.76 87.0242 30.0753C86.8508 30.4064 86.7246 30.6744 86.63 30.8951C86.5039 31.1631 86.3778 31.4469 86.2674 31.7465C86.1571 32.046 86.0467 32.3456 85.9679 32.6294C85.8733 32.9289 85.8102 33.197 85.7471 33.465C85.6841 33.733 85.6683 33.9695 85.6683 34.1745C85.6683 34.411 85.7156 34.6159 85.8102 34.7893C85.9048 34.9628 86.0782 35.0416 86.362 35.0416C86.5985 35.0416 86.8192 34.9785 87.0715 34.8524C87.308 34.7263 87.576 34.5371 87.8756 34.2533C88.2224 33.9222 88.522 33.5123 88.7585 33.0551C88.995 32.5821 89.1053 32.1406 89.1053 31.715C89.1053 31.6204 89.1053 31.51 89.0896 31.3996C89.0738 31.2893 89.0423 31.1789 88.995 31.0685C88.9319 30.9582 88.8531 30.8794 88.7269 30.8163C88.6008 30.7532 88.4274 30.7217 88.1909 30.7217C87.9229 30.7217 87.7021 30.7532 87.4972 30.8163C87.2922 30.8794 87.1661 30.9266 87.1188 30.9424V30.564C87.3868 30.4064 87.7494 30.1699 88.2067 29.8703C88.6639 29.5708 89.1211 29.2239 89.5625 28.8455C90.004 28.4671 90.3824 28.073 90.7135 27.6631C91.013 27.2689 91.1707 26.8748 91.1707 26.4964Z" fill="#D3AF4A"/>
<path d="M96.295 32.2662C96.295 32.5027 96.2162 32.7865 96.0743 33.1333C95.9324 33.4802 95.6959 33.8113 95.3806 34.1424C95.2702 34.2685 95.1284 34.3946 94.9549 34.5365C94.7815 34.6784 94.5923 34.8203 94.4031 34.9464C94.1982 35.0883 93.9932 35.1987 93.7725 35.3248C93.5517 35.451 93.3468 35.514 93.1261 35.5771C92.795 35.6874 92.5112 35.7505 92.2905 35.7663C92.0697 35.782 91.8648 35.7978 91.644 35.7978C91.376 35.7978 91.2026 35.7347 91.0922 35.6244C90.9819 35.514 90.9346 35.3721 90.9346 35.246C90.9346 35.0883 90.9661 34.8991 91.0449 34.6784C91.1238 34.4577 91.2341 34.1739 91.3918 33.827C91.4706 33.6536 91.5652 33.4329 91.6756 33.1649C91.8017 32.8968 91.9121 32.6131 92.0382 32.3135C92.1643 32.0139 92.2905 31.7301 92.4008 31.4621C92.5112 31.1941 92.6058 30.9734 92.6688 30.7842C92.7004 30.7054 92.7319 30.6265 92.7477 30.5477C92.7792 30.4846 92.7792 30.4216 92.7792 30.3585C92.7792 30.2797 92.7319 30.2324 92.6531 30.2324C92.5742 30.2324 92.4639 30.2639 92.322 30.3112C92.1801 30.3743 92.0382 30.4216 91.9121 30.5004C91.7386 30.5792 91.581 30.6581 91.4076 30.7527L91.313 30.4846C91.4391 30.4058 91.5967 30.327 91.8017 30.2166C92.0067 30.1062 92.2116 30.0116 92.4324 29.917C92.6531 29.8225 92.858 29.7279 93.0472 29.649C93.2364 29.5702 93.3941 29.5071 93.5044 29.4756C93.7252 29.3968 93.9144 29.3652 94.072 29.3652C94.1193 29.3652 94.1666 29.381 94.1981 29.3968C94.2297 29.4125 94.2455 29.4756 94.2455 29.5702C94.2455 29.586 94.2297 29.6333 94.1981 29.7279C94.1666 29.8224 94.1193 29.917 94.072 30.0274C94.0247 30.1378 93.9617 30.2639 93.9144 30.4058C93.8513 30.5319 93.804 30.6581 93.7725 30.7684C93.6936 30.9261 93.6306 31.0995 93.5517 31.2729C93.4729 31.4464 93.3783 31.6513 93.2837 31.872C93.599 31.7144 93.9301 31.5883 94.2612 31.4779C94.5923 31.3675 94.9076 31.3202 95.2072 31.3202C95.6013 31.3202 95.8694 31.3991 96.027 31.541C96.2162 31.6829 96.295 31.9351 96.295 32.2662ZM95.0653 32.6131C95.0653 32.4712 95.0495 32.345 95.0022 32.2504C94.9549 32.1558 94.9076 32.0928 94.8446 32.0612C94.7815 32.0139 94.7027 31.9982 94.6238 31.9824C94.545 31.9666 94.4504 31.9666 94.3558 31.9666C94.1824 31.9666 93.9774 31.9982 93.7567 32.077C93.536 32.1558 93.3468 32.2347 93.1576 32.3293C93.063 32.55 92.9684 32.7707 92.858 33.0072C92.7477 33.2437 92.6531 33.4644 92.5585 33.7009C92.4639 33.9374 92.385 34.1424 92.3377 34.3316C92.2747 34.5208 92.2589 34.6942 92.2589 34.8203C92.2589 34.9464 92.2905 35.041 92.3535 35.1041C92.4166 35.1672 92.5427 35.1987 92.7319 35.1987C92.9842 35.1987 93.268 35.1356 93.536 34.9937C93.804 34.8518 94.072 34.6784 94.2928 34.4419C94.5292 34.2054 94.7027 33.9374 94.8603 33.6221C94.9865 33.3225 95.0653 32.9757 95.0653 32.6131ZM99.6059 29.5071C99.6059 29.5702 99.464 29.8855 99.1802 30.4531C98.8965 31.0364 98.5181 31.9036 98.0293 33.086C97.9663 33.2279 97.9032 33.3698 97.8401 33.5117C97.7771 33.6536 97.714 33.7955 97.6667 33.9216C97.6194 34.0478 97.5721 34.1581 97.5406 34.2685C97.509 34.3789 97.4933 34.4577 97.4933 34.5208C97.4933 34.6154 97.509 34.6626 97.5406 34.6942C97.5721 34.7099 97.6194 34.7257 97.6982 34.7257C97.7771 34.7257 97.9032 34.6942 98.0451 34.6153C98.187 34.5365 98.3289 34.4577 98.4865 34.3631C98.66 34.2527 98.8176 34.1424 99.0068 34.0005L99.133 34.3C99.0226 34.3946 98.8492 34.5208 98.6284 34.6942C98.4077 34.8676 98.1712 35.041 97.9032 35.1987C97.6509 35.3721 97.3829 35.514 97.1149 35.6401C96.8469 35.7663 96.6104 35.8293 96.4212 35.8293C96.2793 35.8293 96.2004 35.7978 96.1532 35.7347C96.1059 35.6717 96.0901 35.6086 96.0901 35.514C96.0901 35.4194 96.1216 35.2933 96.1847 35.0883C96.2477 34.8834 96.3266 34.6626 96.4369 34.3946C96.5473 34.1266 96.6577 33.8586 96.7838 33.559C96.9099 33.2595 97.0361 32.9757 97.1622 32.6761C97.2883 32.3923 97.3987 32.1243 97.509 31.872C97.6194 31.6198 97.6982 31.4148 97.7771 31.2572C97.919 30.9261 98.0766 30.595 98.2343 30.2954C98.3919 29.9801 98.5496 29.7752 98.7073 29.6806C98.8807 29.5702 99.0068 29.5071 99.133 29.4598C99.2433 29.4125 99.3694 29.3968 99.4798 29.3968C99.5113 29.3968 99.5429 29.3968 99.5744 29.4125C99.5902 29.3968 99.6059 29.4441 99.6059 29.5071Z" fill="#D3AF4A"/>
<path d="M105.755 29.8541C105.755 30.0433 105.692 30.2325 105.55 30.4375C105.408 30.6424 105.25 30.8316 105.045 31.0208C104.84 31.21 104.635 31.3834 104.414 31.5411C104.194 31.6988 104.005 31.8407 103.831 31.951C103.468 32.1875 103.09 32.4082 102.68 32.5974C102.286 32.7866 101.845 32.9443 101.372 33.0546C101.324 33.1808 101.293 33.3227 101.277 33.4488C101.261 33.5907 101.245 33.6695 101.245 33.7168C101.245 34.2056 101.356 34.5524 101.577 34.7732C101.797 34.9939 102.128 35.0885 102.554 35.0885C102.932 35.0885 103.311 34.9939 103.689 34.8205C104.068 34.6313 104.414 34.4578 104.714 34.2686L104.84 34.4736C104.667 34.6155 104.446 34.7732 104.209 34.9308C103.957 35.0885 103.705 35.2304 103.421 35.3723C103.137 35.5142 102.854 35.6245 102.57 35.7034C102.286 35.7822 101.986 35.8295 101.703 35.8295C101.167 35.8295 100.741 35.7034 100.426 35.4511C100.11 35.1988 99.9526 34.8047 99.9526 34.2686C99.9526 33.1335 100.457 32.0929 101.482 31.1154C101.703 30.9105 101.955 30.7055 102.239 30.4848C102.523 30.264 102.806 30.0906 103.122 29.9172C103.421 29.7438 103.752 29.6176 104.068 29.5073C104.399 29.3969 104.714 29.3496 105.045 29.3496C105.518 29.3811 105.755 29.5388 105.755 29.8541ZM104.43 30.4059C104.43 30.1852 104.288 30.0906 104.02 30.0906C103.815 30.0906 103.595 30.1694 103.342 30.3113C103.106 30.4532 102.869 30.6582 102.649 30.8789C102.428 31.1154 102.223 31.3677 102.034 31.6672C101.845 31.951 101.703 32.2506 101.608 32.5344C101.876 32.4871 102.176 32.3925 102.507 32.2663C102.838 32.1244 103.137 31.9668 103.421 31.7618C103.705 31.5726 103.941 31.3519 104.131 31.1154C104.336 30.8789 104.43 30.6424 104.43 30.4059Z" fill="#D3AF4A"/>
<path d="M120.859 29.7275C120.859 29.8379 120.828 29.9798 120.78 30.169C120.733 30.3424 120.67 30.5316 120.591 30.7366C120.512 30.9415 120.433 31.1465 120.355 31.3515C120.276 31.5564 120.197 31.7298 120.118 31.8875L119.598 33.0542C119.551 33.1488 119.503 33.2592 119.44 33.401C119.377 33.5429 119.314 33.6848 119.267 33.8267C119.204 33.9686 119.156 34.1105 119.125 34.2367C119.078 34.3628 119.062 34.4574 119.062 34.5204C119.062 34.6466 119.125 34.7096 119.267 34.7096C119.346 34.7096 119.44 34.6781 119.551 34.6308C119.677 34.5835 119.834 34.4889 120.039 34.347L120.56 33.9844L120.686 34.2839C120.024 34.82 119.487 35.2141 119.046 35.4506C118.605 35.7029 118.258 35.829 117.99 35.829C117.769 35.829 117.659 35.7187 117.659 35.5137C117.659 35.4349 117.674 35.3245 117.722 35.1826C117.769 35.0407 117.816 34.8831 117.864 34.7254C117.927 34.5677 117.99 34.3943 118.053 34.2209C118.116 34.0475 118.179 33.9056 118.242 33.7637L118.794 32.4393C118.967 32.0136 119.109 31.651 119.204 31.383C119.298 31.115 119.346 30.9258 119.346 30.8627C119.346 30.7366 119.283 30.6735 119.172 30.6735C118.983 30.6735 118.778 30.7366 118.542 30.8785C118.305 31.0204 118.084 31.1938 117.848 31.3988C117.611 31.6037 117.375 31.8402 117.138 32.1082C116.902 32.3762 116.681 32.6285 116.492 32.8808C116.287 33.133 116.129 33.3695 115.972 33.5902C115.83 33.811 115.719 33.9844 115.656 34.1105L115.357 34.7096C115.309 34.7885 115.294 34.8515 115.278 34.8988C115.262 34.9461 115.231 34.9934 115.199 35.025L114.915 35.3087C114.742 35.4822 114.584 35.5925 114.458 35.6714C114.332 35.7344 114.206 35.7817 114.111 35.7817C113.985 35.7817 113.922 35.7187 113.922 35.5925C113.922 35.4822 113.985 35.3087 114.095 35.0565C114.206 34.8042 114.348 34.5204 114.505 34.1894L114.9 33.3695C115.246 32.597 115.514 31.9821 115.672 31.5249C115.83 31.0677 115.909 30.7839 115.909 30.6893C115.909 30.6104 115.877 30.5631 115.798 30.5631C115.625 30.5631 115.42 30.6262 115.183 30.7681C114.947 30.91 114.695 31.0834 114.442 31.3199C114.174 31.5406 113.922 31.7929 113.67 32.0767C113.418 32.3447 113.181 32.6285 112.96 32.8965C112.74 33.1646 112.55 33.401 112.393 33.6375C112.235 33.8583 112.125 34.0317 112.062 34.1736L111.794 34.7412C111.746 34.82 111.731 34.8831 111.715 34.9304C111.699 34.9777 111.667 35.025 111.636 35.0565L111.352 35.3403C111.179 35.5137 111.021 35.6241 110.895 35.7029C110.769 35.766 110.643 35.8133 110.548 35.8133C110.422 35.8133 110.359 35.7502 110.359 35.6241C110.359 35.561 110.406 35.4349 110.485 35.2457C110.564 35.0565 110.658 34.8515 110.769 34.6466L111.573 32.9281C111.825 32.3605 112.046 31.856 112.204 31.3988C112.361 30.9415 112.44 30.6104 112.44 30.4213C112.44 30.3109 112.408 30.2636 112.33 30.2636C112.251 30.2636 112.125 30.2951 111.951 30.3582C111.762 30.4213 111.478 30.5631 111.084 30.7839L110.99 30.5158C111.131 30.437 111.336 30.3267 111.573 30.2005C111.825 30.0744 112.077 29.9483 112.345 29.8221C112.613 29.696 112.881 29.6014 113.134 29.5068C113.402 29.428 113.607 29.3807 113.796 29.3807C113.922 29.3807 113.985 29.4438 113.985 29.5699C113.985 29.6172 113.954 29.7433 113.891 29.9483C113.827 30.1532 113.717 30.4213 113.575 30.7681L112.866 32.3605L112.976 32.392C113.354 31.9821 113.733 31.5879 114.127 31.2253C114.521 30.8627 114.9 30.5474 115.262 30.2636C115.625 29.9956 115.972 29.7748 116.287 29.6172C116.602 29.4595 116.886 29.3807 117.123 29.3807C117.249 29.3807 117.328 29.4122 117.375 29.4753C117.422 29.5383 117.438 29.6172 117.438 29.7275C117.438 29.9956 117.28 30.5001 116.949 31.2884L116.539 32.2817C117.012 31.8402 117.454 31.3988 117.895 31.0046C118.337 30.5947 118.81 30.2163 119.314 29.8694C119.755 29.5541 120.181 29.3965 120.591 29.3965C120.765 29.3807 120.859 29.491 120.859 29.7275ZM121.805 25.6914C121.616 26.0856 121.348 26.4482 121.001 26.795C120.654 27.1419 120.228 27.3942 119.724 27.5834C119.156 27.8041 118.605 27.9302 118.069 27.9617C117.548 28.009 116.996 28.0248 116.429 28.0248C115.782 28.0248 115.246 28.0248 114.836 28.0406C114.427 28.0563 114.064 28.0879 113.749 28.1352C113.449 28.1825 113.165 28.2613 112.929 28.3717C112.692 28.482 112.424 28.6239 112.14 28.8131L112.077 28.6239C112.314 28.4347 112.519 28.2613 112.724 28.1352C112.929 28.009 113.118 27.8987 113.291 27.8198C113.481 27.741 113.654 27.6622 113.843 27.6149C114.032 27.5676 114.237 27.5045 114.458 27.4415C114.773 27.3626 115.104 27.2996 115.436 27.268C115.767 27.2365 116.098 27.2207 116.429 27.205C116.76 27.1892 117.107 27.1892 117.454 27.1734C117.8 27.1577 118.147 27.1419 118.51 27.0946C119.172 27.0158 119.771 26.8739 120.276 26.6531C120.796 26.4324 121.238 26.0856 121.6 25.5811L121.805 25.6914Z" fill="#D3AF4A"/>
<path d="M127.339 29.8541C127.339 30.0433 127.276 30.2325 127.134 30.4375C126.992 30.6424 126.835 30.8316 126.63 31.0208C126.425 31.21 126.22 31.3834 125.999 31.5411C125.778 31.6988 125.589 31.8407 125.416 31.951C125.053 32.1875 124.675 32.4082 124.265 32.5974C123.871 32.7866 123.429 32.9443 122.956 33.0546C122.909 33.1808 122.877 33.3227 122.861 33.4488C122.846 33.5907 122.83 33.6695 122.83 33.7168C122.83 34.2056 122.94 34.5524 123.161 34.7732C123.382 34.9939 123.713 35.0885 124.139 35.0885C124.517 35.0885 124.895 34.9939 125.274 34.8205C125.652 34.6313 125.999 34.4578 126.298 34.2686L126.425 34.4736C126.251 34.6155 126.03 34.7732 125.794 34.9308C125.542 35.0885 125.289 35.2304 125.006 35.3723C124.722 35.5142 124.438 35.6245 124.154 35.7034C123.87 35.7822 123.571 35.8295 123.287 35.8295C122.751 35.8295 122.325 35.7034 122.01 35.4511C121.695 35.1988 121.537 34.8047 121.537 34.2686C121.537 33.1335 122.042 32.0929 123.066 31.1154C123.287 30.9105 123.539 30.7055 123.823 30.4848C124.107 30.264 124.391 30.0906 124.706 29.9172C125.006 29.7438 125.337 29.6176 125.652 29.5073C125.983 29.3969 126.298 29.3496 126.63 29.3496C127.103 29.3811 127.339 29.5388 127.339 29.8541ZM126.015 30.4059C126.015 30.1852 125.873 30.0906 125.605 30.0906C125.4 30.0906 125.179 30.1694 124.927 30.3113C124.69 30.4532 124.454 30.6582 124.233 30.8789C124.012 31.1154 123.807 31.3677 123.618 31.6672C123.429 31.951 123.287 32.2506 123.193 32.5344C123.461 32.4871 123.76 32.3925 124.091 32.2663C124.422 32.1244 124.722 31.9668 125.006 31.7618C125.289 31.5726 125.526 31.3519 125.715 31.1154C125.92 30.8789 126.015 30.6424 126.015 30.4059Z" fill="#D3AF4A"/>
<path d="M134.182 29.4279C134.182 29.5698 134.071 29.7747 133.867 30.0428C133.662 30.3108 133.394 30.6103 133.078 30.9257C132.779 31.241 132.448 31.5721 132.101 31.9189C131.754 32.25 131.439 32.5653 131.171 32.8491L131.297 33.4798C131.344 33.669 131.375 33.8424 131.407 33.9843C131.439 34.1262 131.47 34.2523 131.502 34.3627C131.565 34.5519 131.628 34.678 131.675 34.7726C131.77 34.8987 131.896 34.9618 132.053 34.9618C132.29 34.9618 132.558 34.8514 132.889 34.6149C133.141 34.4415 133.409 34.2208 133.709 33.937L133.819 34.2366C132.81 35.3086 131.927 35.8447 131.202 35.8447C130.918 35.8447 130.713 35.5767 130.556 35.0249C130.461 34.678 130.351 34.1735 130.225 33.5271C130.098 33.6532 129.972 33.7951 129.83 33.937C129.688 34.0789 129.531 34.2208 129.373 34.3784C128.79 34.9145 128.348 35.2929 128.033 35.5136C127.718 35.7501 127.45 35.8605 127.197 35.8605C127.087 35.8605 127.008 35.8132 126.945 35.7343C126.882 35.6555 126.851 35.5136 126.851 35.3086C126.851 35.1825 126.866 35.0406 126.914 34.8514C127.197 34.8514 127.655 34.7095 128.254 34.41C128.947 34.0631 129.578 33.6374 130.13 33.1014L129.83 31.2725C129.767 30.8784 129.688 30.6261 129.594 30.5157C129.499 30.4054 129.342 30.3581 129.121 30.3581C128.884 30.3581 128.632 30.4054 128.364 30.5C128.096 30.5946 127.844 30.7049 127.607 30.7995L127.544 30.5315C127.67 30.4527 127.86 30.3581 128.112 30.232C128.364 30.1058 128.632 29.9797 128.916 29.8536C129.2 29.7274 129.468 29.6328 129.72 29.5382C129.972 29.4437 130.177 29.4121 130.303 29.4121C130.477 29.4121 130.587 29.5067 130.634 29.6801C130.698 29.8536 130.745 30.1689 130.808 30.6103L131.076 32.4392C131.517 32.0135 131.943 31.5721 132.337 31.0991C132.731 30.6261 133.062 30.0743 133.362 29.4752C133.441 29.4437 133.52 29.4121 133.63 29.3648C133.74 29.3175 133.882 29.3018 134.04 29.3018C134.087 29.3018 134.135 29.3175 134.15 29.3333C134.182 29.3018 134.182 29.3491 134.182 29.4279Z" fill="#D3AF4A"/>
<path d="M141.702 29.5071C141.654 29.586 141.607 29.6806 141.56 29.7909C141.497 29.9013 141.449 30.0116 141.386 30.122C141.323 30.2324 141.276 30.3427 141.229 30.4373C141.181 30.5319 141.15 30.595 141.134 30.6423C141.024 30.8788 140.882 31.2099 140.708 31.604C140.535 31.9982 140.33 32.4869 140.078 33.0545C139.936 33.3856 139.81 33.6852 139.699 33.9374C139.589 34.2054 139.542 34.3946 139.542 34.5208C139.542 34.6154 139.557 34.6626 139.589 34.6942C139.62 34.7099 139.668 34.7257 139.747 34.7257C139.825 34.7257 139.952 34.6942 140.093 34.6153C140.235 34.5365 140.377 34.4577 140.535 34.3631C140.708 34.2527 140.866 34.1424 141.055 34.0005L141.181 34.3C141.071 34.3946 140.898 34.5208 140.677 34.6942C140.456 34.8676 140.22 35.041 139.952 35.1987C139.699 35.3721 139.431 35.514 139.163 35.6401C138.895 35.7663 138.659 35.8293 138.47 35.8293C138.328 35.8293 138.249 35.7978 138.201 35.7347C138.154 35.6717 138.138 35.6086 138.138 35.514C138.138 35.4194 138.154 35.3248 138.186 35.1829C138.217 35.041 138.265 34.8991 138.328 34.7415C138.391 34.5838 138.454 34.4262 138.517 34.2527C138.58 34.0793 138.643 33.9216 138.706 33.7797L139.274 32.4396C139.037 32.5185 138.832 32.5658 138.674 32.5973C138.517 32.6288 138.343 32.6604 138.123 32.6761C137.823 32.7234 137.555 32.7549 137.319 32.7549C137.082 32.7707 136.877 32.7707 136.656 32.8022L135.821 34.7888C135.774 34.9307 135.71 35.041 135.647 35.1041C135.6 35.1514 135.49 35.246 135.316 35.3721C135.143 35.4983 134.985 35.6086 134.828 35.6874C134.686 35.7663 134.575 35.7978 134.465 35.7978C134.37 35.7978 134.323 35.782 134.307 35.7505C134.292 35.719 134.292 35.6717 134.292 35.6244C134.292 35.5771 134.323 35.4667 134.402 35.2933C134.481 35.1199 134.591 34.8834 134.733 34.5996C134.875 34.2843 135.001 34.0162 135.127 33.7797C135.237 33.559 135.316 33.3698 135.395 33.1806C135.474 32.9914 135.521 32.8968 135.537 32.8653C135.427 32.8811 135.301 32.8968 135.19 32.9126C135.064 32.9284 134.954 32.9441 134.828 32.9599L134.891 32.7392C135.19 32.6131 135.474 32.5185 135.726 32.4554C135.789 32.3135 135.868 32.1243 135.947 31.9193C136.026 31.7144 136.105 31.5094 136.183 31.3045C136.262 31.0995 136.31 30.9261 136.357 30.7684C136.404 30.6108 136.42 30.5004 136.42 30.4216C136.42 30.3112 136.373 30.2639 136.278 30.2639C136.199 30.2639 136.089 30.2954 135.947 30.3427C135.805 30.39 135.679 30.4531 135.537 30.5162C135.379 30.595 135.222 30.6738 135.033 30.7684L134.938 30.5004C135.111 30.4058 135.316 30.2954 135.584 30.1693C135.852 30.0432 136.105 29.917 136.388 29.7909C136.656 29.6806 136.924 29.5702 137.161 29.4914C137.413 29.4125 137.602 29.3652 137.744 29.3652C137.792 29.3652 137.839 29.381 137.87 29.3968C137.902 29.4125 137.918 29.4756 137.918 29.5544C137.918 29.586 137.902 29.649 137.886 29.7436C137.855 29.8225 137.823 29.9328 137.792 30.0432C137.744 30.1535 137.697 30.2797 137.65 30.4058C137.602 30.5319 137.555 30.6581 137.508 30.7684L136.893 32.2031C137.145 32.1716 137.397 32.1401 137.634 32.1243C137.886 32.1085 138.123 32.0928 138.359 32.0612C138.611 32.0455 138.816 32.0297 138.99 31.9982C139.163 31.9824 139.305 31.9666 139.447 31.9351L139.888 30.863C139.999 30.5792 140.109 30.3427 140.22 30.1535C140.33 29.9643 140.456 29.8225 140.614 29.7121C140.787 29.6017 140.945 29.5229 141.118 29.4598C141.292 29.3968 141.418 29.3652 141.544 29.3652C141.575 29.3652 141.607 29.3652 141.639 29.381C141.67 29.3968 141.702 29.4441 141.702 29.5071Z" fill="#D3AF4A"/>
<path d="M148.514 30.6581C148.514 31.2256 148.388 31.7774 148.12 32.3135C147.852 32.8653 147.521 33.3698 147.127 33.8428C146.528 34.5365 145.944 35.041 145.377 35.3564C144.794 35.6717 144.194 35.8293 143.58 35.8293C142.602 35.8293 142.113 35.3406 142.113 34.3789C142.113 34.0162 142.176 33.6536 142.318 33.2595C142.46 32.8653 142.634 32.4869 142.87 32.1243C143.107 31.7617 143.39 31.3991 143.706 31.068C144.021 30.7369 144.384 30.4373 144.746 30.1851C145.125 29.9328 145.519 29.7279 145.929 29.586C146.339 29.4441 146.764 29.3652 147.19 29.3652C147.616 29.3652 147.947 29.4756 148.183 29.7121C148.388 29.9486 148.514 30.2639 148.514 30.6581ZM147.237 31.1783C147.237 30.7527 147.174 30.4689 147.032 30.2954C146.89 30.1378 146.67 30.0432 146.323 30.0432C145.566 30.0432 144.904 30.4846 144.289 31.3833C143.674 32.2662 143.375 33.1964 143.375 34.1739C143.375 34.4892 143.453 34.7257 143.595 34.9307C143.737 35.1199 143.974 35.2145 144.321 35.2145C144.604 35.2145 144.872 35.1356 145.125 34.9937C145.377 34.8518 145.613 34.6626 145.834 34.4262C146.055 34.1897 146.244 33.9216 146.417 33.6379C146.591 33.3383 146.733 33.0545 146.859 32.7549C146.985 32.4554 147.08 32.1716 147.143 31.8878C147.19 31.6198 147.237 31.3833 147.237 31.1783Z" fill="#D3AF4A"/>
<path d="M155.323 29.5701C155.323 29.6646 155.229 29.8696 155.055 30.1692C154.882 30.4687 154.693 30.8156 154.503 31.2097C154.409 31.3989 154.283 31.6669 154.125 31.9823C153.967 32.2976 153.81 32.6287 153.652 32.9755C153.494 33.3066 153.368 33.6219 153.258 33.9057C153.148 34.1895 153.084 34.3787 153.084 34.4891C153.084 34.6152 153.163 34.6783 153.305 34.6783C153.416 34.6783 153.51 34.6625 153.621 34.6152C153.731 34.5679 153.826 34.5364 153.92 34.4891C154.03 34.426 154.125 34.363 154.235 34.2999L154.362 34.5994C154.251 34.694 154.094 34.8044 153.904 34.9463C153.715 35.0882 153.51 35.2301 153.274 35.3562C153.053 35.4981 152.816 35.6085 152.58 35.7031C152.343 35.7977 152.123 35.845 151.934 35.845C151.697 35.845 151.571 35.7346 151.571 35.4981C151.571 35.3877 151.602 35.2301 151.666 35.0251C151.729 34.8202 151.823 34.5837 151.918 34.3314C152.028 34.0792 152.139 33.8111 152.265 33.5273C152.391 33.2436 152.517 32.9755 152.643 32.7233C152.769 32.471 152.88 32.2345 152.99 32.0296C153.1 31.8246 153.179 31.6669 153.242 31.5408C153.416 31.1782 153.542 30.9102 153.636 30.7367C153.715 30.5476 153.762 30.4214 153.762 30.3584C153.762 30.2953 153.715 30.2795 153.636 30.2795C153.368 30.2795 153.021 30.4372 152.564 30.7683C152.107 31.0994 151.602 31.5566 151.051 32.1399C150.657 32.5656 150.31 33.0071 150.01 33.4643C149.711 33.9373 149.569 34.426 149.569 34.9463C149.569 35.0567 149.569 35.1197 149.584 35.1513C149.443 35.3405 149.269 35.5139 149.064 35.6558C148.859 35.7977 148.686 35.8607 148.528 35.8607C148.402 35.8607 148.307 35.8292 148.229 35.7661C148.15 35.7031 148.118 35.5927 148.118 35.4035C148.118 35.0724 148.37 34.5679 148.891 33.8584C149.253 33.3697 149.695 32.8494 150.215 32.3134C150.735 31.7773 151.287 31.2728 151.886 30.784C152.028 30.6737 152.186 30.5633 152.359 30.4372C152.548 30.3268 152.722 30.2165 152.911 30.1061C153.1 29.9957 153.274 29.9169 153.447 29.8223C153.621 29.7435 153.762 29.6804 153.889 29.6331C154.062 29.5543 154.283 29.4912 154.535 29.4439C154.787 29.3966 154.976 29.3809 155.103 29.3809C155.15 29.3809 155.197 29.3809 155.244 29.3966C155.292 29.4124 155.323 29.4755 155.323 29.5701Z" fill="#D3AF4A"/>
<path d="M161.819 30.6581C161.819 31.2256 161.693 31.7774 161.425 32.3135C161.157 32.8653 160.826 33.3698 160.432 33.8428C159.832 34.5365 159.249 35.041 158.682 35.3564C158.098 35.6717 157.499 35.8293 156.884 35.8293C155.907 35.8293 155.418 35.3406 155.418 34.3789C155.418 34.0162 155.481 33.6536 155.623 33.2595C155.765 32.8653 155.938 32.4869 156.175 32.1243C156.411 31.7617 156.695 31.3991 157.01 31.068C157.326 30.7369 157.688 30.4373 158.051 30.1851C158.429 29.9328 158.823 29.7279 159.233 29.586C159.643 29.4441 160.069 29.3652 160.495 29.3652C160.92 29.3652 161.251 29.4756 161.488 29.7121C161.693 29.9486 161.819 30.2639 161.819 30.6581ZM160.542 31.1783C160.542 30.7527 160.479 30.4689 160.337 30.2954C160.195 30.1378 159.974 30.0432 159.628 30.0432C158.871 30.0432 158.209 30.4846 157.594 31.3833C156.979 32.2662 156.679 33.1964 156.679 34.1739C156.679 34.4892 156.758 34.7257 156.9 34.9307C157.042 35.1199 157.278 35.2145 157.625 35.2145C157.909 35.2145 158.177 35.1356 158.429 34.9937C158.682 34.8518 158.918 34.6626 159.139 34.4262C159.359 34.1897 159.549 33.9216 159.722 33.6379C159.896 33.3383 160.037 33.0545 160.164 32.7549C160.29 32.4554 160.384 32.1716 160.447 31.8878C160.495 31.6198 160.542 31.3833 160.542 31.1783Z" fill="#D3AF4A"/>
<path d="M166.296 29.8222C166.296 30.1375 166.154 30.4843 165.87 30.8943C165.586 31.3042 165.16 31.8402 164.609 32.5024C164.341 32.8177 164.136 33.07 163.978 33.2749C163.82 33.4799 163.694 33.6691 163.615 33.811C163.536 33.9529 163.473 34.079 163.442 34.1894C163.41 34.2997 163.395 34.3786 163.395 34.4732C163.395 34.6151 163.442 34.7254 163.536 34.7727C163.631 34.82 163.726 34.8516 163.805 34.8516C163.946 34.8516 164.073 34.8358 164.214 34.7885C164.356 34.7412 164.482 34.6781 164.624 34.5993C164.766 34.5205 164.892 34.4416 165.003 34.347C165.129 34.2524 165.239 34.1736 165.334 34.0948L165.491 34.284C165.271 34.4732 165.05 34.6781 164.829 34.8673C164.609 35.0565 164.388 35.2299 164.151 35.3876C163.915 35.5295 163.678 35.6556 163.442 35.7502C163.205 35.8448 162.953 35.8921 162.685 35.8921C162.433 35.8921 162.259 35.8448 162.165 35.7502C162.07 35.6556 162.023 35.5295 162.023 35.3718C162.023 35.2457 162.054 35.1038 162.133 34.9462C162.212 34.7885 162.322 34.6151 162.48 34.3943C162.638 34.1736 162.843 33.9214 163.095 33.6218C163.347 33.3222 163.647 32.9754 163.994 32.5497C164.214 32.2817 164.388 32.061 164.514 31.856C164.64 31.6668 164.75 31.4776 164.814 31.3357C164.877 31.1781 164.924 31.0519 164.94 30.9258C164.955 30.8154 164.955 30.6893 164.955 30.5789C164.955 30.4528 164.908 30.3582 164.829 30.3109C164.75 30.2636 164.64 30.2479 164.53 30.2479C164.419 30.2479 164.309 30.2794 164.167 30.3267C164.025 30.374 163.899 30.437 163.757 30.5159C163.615 30.5947 163.473 30.6893 163.332 30.7839C163.19 30.8943 163.064 30.9889 162.937 31.0992L162.78 30.91C162.985 30.7524 163.19 30.5789 163.426 30.4055C163.663 30.2321 163.899 30.0587 164.167 29.9168C164.419 29.7749 164.687 29.6487 164.971 29.5384C165.239 29.4438 165.523 29.3965 165.791 29.3965C165.901 29.3965 166.012 29.428 166.122 29.4753C166.248 29.5068 166.296 29.633 166.296 29.8222Z" fill="#D3AF4A"/>
<path d="M174.227 29.5068C174.227 29.5225 174.164 29.6644 174.037 29.9167C173.911 30.1689 173.769 30.4843 173.612 30.8626L172.65 33.1014C172.603 33.2118 172.555 33.3222 172.492 33.4641C172.429 33.6059 172.366 33.7321 172.319 33.874C172.272 34.0159 172.224 34.142 172.177 34.2524C172.13 34.3785 172.114 34.4731 172.114 34.5361C172.114 34.6623 172.177 34.7253 172.319 34.7253C172.398 34.7253 172.524 34.678 172.729 34.5677C172.934 34.4573 173.233 34.2681 173.612 34.0001L173.738 34.2997C173.076 34.8357 172.54 35.2299 172.098 35.4663C171.657 35.7186 171.31 35.8447 171.042 35.8447C170.821 35.8447 170.711 35.7344 170.711 35.5294C170.711 35.419 170.727 35.2929 170.758 35.151C170.79 35.0091 170.837 34.8672 170.9 34.7096C170.963 34.5519 171.026 34.3943 171.089 34.2366C171.152 34.0789 171.215 33.9213 171.278 33.7794C171.468 33.3537 171.625 33.0068 171.751 32.723C171.877 32.4393 171.988 32.2028 172.067 32.0293C172.145 31.8401 172.224 31.6982 172.272 31.5879C172.319 31.4775 172.366 31.3672 172.413 31.2883H172.272L171.846 31.7455C171.546 32.0766 171.215 32.4235 170.868 32.8019C170.522 33.1803 170.159 33.5429 169.812 33.8897C169.465 34.2524 169.103 34.5677 168.772 34.883C168.425 35.1826 168.109 35.4348 167.841 35.6398C167.762 35.7028 167.668 35.7501 167.558 35.7817C167.447 35.8132 167.337 35.8447 167.242 35.8447C167.132 35.8447 167.037 35.8132 166.99 35.7501C166.927 35.6871 166.911 35.6082 166.911 35.5136C166.911 35.4348 166.927 35.3245 166.958 35.1826C166.99 35.0407 167.053 34.8672 167.132 34.678C167.321 34.2366 167.51 33.7794 167.731 33.3064C167.936 32.8334 168.125 32.4077 168.299 32.0136C168.472 31.6194 168.614 31.2726 168.724 30.9888C168.835 30.705 168.882 30.5 168.882 30.4212C168.882 30.3424 168.835 30.2951 168.756 30.2951C168.614 30.2951 168.377 30.3739 168.015 30.5473L167.494 30.8153L167.4 30.5473C167.573 30.437 167.778 30.3266 168.015 30.2005C168.267 30.0743 168.503 29.9482 168.772 29.8378C169.024 29.7275 169.276 29.6329 169.513 29.5541C169.749 29.4752 169.954 29.4279 170.143 29.4279C170.269 29.4279 170.332 29.491 170.332 29.6171C170.332 29.6959 170.285 29.8694 170.175 30.1532C170.064 30.437 169.938 30.7365 169.796 31.0834C169.654 31.4302 169.513 31.7613 169.355 32.0924C169.197 32.4235 169.087 32.66 169.024 32.8334C168.693 33.5902 168.519 34.0001 168.519 34.0789C168.519 34.2051 168.567 34.2681 168.645 34.2681C168.724 34.2681 168.866 34.1893 169.055 34.0474C169.245 33.9055 169.465 33.7005 169.702 33.4798C169.938 33.2433 170.19 32.9911 170.459 32.7073C170.727 32.4235 170.963 32.1397 171.215 31.8874C171.452 31.6194 171.672 31.3829 171.862 31.1622C172.051 30.9415 172.177 30.7838 172.272 30.6734L172.713 30.1689C172.792 30.0901 172.855 30.027 172.934 29.964C173.013 29.9009 173.076 29.8536 173.155 29.8063C173.501 29.5698 173.832 29.4595 174.116 29.4595C174.179 29.3806 174.227 29.4279 174.227 29.5068Z" fill="#D3AF4A"/>
<path d="M182 29.5068C182 29.5225 181.937 29.6644 181.811 29.9167C181.685 30.1689 181.543 30.4843 181.385 30.8626L180.423 33.1014C180.376 33.2118 180.329 33.3222 180.266 33.4641C180.203 33.6059 180.14 33.7321 180.092 33.874C180.045 34.0159 179.998 34.142 179.95 34.2524C179.903 34.3785 179.887 34.4731 179.887 34.5361C179.887 34.6623 179.95 34.7253 180.092 34.7253C180.171 34.7253 180.297 34.678 180.502 34.5677C180.707 34.4573 181.007 34.2681 181.385 34.0001L181.511 34.2997C180.849 34.8357 180.313 35.2299 179.872 35.4663C179.43 35.7186 179.083 35.8447 178.815 35.8447C178.595 35.8447 178.484 35.7344 178.484 35.5294C178.484 35.419 178.5 35.2929 178.532 35.151C178.563 35.0091 178.61 34.8672 178.673 34.7096C178.736 34.5519 178.8 34.3943 178.863 34.2366C178.926 34.0789 178.989 33.9213 179.052 33.7794C179.241 33.3537 179.399 33.0068 179.525 32.723C179.651 32.4393 179.761 32.2028 179.84 32.0293C179.919 31.8401 179.998 31.6982 180.045 31.5879C180.092 31.4775 180.14 31.3672 180.187 31.2883H180.045L179.619 31.7455C179.32 32.0766 178.989 32.4235 178.642 32.8019C178.295 33.1803 177.932 33.5429 177.586 33.8897C177.239 34.2524 176.876 34.5677 176.545 34.883C176.198 35.1826 175.883 35.4348 175.615 35.6398C175.536 35.7028 175.441 35.7501 175.331 35.7817C175.221 35.8132 175.11 35.8447 175.016 35.8447C174.905 35.8447 174.811 35.8132 174.763 35.7501C174.7 35.6871 174.685 35.6082 174.685 35.5136C174.685 35.4348 174.7 35.3245 174.732 35.1826C174.763 35.0407 174.826 34.8672 174.905 34.678C175.094 34.2366 175.284 33.7794 175.504 33.3064C175.709 32.8334 175.899 32.4077 176.072 32.0136C176.245 31.6194 176.387 31.2726 176.498 30.9888C176.608 30.705 176.655 30.5 176.655 30.4212C176.655 30.3424 176.608 30.2951 176.529 30.2951C176.387 30.2951 176.151 30.3739 175.788 30.5473L175.268 30.8153L175.173 30.5473C175.347 30.437 175.552 30.3266 175.788 30.2005C176.04 30.0743 176.277 29.9482 176.545 29.8378C176.797 29.7275 177.049 29.6329 177.286 29.5541C177.522 29.4752 177.727 29.4279 177.917 29.4279C178.043 29.4279 178.106 29.491 178.106 29.6171C178.106 29.6959 178.059 29.8694 177.948 30.1532C177.838 30.437 177.712 30.7365 177.57 31.0834C177.428 31.4302 177.286 31.7613 177.128 32.0924C176.971 32.4235 176.86 32.66 176.797 32.8334C176.466 33.5902 176.293 34.0001 176.293 34.0789C176.293 34.2051 176.34 34.2681 176.419 34.2681C176.498 34.2681 176.64 34.1893 176.829 34.0474C177.018 33.9055 177.239 33.7005 177.475 33.4798C177.712 33.2433 177.964 32.9911 178.232 32.7073C178.5 32.4235 178.736 32.1397 178.989 31.8874C179.225 31.6194 179.446 31.3829 179.635 31.1622C179.824 30.9415 179.95 30.7838 180.045 30.6734L180.487 30.1689C180.565 30.0901 180.628 30.027 180.707 29.964C180.786 29.9009 180.849 29.8536 180.928 29.8063C181.275 29.5698 181.606 29.4595 181.89 29.4595C181.953 29.3806 182 29.4279 182 29.5068Z" fill="#D3AF4A"/>
<path d="M63.9116 44.737H64.558V46.9443H65.504C65.5513 46.2506 65.7878 45.683 66.1977 45.2731C66.6076 44.8632 67.1121 44.6582 67.727 44.6582C68.3734 44.6582 68.8937 44.8789 69.3194 45.3361C69.7451 45.7934 69.95 46.4082 69.95 47.1808C69.95 47.9849 69.7451 48.6155 69.3194 49.0727C68.8937 49.5299 68.3577 49.7507 67.7113 49.7507C67.1121 49.7507 66.6234 49.5615 66.2292 49.1673C65.8351 48.7732 65.5986 48.2371 65.5355 47.5434H64.5738V49.6718H63.9274V44.737H63.9116ZM66.1662 47.2123C66.1662 47.8272 66.3081 48.3159 66.5919 48.6628C66.8757 49.0097 67.254 49.1831 67.7113 49.1831C68.1842 49.1831 68.5626 49.0097 68.8464 48.6628C69.1302 48.3159 69.2721 47.8272 69.2721 47.1808C69.2721 46.5659 69.1302 46.0929 68.8464 45.7303C68.5626 45.3677 68.1842 45.21 67.7113 45.21C67.2225 45.21 66.8441 45.3834 66.5603 45.7461C66.2923 46.0929 66.1662 46.5817 66.1662 47.2123Z" fill="#D3AF4A"/>
<path d="M70.7544 51.0126V46.0936H71.3062V46.5508C71.4323 46.3774 71.59 46.2355 71.7477 46.1409C71.9053 46.0463 72.1103 45.999 72.3468 45.999C72.6463 45.999 72.9143 46.0779 73.1508 46.2355C73.3873 46.3932 73.5608 46.6139 73.6711 46.8977C73.7973 47.1815 73.8445 47.4968 73.8445 47.8279C73.8445 48.1905 73.7815 48.5216 73.6554 48.8054C73.5292 49.1049 73.34 49.3257 73.0878 49.4833C72.8355 49.641 72.5833 49.7198 72.2995 49.7198C72.0945 49.7198 71.9211 49.6725 71.7634 49.5937C71.6058 49.5149 71.4796 49.4045 71.3693 49.2784V51.0126H70.7544ZM71.2904 47.891C71.2904 48.3482 71.385 48.695 71.5742 48.9C71.7634 49.1207 71.9842 49.2311 72.2522 49.2311C72.5202 49.2311 72.7567 49.1207 72.9459 48.8842C73.1351 48.6635 73.2297 48.3009 73.2297 47.8279C73.2297 47.3707 73.1351 47.0396 72.9459 46.8031C72.7567 46.5824 72.536 46.472 72.2837 46.472C72.0314 46.472 71.795 46.5981 71.6058 46.8346C71.4166 47.0711 71.2904 47.4337 71.2904 47.891Z" fill="#D3AF4A"/>
<path d="M74.5698 46.0938H75.1689V48.8055L76.8401 46.0938H77.4866V49.6569H76.8874V46.9609L75.2162 49.6569H74.5698V46.0938Z" fill="#D3AF4A"/>
<path d="M78.8897 46.0938H81.365V49.1524H81.7433V50.6659H81.2546V49.6569H78.4482V50.6659H77.9595V49.1524H78.2748C78.7005 48.569 78.9054 47.56 78.8897 46.0938ZM79.3784 46.5825C79.3311 47.7334 79.1577 48.6006 78.8424 49.1524H80.7501V46.5825H79.3784Z" fill="#D3AF4A"/>
<path d="M82.4214 46.0938H83.0205V48.8055L84.6917 46.0938H85.3381V49.6569H84.739V46.9609L83.0678 49.6411H82.4214V46.0938Z" fill="#D3AF4A"/>
<path d="M86.0324 46.0938H86.6315V46.7717C86.6315 47.0555 86.6472 47.2762 86.6788 47.4023C86.7103 47.5285 86.7891 47.6546 86.931 47.7492C87.0572 47.8438 87.2306 47.8911 87.4198 47.8911C87.6405 47.8911 87.9401 47.828 88.3027 47.7177V46.1095H88.9018V49.6727H88.3027V48.2379C87.9243 48.3483 87.5774 48.4114 87.2621 48.4114C86.9941 48.4114 86.7576 48.3483 86.5526 48.2064C86.3477 48.0645 86.2058 47.9069 86.127 47.7019C86.0481 47.4969 86.0166 47.2762 86.0166 47.0397V46.0938H86.0324Z" fill="#D3AF4A"/>
<path d="M92.2605 48.5057L92.8912 48.5845C92.7966 48.9471 92.6074 49.2309 92.3394 49.4359C92.0713 49.6409 91.7402 49.7354 91.3146 49.7354C90.7943 49.7354 90.3844 49.5778 90.069 49.2467C89.7695 48.9314 89.6118 48.4742 89.6118 47.8908C89.6118 47.2917 89.7695 46.8345 90.069 46.5034C90.3686 46.1723 90.7785 46.0146 91.2673 46.0146C91.7402 46.0146 92.1344 46.1723 92.434 46.5034C92.7335 46.8345 92.8912 47.2759 92.8912 47.875V48.0327H90.2425C90.2582 48.4269 90.3686 48.7264 90.5735 48.9314C90.7785 49.1363 91.015 49.2467 91.3146 49.2467C91.5353 49.2467 91.7245 49.1836 91.8821 49.0733C92.0556 48.9471 92.1817 48.758 92.2605 48.5057ZM90.2898 47.5282H92.2763C92.2448 47.2286 92.1659 47.0079 92.0556 46.8503C91.8664 46.6138 91.6141 46.5034 91.3146 46.5034C91.0308 46.5034 90.81 46.598 90.6209 46.7872C90.4159 46.9606 90.3055 47.2129 90.2898 47.5282Z" fill="#D3AF4A"/>
<path d="M95.9804 48.348L96.5796 48.4269C96.5165 48.8368 96.3431 49.1521 96.075 49.3886C95.807 49.6251 95.4759 49.7354 95.0975 49.7354C94.6088 49.7354 94.2146 49.5778 93.9151 49.2625C93.6155 48.9471 93.4736 48.4899 93.4736 47.8908C93.4736 47.5124 93.5367 47.1656 93.6628 46.8818C93.789 46.598 93.9782 46.3773 94.2462 46.2354C94.5142 46.0935 94.7822 46.0146 95.0975 46.0146C95.4917 46.0146 95.807 46.1092 96.0435 46.3142C96.28 46.5192 96.4534 46.7872 96.5165 47.1498L95.9331 47.2444C95.8701 47.0079 95.7755 46.8187 95.6336 46.7084C95.4917 46.598 95.3183 46.5349 95.1133 46.5349C94.8138 46.5349 94.5615 46.6453 94.3723 46.866C94.1831 47.0867 94.0885 47.4336 94.0885 47.9066C94.0885 48.3796 94.1831 48.7264 94.3565 48.9471C94.5457 49.1679 94.7822 49.2782 95.0818 49.2782C95.3183 49.2782 95.5232 49.1994 95.6809 49.0575C95.8228 48.8683 95.9332 48.6476 95.9804 48.348Z" fill="#D3AF4A"/>
<path d="M97.0835 46.0938H97.6826V47.6388C97.8718 47.6388 98.0137 47.6073 98.0925 47.5285C98.1714 47.4496 98.2817 47.2447 98.4394 46.8821C98.5655 46.5983 98.6601 46.4091 98.7232 46.3302C98.802 46.2356 98.8808 46.1726 98.9754 46.1568C99.07 46.1253 99.2277 46.1095 99.4326 46.1095H99.5588V46.614H99.3853C99.2277 46.614 99.1173 46.6298 99.0858 46.6771C99.0385 46.7244 98.9597 46.8663 98.8651 47.1185C98.7705 47.355 98.6916 47.5127 98.6128 47.6073C98.534 47.7019 98.4236 47.7807 98.266 47.8596C98.5182 47.9226 98.7862 48.1749 99.0227 48.5848L99.6849 49.6884H99.0227L98.3763 48.5848C98.2502 48.3641 98.1241 48.2222 98.0295 48.1433C97.9349 48.0803 97.8087 48.033 97.6826 48.033V49.6727H97.0835V46.0938Z" fill="#D3AF4A"/>
<path d="M100.095 46.0938H100.694V48.8055L102.366 46.0938H103.012V49.6569H102.413V46.9609L100.742 49.6569H100.095V46.0938Z" fill="#D3AF4A"/>
<path d="M106.354 48.5057L106.985 48.5845C106.89 48.9471 106.701 49.2309 106.433 49.4359C106.165 49.6409 105.834 49.7354 105.408 49.7354C104.888 49.7354 104.478 49.5778 104.163 49.2467C103.863 48.9314 103.706 48.4742 103.706 47.8908C103.706 47.2917 103.863 46.8345 104.163 46.5034C104.462 46.1723 104.872 46.0146 105.361 46.0146C105.834 46.0146 106.228 46.1723 106.528 46.5034C106.827 46.8345 106.985 47.2759 106.985 47.875V48.0327H104.352C104.368 48.4269 104.478 48.7264 104.683 48.9314C104.888 49.1363 105.125 49.2467 105.424 49.2467C105.645 49.2467 105.834 49.1836 105.992 49.0733C106.149 48.9471 106.275 48.758 106.354 48.5057ZM104.384 47.5282H106.37C106.339 47.2286 106.26 47.0079 106.149 46.8503C105.96 46.6138 105.708 46.5034 105.408 46.5034C105.125 46.5034 104.904 46.598 104.715 46.7872C104.51 46.9606 104.399 47.2129 104.384 47.5282Z" fill="#D3AF4A"/>
<path d="M109.618 51.0119L109.555 50.4444C109.681 50.4759 109.807 50.4917 109.902 50.4917C110.044 50.4917 110.138 50.4759 110.217 50.4286C110.296 50.3813 110.359 50.3182 110.422 50.2394C110.454 50.1763 110.517 50.0344 110.611 49.7822C110.627 49.7507 110.643 49.7034 110.659 49.6403L109.303 46.0771H109.949L110.69 48.1425C110.785 48.4105 110.879 48.6786 110.942 48.9623C111.005 48.6786 111.1 48.4105 111.195 48.1583L111.951 46.0771H112.551L111.195 49.7034C111.053 50.0975 110.942 50.3655 110.864 50.5074C110.753 50.7124 110.627 50.8543 110.501 50.9489C110.359 51.0435 110.201 51.0908 110.012 51.0908C109.902 51.0908 109.776 51.075 109.618 51.0119Z" fill="#D3AF4A"/>
<path d="M115.325 48.348L115.924 48.4269C115.861 48.8368 115.688 49.1521 115.42 49.3886C115.152 49.6251 114.821 49.7354 114.442 49.7354C113.954 49.7354 113.559 49.5778 113.26 49.2625C112.96 48.9471 112.818 48.4899 112.818 47.8908C112.818 47.5124 112.881 47.1656 113.008 46.8818C113.134 46.598 113.323 46.3773 113.591 46.2354C113.859 46.0935 114.127 46.0146 114.442 46.0146C114.836 46.0146 115.152 46.1092 115.388 46.3142C115.625 46.5192 115.798 46.7872 115.861 47.1498L115.278 47.2444C115.215 47.0079 115.12 46.8187 114.978 46.7084C114.836 46.598 114.663 46.5349 114.458 46.5349C114.158 46.5349 113.906 46.6453 113.717 46.866C113.528 47.0867 113.433 47.4336 113.433 47.9066C113.433 48.3796 113.528 48.7264 113.701 48.9471C113.89 49.1679 114.127 49.2782 114.427 49.2782C114.663 49.2782 114.868 49.1994 115.026 49.0575C115.183 48.8683 115.294 48.6476 115.325 48.348Z" fill="#D3AF4A"/>
<path d="M116.744 46.0938H119.551V49.6569H118.951V46.5983H117.359V48.3798C117.359 48.7898 117.343 49.0735 117.312 49.1997C117.28 49.3258 117.217 49.4519 117.091 49.5465C116.965 49.6411 116.792 49.6884 116.571 49.6884C116.429 49.6884 116.271 49.6727 116.082 49.6569V49.1524H116.35C116.476 49.1524 116.571 49.1366 116.618 49.1208C116.665 49.0893 116.713 49.0578 116.728 48.9947C116.744 48.9317 116.76 48.7582 116.76 48.4429V46.0938H116.744Z" fill="#D3AF4A"/>
<path d="M120.418 51.0119L120.355 50.4444C120.481 50.4759 120.608 50.4917 120.702 50.4917C120.844 50.4917 120.939 50.4759 121.017 50.4286C121.096 50.3813 121.159 50.3182 121.222 50.2394C121.254 50.1763 121.317 50.0344 121.412 49.7822C121.427 49.7507 121.443 49.7034 121.459 49.6403L120.103 46.0771H120.749L121.49 48.1425C121.585 48.4105 121.68 48.6786 121.743 48.9623C121.806 48.6786 121.9 48.4105 121.995 48.1583L122.752 46.0771H123.351L121.995 49.7034C121.853 50.0975 121.743 50.3655 121.664 50.5074C121.554 50.7124 121.427 50.8543 121.301 50.9489C121.159 51.0435 121.002 51.0908 120.813 51.0908C120.702 51.0908 120.56 51.075 120.418 51.0119Z" fill="#D3AF4A"/>
<path d="M123.886 46.0938H125.935V46.5983H124.485V49.6569H123.886V46.0938Z" fill="#D3AF4A"/>
<path d="M126.394 46.0938H126.993V48.8055L128.664 46.0938H129.31V49.6569H128.711V46.9609L127.04 49.6569H126.394V46.0938Z" fill="#D3AF4A"/>
<path d="M132.606 46.0938H135.081V49.1524H135.46V50.6659H134.971V49.6569H132.165V50.6659H131.676V49.1524H131.991C132.433 48.569 132.622 47.56 132.606 46.0938ZM133.11 46.5825C133.063 47.7334 132.89 48.6006 132.574 49.1524H134.482V46.5825H133.11Z" fill="#D3AF4A"/>
<path d="M136.435 46.0938H139.241V49.6569H138.642V46.5983H137.05V48.3798C137.05 48.7898 137.034 49.0735 137.003 49.1997C136.971 49.3258 136.908 49.4519 136.782 49.5465C136.656 49.6411 136.482 49.6884 136.262 49.6884C136.12 49.6884 135.962 49.6727 135.773 49.6569V49.1524H136.041C136.167 49.1524 136.262 49.1366 136.309 49.1208C136.356 49.0893 136.404 49.0578 136.419 48.9947C136.435 48.9317 136.451 48.7582 136.451 48.4429V46.0938H136.435Z" fill="#D3AF4A"/>
<path d="M142.947 46.0938V49.6569H142.347V48.2695H142.001C141.796 48.2695 141.622 48.301 141.528 48.3483C141.417 48.3956 141.275 48.5848 141.07 48.8843L140.55 49.6569H139.809L140.455 48.6952C140.66 48.3956 140.85 48.2379 141.055 48.2064C140.708 48.1591 140.455 48.033 140.282 47.828C140.109 47.6231 140.03 47.4023 140.03 47.1343C140.03 46.819 140.14 46.5825 140.361 46.3775C140.582 46.1726 140.897 46.0938 141.307 46.0938H142.947ZM142.347 46.5825H141.496C141.133 46.5825 140.897 46.6456 140.802 46.7559C140.708 46.8663 140.645 46.9924 140.645 47.1501C140.645 47.355 140.724 47.5127 140.881 47.6231C141.039 47.7334 141.307 47.765 141.701 47.765H142.363V46.5825H142.347Z" fill="#D3AF4A"/>
<path d="M148.386 44.6113H148.922C148.891 44.8478 148.843 45.0212 148.764 45.1158C148.686 45.2104 148.575 45.2735 148.449 45.2893C148.323 45.305 148.071 45.3366 147.692 45.3366C147.188 45.3366 146.857 45.3839 146.668 45.4785C146.494 45.5731 146.352 45.7307 146.273 45.9357C146.195 46.1406 146.147 46.4244 146.147 46.7555C146.305 46.5348 146.478 46.3614 146.683 46.251C146.888 46.1406 147.109 46.0776 147.377 46.0776C147.85 46.0776 148.228 46.2352 148.544 46.5663C148.843 46.8816 149.001 47.3231 149.001 47.8749C149.001 48.2848 148.922 48.6317 148.764 48.8997C148.607 49.1677 148.433 49.3727 148.213 49.5146C148.008 49.6565 147.708 49.7353 147.345 49.7353C146.92 49.7353 146.589 49.6407 146.352 49.4515C146.116 49.2623 145.942 49.0101 145.816 48.7105C145.69 48.411 145.627 47.8907 145.627 47.1339C145.627 46.1879 145.785 45.5573 146.1 45.2262C146.415 44.8951 146.904 44.7375 147.566 44.7375C147.976 44.7375 148.213 44.7375 148.26 44.7217C148.307 44.7059 148.37 44.6586 148.386 44.6113ZM148.354 47.8591C148.354 47.4808 148.26 47.1812 148.086 46.9447C147.913 46.7082 147.661 46.5821 147.345 46.5821C147.014 46.5821 146.762 46.7082 146.573 46.9605C146.384 47.2127 146.305 47.5438 146.305 47.9695C146.305 48.3794 146.399 48.6948 146.604 48.9155C146.809 49.1362 147.046 49.2466 147.345 49.2466C147.645 49.2466 147.882 49.1204 148.071 48.8682C148.26 48.6002 148.354 48.2691 148.354 47.8591Z" fill="#D3AF4A"/>
<path d="M149.711 46.0938H150.31V48.8055L151.981 46.0938H152.628V49.6569H152.029V46.9609L150.357 49.6569H149.711V46.0938Z" fill="#D3AF4A"/>
<path d="M154.331 48.0329V47.5599C154.583 47.5599 154.756 47.5441 154.851 47.5283C154.945 47.5126 155.024 47.4495 155.119 47.3707C155.198 47.2761 155.245 47.1657 155.245 47.0396C155.245 46.8819 155.198 46.74 155.087 46.6454C154.977 46.5508 154.835 46.5035 154.662 46.5035C154.315 46.5035 154.078 46.7085 153.952 47.1027L153.385 47.0081C153.558 46.3459 154 45.999 154.677 45.999C155.056 45.999 155.355 46.1094 155.576 46.3143C155.797 46.5193 155.907 46.7716 155.907 47.0554C155.907 47.3391 155.765 47.5756 155.482 47.7491C155.655 47.8437 155.797 47.9698 155.891 48.1117C155.986 48.2536 156.033 48.4428 156.033 48.632C156.033 48.9473 155.923 49.2153 155.686 49.4045C155.45 49.6095 155.135 49.7041 154.709 49.7041C153.905 49.7041 153.432 49.3414 153.29 48.6162L153.858 48.4901C153.905 48.7108 154.015 48.9 154.173 49.0261C154.331 49.1522 154.504 49.2153 154.709 49.2153C154.914 49.2153 155.087 49.1522 155.213 49.0419C155.355 48.9315 155.418 48.7739 155.418 48.6004C155.418 48.4585 155.371 48.3482 155.292 48.2378C155.213 48.1274 155.119 48.0644 155.024 48.0486C154.93 48.0171 154.756 48.0171 154.504 48.0171C154.457 48.0329 154.409 48.0329 154.331 48.0329Z" fill="#D3AF4A"/>
<path d="M156.696 46.0938H157.295V47.5758H158.966V46.0938H159.565V49.6569H158.966V48.0803H157.295V49.6569H156.696V46.0938Z" fill="#D3AF4A"/>
<path d="M162.923 48.5057L163.554 48.5845C163.459 48.9471 163.27 49.2309 163.002 49.4359C162.734 49.6409 162.403 49.7354 161.977 49.7354C161.457 49.7354 161.047 49.5778 160.732 49.2467C160.432 48.9314 160.274 48.4742 160.274 47.8908C160.274 47.2917 160.432 46.8345 160.732 46.5034C161.031 46.1723 161.441 46.0146 161.93 46.0146C162.403 46.0146 162.797 46.1723 163.097 46.5034C163.396 46.8345 163.554 47.2759 163.554 47.875V48.0327H160.905C160.921 48.4269 161.031 48.7264 161.236 48.9314C161.441 49.1363 161.678 49.2467 161.977 49.2467C162.198 49.2467 162.387 49.1836 162.545 49.0733C162.702 48.9471 162.829 48.758 162.923 48.5057ZM160.937 47.5282H162.923C162.892 47.2286 162.813 47.0079 162.702 46.8503C162.513 46.6138 162.261 46.5034 161.961 46.5034C161.678 46.5034 161.457 46.598 161.268 46.7872C161.063 46.9606 160.968 47.2129 160.937 47.5282Z" fill="#D3AF4A"/>
<path d="M166.628 48.348L167.228 48.4269C167.164 48.8368 166.991 49.1521 166.723 49.3886C166.455 49.6251 166.124 49.7354 165.745 49.7354C165.257 49.7354 164.863 49.5778 164.563 49.2625C164.263 48.9471 164.122 48.4899 164.122 47.8908C164.122 47.5124 164.185 47.1656 164.311 46.8818C164.437 46.598 164.626 46.3773 164.894 46.2354C165.162 46.0935 165.43 46.0146 165.745 46.0146C166.14 46.0146 166.455 46.1092 166.691 46.3142C166.928 46.5192 167.101 46.7872 167.164 47.1498L166.581 47.2444C166.518 47.0079 166.423 46.8187 166.282 46.7084C166.14 46.598 165.966 46.5349 165.761 46.5349C165.462 46.5349 165.209 46.6453 165.02 46.866C164.831 47.0867 164.736 47.4336 164.736 47.9066C164.736 48.3796 164.831 48.7264 165.004 48.9471C165.194 49.1679 165.43 49.2782 165.73 49.2782C165.966 49.2782 166.171 49.1994 166.329 49.0575C166.486 48.8683 166.581 48.6476 166.628 48.348Z" fill="#D3AF4A"/>
<path d="M170.065 49.2153C169.844 49.4045 169.624 49.5464 169.419 49.6252C169.214 49.7041 168.993 49.7356 168.756 49.7356C168.362 49.7356 168.063 49.641 167.858 49.4518C167.653 49.2626 167.542 49.0103 167.542 48.7266C167.542 48.5531 167.59 48.3955 167.669 48.2536C167.747 48.1117 167.858 48.0013 167.984 47.9067C168.11 47.8121 168.252 47.7491 168.425 47.7018C168.552 47.6702 168.725 47.6387 168.961 47.6072C169.45 47.5441 169.813 47.481 170.034 47.4022C170.034 47.3234 170.034 47.2603 170.034 47.2445C170.034 46.9923 169.97 46.8189 169.86 46.7243C169.702 46.5824 169.482 46.5193 169.166 46.5193C168.883 46.5193 168.678 46.5666 168.536 46.6612C168.394 46.7558 168.299 46.9292 168.236 47.1815L167.653 47.1027C167.7 46.8504 167.795 46.6454 167.921 46.4878C168.047 46.3301 168.22 46.2197 168.457 46.1252C168.693 46.0463 168.961 45.999 169.261 45.999C169.561 45.999 169.813 46.0306 170.002 46.1094C170.191 46.1882 170.333 46.267 170.428 46.3774C170.522 46.4878 170.585 46.6297 170.617 46.7873C170.633 46.8977 170.648 47.0711 170.648 47.3391V48.1432C170.648 48.7108 170.664 49.0576 170.68 49.2153C170.696 49.373 170.759 49.4991 170.838 49.641H170.207C170.128 49.5149 170.081 49.373 170.065 49.2153ZM170.018 47.8594C169.797 47.954 169.466 48.0171 169.024 48.0801C168.772 48.1117 168.599 48.159 168.504 48.2063C168.394 48.2536 168.315 48.3166 168.268 48.3955C168.22 48.4743 168.189 48.5847 168.189 48.6793C168.189 48.8369 168.252 48.9788 168.378 49.0892C168.504 49.1995 168.678 49.2468 168.914 49.2468C169.151 49.2468 169.356 49.1995 169.529 49.0892C169.702 48.9788 169.844 48.8527 169.923 48.6793C169.986 48.5374 170.018 48.3482 170.018 48.0801V47.8594Z" fill="#D3AF4A"/>
<path d="M59.418 40.4482H172.619" stroke="#D3AF4A" stroke-width="0.351476" stroke-miterlimit="10"/>
</svg>
