<svg width="208" height="64" viewBox="0 0 208 64" fill="none" xmlns="http://www.w3.org/2000/svg">
<path d="M63.4444 33.4789L66.4509 20.9003L70.3725 35.1365L67.1372 47H58.0196L49 17H59L63.4444 33.4789ZM84.7516 47H75.1765L66.9085 17H77.0392L84.7516 47ZM84.8496 17H94L85.83 45.4399L81.7451 29.4485L84.8496 17Z" fill="url(#paint0_linear_3637_6415)"/>
<path d="M131.616 30.6943C131.584 30.7623 131.584 30.7963 131.552 30.8642C131.52 30.8982 131.457 30.9321 131.425 30.9661C131.361 31 131.298 31 131.202 31C131.107 31 131.012 31 130.884 31C130.757 31 130.63 31 130.535 31C130.439 31 130.376 30.9661 130.312 30.9661C130.249 30.9321 130.217 30.9321 130.185 30.8642C130.153 30.8302 130.121 30.7623 130.121 30.6943L128.373 23.9359L126.751 30.6943C126.751 30.7623 126.72 30.7963 126.688 30.8642C126.656 30.8982 126.624 30.9321 126.561 30.9661C126.497 31 126.434 31 126.338 31C126.243 31 126.147 31 125.989 31C125.861 31 125.734 31 125.639 31C125.543 31 125.48 30.9661 125.416 30.9661C125.353 30.9321 125.321 30.9321 125.289 30.8642C125.257 30.8302 125.225 30.7623 125.225 30.6943L123.032 22.4415C123 22.3396 123 22.2377 123 22.2038C123 22.1358 123 22.1019 123.064 22.0679C123.095 22.034 123.159 22 123.254 22H123.572H123.89C123.954 22 124.017 22.034 124.081 22.034C124.113 22.0679 124.145 22.0679 124.176 22.1019C124.176 22.1358 124.208 22.1698 124.208 22.2377L126.084 29.7094L127.864 22.2377C127.864 22.2038 127.896 22.1358 127.928 22.1019C127.96 22.0679 127.991 22.034 128.023 22.034C128.055 22 128.119 22 128.214 22H128.532H128.818C128.882 22 128.945 22.034 128.977 22.034C129.009 22.0679 129.04 22.0679 129.072 22.1019C129.104 22.1358 129.104 22.1698 129.136 22.2377L131.043 29.7094L132.887 22.2377C132.887 22.2038 132.919 22.1358 132.919 22.1019C132.919 22.0679 132.951 22.034 133.014 22.034C133.046 22 133.11 22 133.173 22H133.46C133.587 22 133.682 22 133.777 22.034C133.841 22.034 133.905 22.0679 133.936 22.1019C133.968 22.1358 134 22.1698 134 22.2377C134 22.3057 134 22.3736 133.968 22.4755L131.616 30.6943Z" fill="#484848"/>
<path d="M140 30.4867V30.692C140 30.7605 139.966 30.7947 139.966 30.8631C139.931 30.8974 139.931 30.9316 139.897 30.9658C139.863 31 139.829 31 139.795 31H135.445C135.343 31 135.24 30.9658 135.137 30.8974C135.034 30.829 135 30.692 135 30.521V22.4791C135 22.308 135.034 22.1711 135.137 22.1027C135.24 22.0342 135.343 22 135.445 22H139.726C139.76 22 139.795 22 139.829 22.0342C139.863 22.0684 139.897 22.0684 139.897 22.1369C139.931 22.1711 139.931 22.2395 139.931 22.308C139.931 22.3764 139.966 22.4449 139.966 22.5475C139.966 22.616 139.966 22.7186 139.931 22.7528C139.931 22.8213 139.897 22.8555 139.897 22.8897C139.863 22.924 139.863 22.9582 139.829 22.9924C139.795 23.0266 139.76 23.0266 139.726 23.0266H136.199V25.7985H139.212C139.247 25.7985 139.281 25.7985 139.315 25.8327C139.349 25.8669 139.384 25.8669 139.384 25.9354C139.418 25.9696 139.418 26.038 139.418 26.0723V26.3118V26.5171C139.418 26.5856 139.384 26.6198 139.384 26.654C139.349 26.6883 139.349 26.7224 139.315 26.7224C139.281 26.7224 139.247 26.7567 139.212 26.7567H136.199V29.9734H139.76C139.795 29.9734 139.829 29.9734 139.863 30.0076C139.897 30.0419 139.931 30.0419 139.931 30.1103C139.966 30.1446 139.966 30.213 139.966 30.2472C140 30.3156 140 30.4183 140 30.4867Z" fill="#484848"/>
<path d="M148 28.3992C148 28.6731 147.965 28.9468 147.897 29.1863C147.828 29.4259 147.724 29.6312 147.586 29.8366C147.448 30.0419 147.31 30.1787 147.103 30.3499C146.931 30.4867 146.724 30.6236 146.483 30.7263C146.241 30.829 146 30.8974 145.724 30.9316C145.448 30.9658 145.172 31 144.828 31H142.448C142.345 31 142.241 30.9658 142.138 30.8974C142.035 30.829 142 30.692 142 30.521V22.4791C142 22.308 142.035 22.1711 142.138 22.1027C142.241 22.0342 142.345 22 142.448 22H144.517C145.069 22 145.517 22.0342 145.862 22.1369C146.207 22.2395 146.483 22.3764 146.724 22.5818C146.966 22.7871 147.138 23.0266 147.241 23.3004C147.345 23.5741 147.414 23.9164 147.414 24.2586C147.414 24.4639 147.379 24.6692 147.345 24.8745C147.31 25.0799 147.207 25.251 147.103 25.422C147 25.5932 146.862 25.73 146.724 25.8669C146.586 26.0039 146.414 26.1064 146.207 26.1749C146.448 26.2091 146.69 26.3118 146.897 26.4144C147.103 26.5514 147.31 26.6883 147.448 26.8936C147.621 27.0988 147.724 27.3042 147.828 27.578C147.931 27.8175 148 28.0912 148 28.3992ZM146.172 24.3954C146.172 24.1901 146.138 23.9848 146.069 23.8137C146 23.6426 145.897 23.4715 145.793 23.3688C145.69 23.2662 145.483 23.1635 145.276 23.0951C145.069 23.0266 144.793 22.9924 144.448 22.9924H143.207V25.9012H144.586C144.897 25.9012 145.138 25.8669 145.345 25.7643C145.552 25.6959 145.69 25.5589 145.828 25.422C145.965 25.2852 146.034 25.1141 146.103 24.943C146.138 24.7719 146.172 24.5666 146.172 24.3954ZM146.724 28.4677C146.724 28.1939 146.69 27.9544 146.586 27.7491C146.483 27.5438 146.379 27.3727 146.207 27.2358C146.034 27.0988 145.828 26.9963 145.586 26.9278C145.345 26.8593 145.034 26.8251 144.655 26.8251H143.207V30.0076H144.966C145.241 30.0076 145.483 29.9734 145.69 29.905C145.897 29.8366 146.069 29.7339 146.241 29.6312C146.414 29.4943 146.517 29.3575 146.621 29.1522C146.655 28.9468 146.724 28.7415 146.724 28.4677Z" fill="#484848"/>
<path d="M127 38.5076V38.7444C127 38.8121 126.971 38.8459 126.971 38.9135C126.942 38.9474 126.942 38.9813 126.912 39.0151C126.883 39.049 126.854 39.0489 126.825 39.0489H124.022V42.0602H126.679C126.708 42.0602 126.737 42.0602 126.766 42.094C126.796 42.094 126.825 42.1278 126.825 42.1617C126.854 42.1955 126.854 42.2631 126.854 42.297V42.5339V42.7707C126.854 42.8384 126.825 42.8722 126.825 42.906C126.796 42.9398 126.796 42.9737 126.766 43.0075C126.737 43.0414 126.708 43.0414 126.679 43.0414H124.022V46.7631C124.022 46.7969 124.022 46.8308 123.993 46.8646C123.963 46.8985 123.963 46.9323 123.905 46.9323C123.876 46.9323 123.817 46.9661 123.759 46.9661C123.701 46.9661 123.613 47 123.496 47C123.409 47 123.321 47 123.263 46.9661C123.204 46.9661 123.146 46.9323 123.117 46.9323C123.088 46.9323 123.058 46.8985 123.029 46.8646C123 46.8308 123 46.7969 123 46.7631V38.4737C123 38.3045 123.029 38.1692 123.117 38.1015C123.204 38.0339 123.292 38 123.38 38H126.825C126.854 38 126.883 38 126.912 38.0339C126.942 38.0678 126.971 38.0678 126.971 38.1354C127 38.1692 127 38.2369 127 38.3045C127 38.3723 127 38.4399 127 38.5076Z" fill="#484848"/>
<path d="M137 42.3505C137 43.048 136.898 43.679 136.728 44.2767C136.557 44.8413 136.319 45.3394 135.979 45.738C135.638 46.1365 135.23 46.4354 134.719 46.6678C134.208 46.8672 133.596 47 132.915 47C132.234 47 131.655 46.9003 131.179 46.7011C130.702 46.5019 130.294 46.2361 129.953 45.8376C129.647 45.4723 129.409 45.0074 129.238 44.4428C129.068 43.8782 129 43.2472 129 42.5166C129 41.8192 129.102 41.1882 129.272 40.6568C129.443 40.0923 129.715 39.6273 130.055 39.2287C130.396 38.8303 130.838 38.5314 131.349 38.332C131.86 38.1328 132.472 38 133.153 38C133.8 38 134.379 38.0997 134.889 38.2989C135.366 38.4981 135.775 38.7639 136.115 39.1623C136.455 39.5276 136.694 39.9926 136.83 40.524C136.898 40.9889 137 41.6199 137 42.3505ZM135.74 42.417C135.74 41.9188 135.706 41.4538 135.604 41.0221C135.502 40.5904 135.366 40.2251 135.162 39.9262C134.958 39.6273 134.685 39.3617 134.311 39.1956C133.97 39.0295 133.528 38.9298 133.017 38.9298C132.506 38.9298 132.064 39.0295 131.723 39.2287C131.383 39.4281 131.077 39.6605 130.872 39.9926C130.668 40.2915 130.498 40.6901 130.396 41.0885C130.294 41.5203 130.26 41.952 130.26 42.417C130.26 42.9151 130.294 43.4133 130.396 43.845C130.498 44.2767 130.634 44.6421 130.838 44.9741C131.043 45.3063 131.315 45.5388 131.655 45.7048C131.996 45.8708 132.438 45.9705 132.949 45.9705C133.46 45.9705 133.902 45.8708 134.277 45.6716C134.617 45.4723 134.923 45.2399 135.128 44.9077C135.332 44.5756 135.502 44.2103 135.604 43.7786C135.672 43.3469 135.74 42.8819 135.74 42.417Z" fill="#484848"/>
<path d="M144 45.6567V45.8582C144 45.9254 144 45.959 143.968 45.9926C143.968 46.0261 143.937 46.0597 143.937 46.0933C143.905 46.1269 143.905 46.1604 143.842 46.1941C143.811 46.2277 143.716 46.2948 143.558 46.3955C143.432 46.4963 143.242 46.5635 143.053 46.6642C142.863 46.7649 142.611 46.8321 142.358 46.8993C142.105 46.9665 141.821 47 141.505 47C140.968 47 140.495 46.8993 140.053 46.6978C139.61 46.4963 139.263 46.2277 138.947 45.8582C138.632 45.4888 138.411 45.0187 138.253 44.4814C138.095 43.9441 138 43.3059 138 42.6008C138 41.862 138.095 41.2239 138.253 40.653C138.442 40.0821 138.695 39.5784 139.01 39.209C139.326 38.8059 139.705 38.5037 140.147 38.3022C140.589 38.1008 141.095 38 141.632 38C141.884 38 142.105 38.0336 142.326 38.0672C142.547 38.1008 142.768 38.1679 142.958 38.2351C143.147 38.3022 143.337 38.403 143.463 38.5037C143.621 38.6045 143.716 38.6716 143.779 38.7388C143.842 38.8059 143.874 38.8396 143.905 38.8731C143.937 38.9067 143.937 38.9403 143.937 38.9739C143.937 39.0075 143.968 39.0747 143.968 39.1418V39.3433V39.5784C143.968 39.6455 143.937 39.6791 143.937 39.7463C143.905 39.7798 143.905 39.8135 143.874 39.847C143.842 39.8806 143.811 39.8806 143.779 39.8806C143.716 39.8806 143.621 39.847 143.526 39.7463C143.432 39.6455 143.274 39.5447 143.116 39.4441C142.958 39.3433 142.737 39.2425 142.484 39.1418C142.232 39.041 141.947 39.0075 141.6 39.0075C141.221 39.0075 140.905 39.0747 140.589 39.2425C140.274 39.4104 140.021 39.6455 139.8 39.9478C139.579 40.25 139.421 40.6194 139.295 41.0559C139.168 41.4925 139.105 41.9963 139.105 42.5672C139.105 43.1381 139.168 43.6082 139.263 44.0448C139.389 44.4814 139.547 44.8508 139.768 45.1194C139.989 45.4216 140.242 45.6232 140.558 45.791C140.874 45.9254 141.221 46.0261 141.6 46.0261C141.916 46.0261 142.232 45.9926 142.453 45.8918C142.705 45.791 142.926 45.7239 143.084 45.5896C143.274 45.4888 143.4 45.3881 143.526 45.2873C143.653 45.1865 143.716 45.153 143.779 45.153C143.811 45.153 143.842 45.153 143.842 45.1865C143.874 45.1865 143.874 45.2202 143.905 45.2537C143.905 45.2873 143.937 45.3545 143.937 45.4216C144 45.4553 144 45.5559 144 45.6567Z" fill="#484848"/>
<path d="M153 43.6C153 44.1334 152.929 44.6 152.754 45.0334C152.578 45.4667 152.367 45.8 152.051 46.1C151.734 46.4 151.382 46.6001 150.925 46.7667C150.503 46.9001 149.975 47 149.447 47C148.92 47 148.462 46.9333 148.04 46.8C147.618 46.6667 147.266 46.4667 146.95 46.1666C146.633 45.9 146.422 45.5667 146.246 45.1333C146.07 44.7334 146 44.2333 146 43.7001V38.2333C146 38.2 146 38.1667 146.035 38.1333C146.07 38.1 146.07 38.1 146.141 38.0667C146.176 38.0667 146.246 38.0334 146.317 38.0334C146.387 38.0334 146.493 38 146.633 38C146.739 38 146.844 38 146.915 38.0334C146.985 38.0334 147.055 38.0667 147.09 38.0667C147.126 38.0667 147.161 38.1 147.196 38.1333C147.231 38.1667 147.231 38.2 147.231 38.2333V43.5334C147.231 43.9333 147.266 44.3 147.372 44.6C147.477 44.9 147.618 45.1667 147.829 45.3667C148.04 45.5666 148.251 45.7333 148.533 45.8334C148.814 45.9334 149.131 46.0001 149.482 46.0001C149.834 46.0001 150.151 45.9667 150.432 45.8666C150.714 45.7667 150.96 45.6334 151.136 45.4333C151.312 45.2334 151.487 45 151.593 44.7C151.698 44.4 151.734 44.0667 151.734 43.6667V38.2333C151.734 38.2 151.734 38.1667 151.769 38.1333C151.804 38.1 151.804 38.1 151.874 38.0667C151.909 38.0667 151.98 38.0334 152.051 38.0334C152.12 38.0334 152.226 38 152.331 38C152.438 38 152.543 38 152.613 38.0334C152.683 38.0334 152.754 38.0667 152.789 38.0667C152.824 38.0667 152.86 38.1 152.894 38.1333C152.929 38.1667 152.929 38.2 152.929 38.2333V43.6H153Z" fill="#484848"/>
<path d="M156.179 47C155.902 47 155.656 46.9666 155.442 46.9333C155.197 46.9 155.013 46.8333 154.829 46.7667C154.645 46.7 154.491 46.6333 154.368 46.5333C154.246 46.4667 154.154 46.4 154.123 46.3333C154.062 46.2667 154.031 46.2 154.031 46.1334C154 46.0333 154 45.9333 154 45.8C154 45.7 154 45.6333 154 45.5666C154 45.5 154.031 45.4333 154.031 45.3999C154.062 45.3667 154.062 45.3333 154.092 45.3C154.123 45.2666 154.154 45.2666 154.184 45.2666C154.246 45.2666 154.338 45.3 154.43 45.3667C154.522 45.4333 154.675 45.5334 154.829 45.6333C154.982 45.7333 155.197 45.8 155.442 45.9C155.687 45.9667 155.933 46.0333 156.27 46.0333C156.516 46.0333 156.731 46 156.915 45.9333C157.099 45.8666 157.283 45.7666 157.405 45.6333C157.558 45.5 157.651 45.3667 157.712 45.1666C157.773 45 157.835 44.7667 157.835 44.5667C157.835 44.3333 157.773 44.1 157.681 43.9333C157.589 43.7666 157.436 43.5999 157.283 43.4666C157.099 43.3333 156.915 43.2 156.7 43.1C156.485 43 156.27 42.8666 156.024 42.7667C155.811 42.6666 155.565 42.5333 155.35 42.4C155.135 42.2666 154.951 42.1 154.767 41.8999C154.583 41.7 154.461 41.5 154.338 41.2333C154.246 40.9667 154.184 40.6667 154.184 40.3C154.184 39.9333 154.246 39.6 154.368 39.3333C154.491 39.0333 154.675 38.8 154.89 38.6C155.104 38.3999 155.381 38.2666 155.656 38.1666C155.964 38.0667 156.27 38 156.638 38C156.822 38 157.006 38.0333 157.19 38.0667C157.374 38.0999 157.528 38.1333 157.712 38.2C157.865 38.2666 158.019 38.3333 158.141 38.3999C158.264 38.4666 158.356 38.5332 158.387 38.5666C158.417 38.6 158.448 38.6333 158.479 38.6667C158.479 38.6999 158.51 38.7333 158.51 38.7666C158.51 38.8 158.51 38.8666 158.54 38.9V39.1V39.3333C158.54 39.4 158.51 39.4333 158.51 39.4999C158.51 39.5333 158.479 39.5667 158.448 39.5999C158.417 39.6333 158.387 39.6333 158.356 39.6333C158.325 39.6333 158.233 39.5999 158.141 39.5333C158.049 39.4666 157.927 39.4 157.773 39.3333C157.62 39.2667 157.467 39.1666 157.283 39.1C157.099 39.0333 156.884 38.9999 156.638 38.9999C156.423 38.9999 156.209 39.0333 156.055 39.1C155.902 39.1666 155.749 39.2667 155.656 39.3666C155.534 39.4666 155.472 39.5999 155.412 39.7666C155.35 39.9 155.319 40.0666 155.319 40.2333C155.319 40.4667 155.381 40.6999 155.472 40.8666C155.565 41.0333 155.718 41.2 155.902 41.3333C156.086 41.4666 156.27 41.5999 156.485 41.7C156.7 41.8 156.915 41.9333 157.16 42.0333C157.405 42.1333 157.62 42.2666 157.835 42.4C158.049 42.5333 158.264 42.7 158.417 42.9C158.601 43.1 158.724 43.3 158.847 43.5666C158.939 43.8333 159 44.1333 159 44.4667C159 44.8667 158.939 45.2334 158.785 45.5666C158.632 45.9 158.448 46.1666 158.203 46.3666C157.957 46.6 157.651 46.7667 157.344 46.8667C156.915 46.9333 156.547 47 156.179 47Z" fill="#484848"/>
<path d="M92.1919 28.1316H99.9632L101.89 17H111L105.71 47H87L89.547 39.3286H98.004L98.6898 35.3134H90.9184L92.1919 28.1316Z" fill="url(#paint1_linear_3637_6415)"/>
<path d="M118 15H117V49H118V15Z" fill="#484848"/>
<defs>
<linearGradient id="paint0_linear_3637_6415" x1="55.3072" y1="46.9676" x2="91.764" y2="19.3123" gradientUnits="userSpaceOnUse">
<stop offset="0.0001" stop-color="#F1C0CC"/>
<stop offset="1" stop-color="#A57CFE"/>
</linearGradient>
<linearGradient id="paint1_linear_3637_6415" x1="109.89" y1="17" x2="89.7175" y2="44.9812" gradientUnits="userSpaceOnUse">
<stop stop-color="#E9B9D1"/>
<stop offset="1" stop-color="#A57CFE"/>
</linearGradient>
</defs>
</svg>
