<svg width="20" height="24" viewBox="0 0 20 24" fill="none" xmlns="http://www.w3.org/2000/svg">
<path d="M10.0001 11.4728C11.9709 11.4728 13.5744 9.8694 13.5744 7.89851C13.5744 5.92762 11.9709 4.32422 10.0001 4.32422C8.02919 4.32422 6.42578 5.92762 6.42578 7.89851C6.42578 9.8694 8.02919 11.4728 10.0001 11.4728ZM10.0001 6.11137C10.9857 6.11137 11.7872 6.9129 11.7872 7.89851C11.7872 8.88412 10.9857 9.68566 10.0001 9.68566C9.01441 9.68566 8.21293 8.88412 8.21293 7.89851C8.21293 6.9129 9.01441 6.11137 10.0001 6.11137Z" fill="#DC143C"/>
<path d="M4.61795 19.6843L6.42604 23.3003L10.0003 16.1517L13.5746 23.3003L15.3827 19.6843L19.75 20.9322L15.5096 12.4513C16.5703 11.169 17.1489 9.57666 17.1489 7.89859C17.1489 3.95715 13.9417 0.75 10.0003 0.75C6.05862 0.75 2.85169 3.95715 2.85169 7.89859C2.85169 9.57577 3.42978 11.1677 4.4909 12.4513L0.25 20.9322L4.61795 19.6843ZM16.3348 18.0979L14.4473 17.5586L13.5746 19.3041L11.38 14.9145C11.3839 14.9136 11.3876 14.9123 11.3911 14.9117C11.6302 14.8648 11.8656 14.8055 12.097 14.7343C12.1648 14.7134 12.2301 14.6857 12.2977 14.6625C12.4598 14.6076 12.6215 14.5517 12.7792 14.4852C12.8678 14.4477 12.9526 14.403 13.0397 14.3617C13.1721 14.2993 13.3043 14.2376 13.4331 14.1669C13.5255 14.1161 13.6143 14.0594 13.7046 14.0044C13.8225 13.9324 13.94 13.8606 14.0539 13.7819C14.0845 13.7609 14.117 13.7439 14.1473 13.7225L16.3348 18.0979ZM10.0003 2.53715C12.9566 2.53715 15.3618 4.94214 15.3618 7.89859C15.3618 9.3264 14.8037 10.6736 13.793 11.6886C12.7757 12.702 11.4286 13.26 10.0003 13.26C9.82162 13.26 9.64469 13.2511 9.46911 13.2341C8.24089 13.1134 7.09885 12.5761 6.20896 11.69C5.19649 10.6727 4.6389 9.32601 4.6389 7.89859C4.6389 4.94209 7.04384 2.53715 10.0003 2.53715ZM5.8536 13.7225C5.88264 13.7434 5.91447 13.7596 5.9439 13.7801C6.06191 13.8619 6.18344 13.9365 6.3058 14.0107C6.39197 14.0628 6.47686 14.1174 6.56544 14.166C6.69808 14.2393 6.83485 14.3033 6.97185 14.3676C7.0545 14.4064 7.13548 14.449 7.21948 14.4848C7.38177 14.553 7.54781 14.6111 7.71446 14.6669C7.77752 14.6883 7.83884 14.7147 7.90251 14.7343C8.1351 14.8056 8.37116 14.865 8.60977 14.9124C8.61351 14.9132 8.61703 14.9145 8.62111 14.915L6.42604 19.3041L5.55341 17.5586L3.66568 18.0979L5.8536 13.7225Z" fill="#DC143C"/>
</svg>
