<svg width="32" height="32" viewBox="0 0 32 32" fill="none" xmlns="http://www.w3.org/2000/svg">
<g clip-path="url(#clip0_4237_10750)">
<path d="M17.875 23.5V27.25C17.875 28.2856 18.7144 29.125 19.75 29.125M19.75 29.125H22.5625M19.75 29.125H12.25M12.25 29.125H9.4375M12.25 29.125C13.2856 29.125 14.125 28.2856 14.125 27.25V23.5M0.9375 2.875H31.0625V23.5H0.9375V2.875Z" stroke="#DC143C" stroke-width="2" stroke-miterlimit="10"/>
<path d="M10.375 14.125C9.33944 14.125 8.5 14.9644 8.5 16V17.875C8.5 18.9106 9.33944 19.75 10.375 19.75H12.25V14.125H10.375ZM10.375 14.125V12.25C10.375 9.14337 12.8934 6.625 16 6.625C19.1066 6.625 21.625 9.14337 21.625 12.25V14.125M19.75 19.75H21.625C22.6606 19.75 23.5 18.9106 23.5 17.875V16C23.5 14.9644 22.6606 14.125 21.625 14.125M19.75 19.75V14.125H21.625M19.75 19.75H15.0625" stroke="#DC143C" stroke-width="2" stroke-miterlimit="10"/>
</g>
<defs>
<clipPath id="clip0_4237_10750">
<rect width="32" height="32" fill="white"/>
</clipPath>
</defs>
</svg>
