<svg width="32" height="32" viewBox="0 0 32 32" fill="none" xmlns="http://www.w3.org/2000/svg">
<g clip-path="url(#clip0_4247_12181)">
<path d="M16 0.9375C7.68125 0.9375 0.9375 7.68119 0.9375 16C0.9375 18.8817 1.74725 21.5741 3.15088 23.8629L1.32581 30.6742L8.13706 28.8491C10.4259 30.2527 13.1183 31.0625 16 31.0625C24.3188 31.0625 31.0625 24.3188 31.0625 16C31.0625 7.68119 24.3188 0.9375 16 0.9375Z" stroke="#DC143C" stroke-width="2" stroke-miterlimit="10"/>
<path d="M15.9995 9.625L17.8731 13.4213L22.0625 14.03L19.031 16.985L19.7466 21.1575L15.9995 19.1875L12.2524 21.1575L12.968 16.985L9.93652 14.03L14.126 13.4213L15.9995 9.625Z" stroke="#DC143C" stroke-width="2" stroke-miterlimit="10"/>
<path d="M16 27.3125C22.2477 27.3125 27.3125 22.2477 27.3125 16C27.3125 9.75228 22.2477 4.6875 16 4.6875C9.75228 4.6875 4.6875 9.75228 4.6875 16C4.6875 22.2477 9.75228 27.3125 16 27.3125Z" stroke="#DC143C" stroke-width="2" stroke-miterlimit="10"/>
</g>
<defs>
<clipPath id="clip0_4247_12181">
<rect width="32" height="32" fill="white"/>
</clipPath>
</defs>
</svg>
