<svg width="32" height="32" viewBox="0 0 32 32" fill="none" xmlns="http://www.w3.org/2000/svg">
<g clip-path="url(#clip0_4237_10755)">
<path d="M18.875 7.5H23.1741L17.2747 13.3997L18.6003 14.7253L24.5 8.82594V13.125H26.375V5.625H18.875V7.5ZM28.25 0V1.875H30.125V3.75H32V0H28.25ZM30.125 24.375H28.25V26.25H32V22.5H30.125V24.375ZM30.125 5.625H32V9.375H30.125V5.625ZM30.125 11.25H32V15H30.125V11.25ZM30.125 16.875H32V20.625H30.125V16.875ZM7.625 1.875H9.5V0H5.75V3.75H7.625V1.875ZM5.75 5.625H7.625V9.375H5.75V5.625ZM5.75 11.25H7.625V15H5.75V11.25ZM11.375 0H15.125V1.875H11.375V0ZM17 0H20.75V1.875H17V0ZM22.625 0H26.375V1.875H22.625V0ZM17 24.375H20.75V26.25H17V24.375ZM22.625 24.375H26.375V26.25H22.625V24.375ZM0 32H15V17H0V32ZM1.875 18.875H13.125V30.125H1.875V18.875Z" fill="white"/>
</g>
<defs>
<clipPath id="clip0_4237_10755">
<rect width="32" height="32" fill="white"/>
</clipPath>
</defs>
</svg>
