<svg width="32" height="32" viewBox="0 0 32 32" fill="none" xmlns="http://www.w3.org/2000/svg">
<path d="M20.5325 26.4735H25.9937C27.4376 26.4735 28.6081 25.303 28.6081 23.8591V9.47228H6.18774V24.8797C6.18774 25.76 5.47416 26.4735 4.59387 26.4735M4.59387 26.4735C3.71357 26.4735 3 25.76 3 24.8797V4H11.8725V6.28454H27.0143V9.47228M4.59387 26.4735H14.529" stroke="#DC143C" stroke-width="2" stroke-miterlimit="10"/>
<path d="M17.8523 28.4368C14.2556 26.5074 12.0113 24.3829 12.0113 20.3014V16.6754H14.4294C15.0502 16.6753 15.6661 16.5656 16.2487 16.3513C16.8268 16.1393 17.3753 15.8248 17.8523 15.4202C18.3293 15.8248 18.8777 16.1393 19.4558 16.3513C20.0385 16.5656 20.6544 16.6753 21.2752 16.6754H23.6933V20.3014C23.6933 24.3829 21.449 26.5074 17.8523 28.4368Z" stroke="#DC143C" stroke-width="2" stroke-miterlimit="10"/>
<path d="M17.8522 24.7371C17.0633 24.2139 16.4885 23.7126 16.0867 23.2028C15.6734 22.6783 15.199 21.8745 15.199 20.3012V19.828C15.9339 19.7611 16.6568 19.5979 17.3492 19.3428C17.519 19.2805 17.6868 19.2129 17.8524 19.1401C18.019 19.2134 18.1878 19.2814 18.3587 19.344C19.05 19.5986 19.7718 19.7613 20.5055 19.828V20.3012C20.5055 21.8745 20.031 22.6783 19.6178 23.2028C19.216 23.7126 18.6411 24.214 17.8522 24.7371Z" stroke="#DC143C" stroke-width="2" stroke-miterlimit="10"/>
</svg>
