<svg width="50" height="50" viewBox="0 0 50 50" fill="none" xmlns="http://www.w3.org/2000/svg">
<rect width="50" height="50" rx="8" fill="white"/>
<path d="M17.5556 37.4H31.4444V34.6H17.5556V37.4Z" fill="#DC143C"/>
<path d="M31.4444 31.8H17.5556V29H31.4444V31.8Z" fill="#DC143C"/>
<path d="M17.5556 26.2H23.1111V23.4H17.5556V26.2Z" fill="#DC143C"/>
<path fill-rule="evenodd" clip-rule="evenodd" d="M16.1667 15C13.8655 15 12 16.8804 12 19.2V38.8C12 41.1196 13.8655 43 16.1667 43H32.8333C35.1345 43 37 41.1196 37 38.8V24.8C37 19.3876 32.6472 15 27.2778 15H16.1667ZM16.1667 17.8H25.8889V24.8H34.2222V38.8C34.2222 39.5732 33.6004 40.2 32.8333 40.2H16.1667C15.3996 40.2 14.7778 39.5732 14.7778 38.8V19.2C14.7778 18.4268 15.3996 17.8 16.1667 17.8ZM28.6667 17.94C30.9046 18.3979 32.7518 19.9407 33.6444 22H28.6667V17.94Z" fill="#DC143C"/>
</svg>
