<svg width="50" height="50" viewBox="0 0 50 50" fill="none" xmlns="http://www.w3.org/2000/svg">
<rect width="50" height="50" rx="8" fill="white"/>
<path d="M34.5 15H14.5C13.837 15 13.2011 15.2662 12.7322 15.7399C12.2634 16.2137 12 16.8563 12 17.5263V38.5C12 38.7761 12.2239 39 12.5 39H13.0414C13.1749 39 13.3028 38.9466 13.3968 38.8517L18.1032 34.0957C18.1972 34.0008 18.3251 33.9474 18.4586 33.9474H34.5C35.163 33.9474 35.7989 33.6812 36.2678 33.2074C36.7366 32.7337 37 32.0911 37 31.4211V17.5263C37 16.8563 36.7366 16.2137 36.2678 15.7399C35.7989 15.2662 35.163 15 34.5 15ZM34.5 31.4211H17.2086C17.0751 31.4211 16.9472 31.4745 16.8532 31.5694L15.3554 33.083C15.0412 33.4005 14.5 33.178 14.5 32.7313V18.0263C14.5 17.7502 14.7239 17.5263 15 17.5263H34.5" fill="#DC143C"/>
</svg>
