<svg width="50" height="50" viewBox="0 0 50 50" fill="none" xmlns="http://www.w3.org/2000/svg">
<rect width="50" height="50" rx="8" fill="white"/>
<path fill-rule="evenodd" clip-rule="evenodd" d="M22.75 24.7778C25.5114 24.7778 27.75 22.5889 27.75 19.8889C27.75 17.1888 25.5114 15 22.75 15C19.9886 15 17.75 17.1888 17.75 19.8889C17.75 22.5889 19.9886 24.7778 22.75 24.7778ZM22.75 22.3333C24.1307 22.3333 25.25 21.2389 25.25 19.8889C25.25 18.5389 24.1307 17.4444 22.75 17.4444C21.3693 17.4444 20.25 18.5389 20.25 19.8889C20.25 21.2389 21.3693 22.3333 22.75 22.3333Z" fill="#DC143C"/>
<path d="M27.75 28.4444C28.4404 28.4444 29 28.9917 29 29.6667V37H31.5V29.6667C31.5 27.6416 29.8211 26 27.75 26H17.75C15.6789 26 14 27.6416 14 29.6667V37H16.5V29.6667C16.5 28.9917 17.0596 28.4444 17.75 28.4444H27.75Z" fill="#DC143C"/>
<path d="M34 19.8889H36.5V22.3333H39V24.7778H36.5V27.2222H34V24.7778H31.5V22.3333H34V19.8889Z" fill="#DC143C"/>
</svg>
